M48
;DRILL file {KiCad 4.0.4+e1-6308~48~ubuntu14.04.1-stable} date Thu Dec 22 12:45:36 2016
;FORMAT={-:-/ absolute / inch / decimal}
FMAT,2
INCH,TZ
T1C0.020
T2C0.020
T3C0.039
T4C0.039
T5C0.040
T6C0.041
T7C0.052
T8C0.126
%
G90
G05
M72
T1
X5.2559Y-2.0276
X5.2559Y-2.0768
X5.2559Y-2.185
X5.2559Y-2.2638
X5.2953Y-2.4213
X5.3543Y-1.9488
X5.4528Y-2.2343
X5.4724Y-2.6575
X5.4921Y-2.3327
X5.5118Y-2.5984
X5.5512Y-2.2539
X5.6299Y-1.8701
T2
X5.4331Y-2.4803
X5.6102Y-1.4173
X5.7677Y-1.3386
X6.0433Y-1.6142
X6.0433Y-1.7717
T3
X4.9213Y-1.7717
X4.9213Y-2.4606
X4.9213Y-3.248
X4.9213Y-4.0354
X4.9213Y-4.9213
X4.9213Y-5.5118
X5.1181Y-1.7717
X5.1181Y-2.4606
X5.1181Y-3.248
X5.1181Y-4.0354
X5.1181Y-4.9213
X5.1181Y-5.5118
X5.7087Y-2.4606
X5.7087Y-3.248
X5.7087Y-4.0354
X5.7087Y-4.7638
X5.7087Y-5.6693
X5.9055Y-2.4606
X5.9055Y-3.248
X5.9055Y-4.0354
X5.9055Y-4.7638
X5.9055Y-5.6693
T4
X5.2346Y-1.7126
X5.3346Y-1.7126
T5
X4.9Y-2.0866
X5.Y-2.0866
X5.8055Y-1.9654
X5.8055Y-2.0654
X5.8055Y-2.1654
X5.9055Y-1.9654
X5.9055Y-2.0654
X5.9055Y-2.1654
T6
X5.4512Y-1.3386
X5.5512Y-1.3386
X5.6512Y-1.3386
T7
X5.0022Y-4.3307
X5.0022Y-6.3976
X5.1772Y-4.4508
X5.1772Y-6.2776
X5.3522Y-4.3307
X5.3522Y-6.3976
X5.4746Y-4.3307
X5.4746Y-6.3976
X5.6496Y-4.4508
X5.6496Y-6.2776
X5.8246Y-4.3307
X5.8246Y-6.3976
T8
X4.8819Y-1.437
X4.8819Y-6.6339
X5.9449Y-1.437
X5.9449Y-6.6339
T0
M30
