G04 #@! TF.FileFunction,Copper,L2,Bot,Signal*
%FSLAX46Y46*%
G04 Gerber Fmt 4.6, Leading zero omitted, Abs format (unit mm)*
G04 Created by KiCad (PCBNEW 4.0.4+e1-6308~48~ubuntu14.04.1-stable) date Thu Dec 22 12:45:23 2016*
%MOMM*%
%LPD*%
G01*
G04 APERTURE LIST*
%ADD10C,0.100000*%
%ADD11C,1.016000*%
%ADD12R,1.727200X1.727200*%
%ADD13O,1.727200X1.727200*%
%ADD14C,1.650000*%
%ADD15R,1.900000X2.000000*%
%ADD16C,1.900000*%
%ADD17C,2.020000*%
%ADD18C,1.600000*%
%ADD19R,2.032000X2.032000*%
%ADD20O,2.032000X2.032000*%
%ADD21C,1.000000*%
%ADD22C,0.500000*%
%ADD23C,0.250000*%
%ADD24C,0.254000*%
G04 APERTURE END LIST*
D10*
D11*
X153500000Y-45000000D03*
X153500000Y-41000000D03*
X146500000Y-34000000D03*
X142500000Y-36000000D03*
X138000000Y-63000000D03*
D12*
X150000000Y-55000000D03*
D13*
X147460000Y-55000000D03*
X150000000Y-52460000D03*
X147460000Y-52460000D03*
X150000000Y-49920000D03*
X147460000Y-49920000D03*
D14*
X138460000Y-34000000D03*
X141000000Y-34000000D03*
X143540000Y-34000000D03*
D15*
X132960000Y-43500000D03*
D16*
X135500000Y-43500000D03*
D17*
X127055000Y-110000000D03*
X135945000Y-110000000D03*
X131500000Y-113050000D03*
X147945000Y-162500000D03*
X139055000Y-162500000D03*
X143500000Y-159450000D03*
X139055000Y-110000000D03*
X147945000Y-110000000D03*
X143500000Y-113050000D03*
X135945000Y-162500000D03*
X127055000Y-162500000D03*
X131500000Y-159450000D03*
D18*
X130000000Y-45000000D03*
X125000000Y-45000000D03*
X130000000Y-102500000D03*
X125000000Y-102500000D03*
X145000000Y-144000000D03*
X150000000Y-144000000D03*
X145000000Y-82500000D03*
X150000000Y-82500000D03*
X130000000Y-62500000D03*
X125000000Y-62500000D03*
X130000000Y-125000000D03*
X125000000Y-125000000D03*
X145000000Y-121000000D03*
X150000000Y-121000000D03*
X145000000Y-62500000D03*
X150000000Y-62500000D03*
X130000000Y-82500000D03*
X125000000Y-82500000D03*
X130000000Y-140000000D03*
X125000000Y-140000000D03*
X145000000Y-102500000D03*
X150000000Y-102500000D03*
D19*
X127000000Y-53000000D03*
D20*
X124460000Y-53000000D03*
D21*
X143000000Y-47500000D03*
X140000000Y-66000000D03*
X136000000Y-49500000D03*
X133500000Y-57500000D03*
X133500000Y-55500000D03*
X138500000Y-56750000D03*
X141000000Y-57250000D03*
X133500000Y-52750000D03*
X139000000Y-67500000D03*
X134500000Y-61500000D03*
X133500000Y-51500000D03*
X139500000Y-59250000D03*
D22*
X143500000Y-113050000D02*
X146450000Y-113050000D01*
X146450000Y-113050000D02*
X147945000Y-111555000D01*
X147945000Y-110000000D02*
X147945000Y-111555000D01*
X139055000Y-110000000D02*
X139055000Y-111428355D01*
X139055000Y-111428355D02*
X140676645Y-113050000D01*
X140676645Y-113050000D02*
X142071645Y-113050000D01*
X142071645Y-113050000D02*
X143500000Y-113050000D01*
D23*
X141000000Y-57250000D02*
X138999999Y-57249999D01*
X138999999Y-57249999D02*
X138500000Y-56750000D01*
X133500000Y-52750000D02*
X136250000Y-52750000D01*
X136250000Y-52750000D02*
X138500000Y-55000000D01*
X138500000Y-55000000D02*
X138500000Y-56750000D01*
X142000000Y-37540000D02*
X138460000Y-34000000D01*
X139000000Y-67500000D02*
X140250000Y-67500000D01*
X140250000Y-67500000D02*
X142000000Y-65750000D01*
X142000000Y-65750000D02*
X142000000Y-37540000D01*
X139000000Y-67500000D02*
X138924999Y-67424999D01*
X148750000Y-61250000D02*
X148750000Y-51170000D01*
X136500000Y-68500000D02*
X141500000Y-68500000D01*
X148750000Y-61250000D02*
X141500000Y-68500000D01*
X134500000Y-61500000D02*
X134500000Y-66500000D01*
X134500000Y-66500000D02*
X136500000Y-68500000D01*
X148750000Y-51170000D02*
X150000000Y-49920000D01*
X133500000Y-51500000D02*
X133000000Y-51500000D01*
X138000000Y-59250000D02*
X139500000Y-59250000D01*
X137250000Y-55000000D02*
X137250000Y-58500000D01*
X133000000Y-53750000D02*
X136000000Y-53750000D01*
X137250000Y-58500000D02*
X138000000Y-59250000D01*
X136000000Y-53750000D02*
X137250000Y-55000000D01*
X132500000Y-53250000D02*
X133000000Y-53750000D01*
X132500000Y-52000000D02*
X132500000Y-53250000D01*
X133000000Y-51500000D02*
X132500000Y-52000000D01*
D24*
G36*
X137000254Y-33708314D02*
X136999747Y-34289138D01*
X137221551Y-34825943D01*
X137631897Y-35237006D01*
X138168314Y-35459746D01*
X138749138Y-35460253D01*
X138817291Y-35432093D01*
X141240000Y-37854802D01*
X141240000Y-56120696D01*
X141226756Y-56115197D01*
X140775225Y-56114803D01*
X140357914Y-56287233D01*
X140154793Y-56490000D01*
X139620642Y-56489999D01*
X139462767Y-56107914D01*
X139260000Y-55904793D01*
X139260000Y-55000000D01*
X139202148Y-54709161D01*
X139037401Y-54462599D01*
X136787401Y-52212599D01*
X136540839Y-52047852D01*
X136250000Y-51990000D01*
X134525494Y-51990000D01*
X134634803Y-51726756D01*
X134635197Y-51275225D01*
X134462767Y-50857914D01*
X134143765Y-50538355D01*
X133726756Y-50365197D01*
X133275225Y-50364803D01*
X132857914Y-50537233D01*
X132538355Y-50856235D01*
X132506319Y-50933386D01*
X132462599Y-50962599D01*
X131962599Y-51462599D01*
X131797852Y-51709161D01*
X131740000Y-52000000D01*
X131740000Y-53250000D01*
X131797852Y-53540839D01*
X131962599Y-53787401D01*
X132462599Y-54287401D01*
X132709161Y-54452148D01*
X133000000Y-54510000D01*
X135685198Y-54510000D01*
X136490000Y-55314802D01*
X136490000Y-58500000D01*
X136547852Y-58790839D01*
X136712599Y-59037401D01*
X137462599Y-59787401D01*
X137709160Y-59952148D01*
X138000000Y-60010000D01*
X138654941Y-60010000D01*
X138856235Y-60211645D01*
X139273244Y-60384803D01*
X139724775Y-60385197D01*
X140142086Y-60212767D01*
X140461645Y-59893765D01*
X140634803Y-59476756D01*
X140635197Y-59025225D01*
X140462767Y-58607914D01*
X140143765Y-58288355D01*
X139726756Y-58115197D01*
X139275225Y-58114803D01*
X138857914Y-58287233D01*
X138654793Y-58490000D01*
X138314802Y-58490000D01*
X138010000Y-58185198D01*
X138010000Y-57775494D01*
X138273244Y-57884803D01*
X138608810Y-57885096D01*
X138709159Y-57952147D01*
X138999999Y-58009999D01*
X140154941Y-58010000D01*
X140356235Y-58211645D01*
X140773244Y-58384803D01*
X141224775Y-58385197D01*
X141240000Y-58378906D01*
X141240000Y-65435198D01*
X139935198Y-66740000D01*
X139845059Y-66740000D01*
X139643765Y-66538355D01*
X139226756Y-66365197D01*
X138775225Y-66364803D01*
X138357914Y-66537233D01*
X138038355Y-66856235D01*
X137865197Y-67273244D01*
X137864803Y-67724775D01*
X137871094Y-67740000D01*
X136814802Y-67740000D01*
X135260000Y-66185198D01*
X135260000Y-62345059D01*
X135461645Y-62143765D01*
X135634803Y-61726756D01*
X135635197Y-61275225D01*
X135462767Y-60857914D01*
X135143765Y-60538355D01*
X134726756Y-60365197D01*
X134275225Y-60364803D01*
X133857914Y-60537233D01*
X133538355Y-60856235D01*
X133365197Y-61273244D01*
X133364803Y-61724775D01*
X133537233Y-62142086D01*
X133740000Y-62345207D01*
X133740000Y-66500000D01*
X133797852Y-66790839D01*
X133962599Y-67037401D01*
X135962599Y-69037401D01*
X136209161Y-69202148D01*
X136500000Y-69260000D01*
X141500000Y-69260000D01*
X141790839Y-69202148D01*
X142037401Y-69037401D01*
X147567057Y-63507745D01*
X149171861Y-63507745D01*
X149245995Y-63753864D01*
X149783223Y-63946965D01*
X150353454Y-63919778D01*
X150754005Y-63753864D01*
X150828139Y-63507745D01*
X150000000Y-62679605D01*
X149171861Y-63507745D01*
X147567057Y-63507745D01*
X148563891Y-62510911D01*
X148580222Y-62853454D01*
X148746136Y-63254005D01*
X148992255Y-63328139D01*
X149820395Y-62500000D01*
X150179605Y-62500000D01*
X151007745Y-63328139D01*
X151253864Y-63254005D01*
X151446965Y-62716777D01*
X151419778Y-62146546D01*
X151253864Y-61745995D01*
X151007745Y-61671861D01*
X150179605Y-62500000D01*
X149820395Y-62500000D01*
X149806252Y-62485858D01*
X149985858Y-62306252D01*
X150000000Y-62320395D01*
X150828139Y-61492255D01*
X150754005Y-61246136D01*
X150216777Y-61053035D01*
X149646546Y-61080222D01*
X149510000Y-61136781D01*
X149510000Y-56511040D01*
X150863600Y-56511040D01*
X151098917Y-56466762D01*
X151315041Y-56327690D01*
X151460031Y-56115490D01*
X151511040Y-55863600D01*
X151511040Y-54136400D01*
X151466762Y-53901083D01*
X151327690Y-53684959D01*
X151115490Y-53539969D01*
X151071869Y-53531136D01*
X151089029Y-53519670D01*
X151413885Y-53033489D01*
X151527959Y-52460000D01*
X151413885Y-51886511D01*
X151089029Y-51400330D01*
X150774248Y-51190000D01*
X151089029Y-50979670D01*
X151413885Y-50493489D01*
X151527959Y-49920000D01*
X151413885Y-49346511D01*
X151089029Y-48860330D01*
X150602848Y-48535474D01*
X150029359Y-48421400D01*
X149970641Y-48421400D01*
X149397152Y-48535474D01*
X148910971Y-48860330D01*
X148730008Y-49131161D01*
X148348490Y-48713179D01*
X147819027Y-48465032D01*
X147587000Y-48585531D01*
X147587000Y-49793000D01*
X147607000Y-49793000D01*
X147607000Y-50047000D01*
X147587000Y-50047000D01*
X147587000Y-50067000D01*
X147333000Y-50067000D01*
X147333000Y-50047000D01*
X146126183Y-50047000D01*
X146005042Y-50279026D01*
X146177312Y-50694947D01*
X146571510Y-51126821D01*
X146694228Y-51184336D01*
X146370971Y-51400330D01*
X146046115Y-51886511D01*
X145932041Y-52460000D01*
X146046115Y-53033489D01*
X146370971Y-53519670D01*
X146685752Y-53730000D01*
X146370971Y-53940330D01*
X146046115Y-54426511D01*
X145932041Y-55000000D01*
X146046115Y-55573489D01*
X146370971Y-56059670D01*
X146857152Y-56384526D01*
X147430641Y-56498600D01*
X147489359Y-56498600D01*
X147990000Y-56399016D01*
X147990000Y-60935198D01*
X146435009Y-62490189D01*
X146435248Y-62215813D01*
X146217243Y-61688200D01*
X145813923Y-61284176D01*
X145286691Y-61065250D01*
X144715813Y-61064752D01*
X144188200Y-61282757D01*
X143784176Y-61686077D01*
X143565250Y-62213309D01*
X143564752Y-62784187D01*
X143782757Y-63311800D01*
X144186077Y-63715824D01*
X144713309Y-63934750D01*
X144990206Y-63934992D01*
X141185198Y-67740000D01*
X141084802Y-67740000D01*
X142537401Y-66287401D01*
X142702148Y-66040839D01*
X142760000Y-65750000D01*
X142760000Y-49560974D01*
X146005042Y-49560974D01*
X146126183Y-49793000D01*
X147333000Y-49793000D01*
X147333000Y-48585531D01*
X147100973Y-48465032D01*
X146571510Y-48713179D01*
X146177312Y-49145053D01*
X146005042Y-49560974D01*
X142760000Y-49560974D01*
X142760000Y-37540000D01*
X142702148Y-37249161D01*
X142537401Y-37002599D01*
X140996519Y-35461717D01*
X141357456Y-35445048D01*
X141769044Y-35274563D01*
X141846248Y-35025853D01*
X141000000Y-34179605D01*
X140985858Y-34193748D01*
X140806253Y-34014143D01*
X140820395Y-34000000D01*
X140806253Y-33985858D01*
X140985858Y-33806253D01*
X141000000Y-33820395D01*
X141014143Y-33806253D01*
X141193748Y-33985858D01*
X141179605Y-34000000D01*
X142025853Y-34846248D01*
X142274563Y-34769044D01*
X142276185Y-34764553D01*
X142301551Y-34825943D01*
X142711897Y-35237006D01*
X143248314Y-35459746D01*
X143829138Y-35460253D01*
X144365943Y-35238449D01*
X144777006Y-34828103D01*
X144999746Y-34291686D01*
X145000253Y-33710862D01*
X144793300Y-33210000D01*
X150250181Y-33210000D01*
X149117868Y-33677862D01*
X148181151Y-34612945D01*
X147673579Y-35835315D01*
X147672424Y-37158878D01*
X148177862Y-38382132D01*
X149112945Y-39318849D01*
X150335315Y-39826421D01*
X151658878Y-39827576D01*
X152882132Y-39322138D01*
X153818849Y-38387055D01*
X154290000Y-37252397D01*
X154290000Y-167750181D01*
X153822138Y-166617868D01*
X152887055Y-165681151D01*
X151664685Y-165173579D01*
X150341122Y-165172424D01*
X149117868Y-165677862D01*
X148181151Y-166612945D01*
X147673579Y-167835315D01*
X147672424Y-169158878D01*
X148177862Y-170382132D01*
X149112945Y-171318849D01*
X150247603Y-171790000D01*
X124749819Y-171790000D01*
X125882132Y-171322138D01*
X126818849Y-170387055D01*
X127326421Y-169164685D01*
X127327576Y-167841122D01*
X126822138Y-166617868D01*
X125887055Y-165681151D01*
X124664685Y-165173579D01*
X123341122Y-165172424D01*
X122117868Y-165677862D01*
X121181151Y-166612945D01*
X120710000Y-167747603D01*
X120710000Y-162825775D01*
X125409716Y-162825775D01*
X125659624Y-163430600D01*
X126121966Y-163893750D01*
X126726354Y-164144713D01*
X127380775Y-164145284D01*
X127985600Y-163895376D01*
X128448750Y-163433034D01*
X128699713Y-162828646D01*
X128699715Y-162825775D01*
X134299716Y-162825775D01*
X134549624Y-163430600D01*
X135011966Y-163893750D01*
X135616354Y-164144713D01*
X136270775Y-164145284D01*
X136875600Y-163895376D01*
X137338750Y-163433034D01*
X137500087Y-163044490D01*
X137659624Y-163430600D01*
X138121966Y-163893750D01*
X138726354Y-164144713D01*
X139380775Y-164145284D01*
X139985600Y-163895376D01*
X140448750Y-163433034D01*
X140699713Y-162828646D01*
X140699715Y-162825775D01*
X146299716Y-162825775D01*
X146549624Y-163430600D01*
X147011966Y-163893750D01*
X147616354Y-164144713D01*
X148270775Y-164145284D01*
X148875600Y-163895376D01*
X149338750Y-163433034D01*
X149589713Y-162828646D01*
X149590284Y-162174225D01*
X149340376Y-161569400D01*
X148878034Y-161106250D01*
X148273646Y-160855287D01*
X147619225Y-160854716D01*
X147014400Y-161104624D01*
X146551250Y-161566966D01*
X146300287Y-162171354D01*
X146299716Y-162825775D01*
X140699715Y-162825775D01*
X140700284Y-162174225D01*
X140450376Y-161569400D01*
X139988034Y-161106250D01*
X139383646Y-160855287D01*
X138729225Y-160854716D01*
X138124400Y-161104624D01*
X137661250Y-161566966D01*
X137499913Y-161955510D01*
X137340376Y-161569400D01*
X136878034Y-161106250D01*
X136273646Y-160855287D01*
X135619225Y-160854716D01*
X135014400Y-161104624D01*
X134551250Y-161566966D01*
X134300287Y-162171354D01*
X134299716Y-162825775D01*
X128699715Y-162825775D01*
X128700284Y-162174225D01*
X128450376Y-161569400D01*
X127988034Y-161106250D01*
X127383646Y-160855287D01*
X126729225Y-160854716D01*
X126124400Y-161104624D01*
X125661250Y-161566966D01*
X125410287Y-162171354D01*
X125409716Y-162825775D01*
X120710000Y-162825775D01*
X120710000Y-159775775D01*
X129854716Y-159775775D01*
X130104624Y-160380600D01*
X130566966Y-160843750D01*
X131171354Y-161094713D01*
X131825775Y-161095284D01*
X132430600Y-160845376D01*
X132893750Y-160383034D01*
X133144713Y-159778646D01*
X133144715Y-159775775D01*
X141854716Y-159775775D01*
X142104624Y-160380600D01*
X142566966Y-160843750D01*
X143171354Y-161094713D01*
X143825775Y-161095284D01*
X144430600Y-160845376D01*
X144893750Y-160383034D01*
X145144713Y-159778646D01*
X145145284Y-159124225D01*
X144895376Y-158519400D01*
X144433034Y-158056250D01*
X143828646Y-157805287D01*
X143174225Y-157804716D01*
X142569400Y-158054624D01*
X142106250Y-158516966D01*
X141855287Y-159121354D01*
X141854716Y-159775775D01*
X133144715Y-159775775D01*
X133145284Y-159124225D01*
X132895376Y-158519400D01*
X132433034Y-158056250D01*
X131828646Y-157805287D01*
X131174225Y-157804716D01*
X130569400Y-158054624D01*
X130106250Y-158516966D01*
X129855287Y-159121354D01*
X129854716Y-159775775D01*
X120710000Y-159775775D01*
X120710000Y-144284187D01*
X143564752Y-144284187D01*
X143782757Y-144811800D01*
X144186077Y-145215824D01*
X144713309Y-145434750D01*
X145284187Y-145435248D01*
X145811800Y-145217243D01*
X146021663Y-145007745D01*
X149171861Y-145007745D01*
X149245995Y-145253864D01*
X149783223Y-145446965D01*
X150353454Y-145419778D01*
X150754005Y-145253864D01*
X150828139Y-145007745D01*
X150000000Y-144179605D01*
X149171861Y-145007745D01*
X146021663Y-145007745D01*
X146215824Y-144813923D01*
X146434750Y-144286691D01*
X146435189Y-143783223D01*
X148553035Y-143783223D01*
X148580222Y-144353454D01*
X148746136Y-144754005D01*
X148992255Y-144828139D01*
X149820395Y-144000000D01*
X150179605Y-144000000D01*
X151007745Y-144828139D01*
X151253864Y-144754005D01*
X151446965Y-144216777D01*
X151419778Y-143646546D01*
X151253864Y-143245995D01*
X151007745Y-143171861D01*
X150179605Y-144000000D01*
X149820395Y-144000000D01*
X148992255Y-143171861D01*
X148746136Y-143245995D01*
X148553035Y-143783223D01*
X146435189Y-143783223D01*
X146435248Y-143715813D01*
X146217243Y-143188200D01*
X146021640Y-142992255D01*
X149171861Y-142992255D01*
X150000000Y-143820395D01*
X150828139Y-142992255D01*
X150754005Y-142746136D01*
X150216777Y-142553035D01*
X149646546Y-142580222D01*
X149245995Y-142746136D01*
X149171861Y-142992255D01*
X146021640Y-142992255D01*
X145813923Y-142784176D01*
X145286691Y-142565250D01*
X144715813Y-142564752D01*
X144188200Y-142782757D01*
X143784176Y-143186077D01*
X143565250Y-143713309D01*
X143564752Y-144284187D01*
X120710000Y-144284187D01*
X120710000Y-141007745D01*
X124171861Y-141007745D01*
X124245995Y-141253864D01*
X124783223Y-141446965D01*
X125353454Y-141419778D01*
X125754005Y-141253864D01*
X125828139Y-141007745D01*
X125000000Y-140179605D01*
X124171861Y-141007745D01*
X120710000Y-141007745D01*
X120710000Y-139783223D01*
X123553035Y-139783223D01*
X123580222Y-140353454D01*
X123746136Y-140754005D01*
X123992255Y-140828139D01*
X124820395Y-140000000D01*
X125179605Y-140000000D01*
X126007745Y-140828139D01*
X126253864Y-140754005D01*
X126422735Y-140284187D01*
X128564752Y-140284187D01*
X128782757Y-140811800D01*
X129186077Y-141215824D01*
X129713309Y-141434750D01*
X130284187Y-141435248D01*
X130811800Y-141217243D01*
X131215824Y-140813923D01*
X131434750Y-140286691D01*
X131435248Y-139715813D01*
X131217243Y-139188200D01*
X130813923Y-138784176D01*
X130286691Y-138565250D01*
X129715813Y-138564752D01*
X129188200Y-138782757D01*
X128784176Y-139186077D01*
X128565250Y-139713309D01*
X128564752Y-140284187D01*
X126422735Y-140284187D01*
X126446965Y-140216777D01*
X126419778Y-139646546D01*
X126253864Y-139245995D01*
X126007745Y-139171861D01*
X125179605Y-140000000D01*
X124820395Y-140000000D01*
X123992255Y-139171861D01*
X123746136Y-139245995D01*
X123553035Y-139783223D01*
X120710000Y-139783223D01*
X120710000Y-138992255D01*
X124171861Y-138992255D01*
X125000000Y-139820395D01*
X125828139Y-138992255D01*
X125754005Y-138746136D01*
X125216777Y-138553035D01*
X124646546Y-138580222D01*
X124245995Y-138746136D01*
X124171861Y-138992255D01*
X120710000Y-138992255D01*
X120710000Y-126007745D01*
X124171861Y-126007745D01*
X124245995Y-126253864D01*
X124783223Y-126446965D01*
X125353454Y-126419778D01*
X125754005Y-126253864D01*
X125828139Y-126007745D01*
X125000000Y-125179605D01*
X124171861Y-126007745D01*
X120710000Y-126007745D01*
X120710000Y-124783223D01*
X123553035Y-124783223D01*
X123580222Y-125353454D01*
X123746136Y-125754005D01*
X123992255Y-125828139D01*
X124820395Y-125000000D01*
X125179605Y-125000000D01*
X126007745Y-125828139D01*
X126253864Y-125754005D01*
X126422735Y-125284187D01*
X128564752Y-125284187D01*
X128782757Y-125811800D01*
X129186077Y-126215824D01*
X129713309Y-126434750D01*
X130284187Y-126435248D01*
X130811800Y-126217243D01*
X131215824Y-125813923D01*
X131434750Y-125286691D01*
X131435248Y-124715813D01*
X131217243Y-124188200D01*
X130813923Y-123784176D01*
X130286691Y-123565250D01*
X129715813Y-123564752D01*
X129188200Y-123782757D01*
X128784176Y-124186077D01*
X128565250Y-124713309D01*
X128564752Y-125284187D01*
X126422735Y-125284187D01*
X126446965Y-125216777D01*
X126419778Y-124646546D01*
X126253864Y-124245995D01*
X126007745Y-124171861D01*
X125179605Y-125000000D01*
X124820395Y-125000000D01*
X123992255Y-124171861D01*
X123746136Y-124245995D01*
X123553035Y-124783223D01*
X120710000Y-124783223D01*
X120710000Y-123992255D01*
X124171861Y-123992255D01*
X125000000Y-124820395D01*
X125828139Y-123992255D01*
X125754005Y-123746136D01*
X125216777Y-123553035D01*
X124646546Y-123580222D01*
X124245995Y-123746136D01*
X124171861Y-123992255D01*
X120710000Y-123992255D01*
X120710000Y-121284187D01*
X143564752Y-121284187D01*
X143782757Y-121811800D01*
X144186077Y-122215824D01*
X144713309Y-122434750D01*
X145284187Y-122435248D01*
X145811800Y-122217243D01*
X146021663Y-122007745D01*
X149171861Y-122007745D01*
X149245995Y-122253864D01*
X149783223Y-122446965D01*
X150353454Y-122419778D01*
X150754005Y-122253864D01*
X150828139Y-122007745D01*
X150000000Y-121179605D01*
X149171861Y-122007745D01*
X146021663Y-122007745D01*
X146215824Y-121813923D01*
X146434750Y-121286691D01*
X146435189Y-120783223D01*
X148553035Y-120783223D01*
X148580222Y-121353454D01*
X148746136Y-121754005D01*
X148992255Y-121828139D01*
X149820395Y-121000000D01*
X150179605Y-121000000D01*
X151007745Y-121828139D01*
X151253864Y-121754005D01*
X151446965Y-121216777D01*
X151419778Y-120646546D01*
X151253864Y-120245995D01*
X151007745Y-120171861D01*
X150179605Y-121000000D01*
X149820395Y-121000000D01*
X148992255Y-120171861D01*
X148746136Y-120245995D01*
X148553035Y-120783223D01*
X146435189Y-120783223D01*
X146435248Y-120715813D01*
X146217243Y-120188200D01*
X146021640Y-119992255D01*
X149171861Y-119992255D01*
X150000000Y-120820395D01*
X150828139Y-119992255D01*
X150754005Y-119746136D01*
X150216777Y-119553035D01*
X149646546Y-119580222D01*
X149245995Y-119746136D01*
X149171861Y-119992255D01*
X146021640Y-119992255D01*
X145813923Y-119784176D01*
X145286691Y-119565250D01*
X144715813Y-119564752D01*
X144188200Y-119782757D01*
X143784176Y-120186077D01*
X143565250Y-120713309D01*
X143564752Y-121284187D01*
X120710000Y-121284187D01*
X120710000Y-114209766D01*
X130519839Y-114209766D01*
X130619726Y-114477658D01*
X131233074Y-114705851D01*
X131887059Y-114681956D01*
X132380274Y-114477658D01*
X132480161Y-114209766D01*
X131500000Y-113229605D01*
X130519839Y-114209766D01*
X120710000Y-114209766D01*
X120710000Y-112783074D01*
X129844149Y-112783074D01*
X129868044Y-113437059D01*
X130072342Y-113930274D01*
X130340234Y-114030161D01*
X131320395Y-113050000D01*
X131679605Y-113050000D01*
X132659766Y-114030161D01*
X132927658Y-113930274D01*
X133155851Y-113316926D01*
X133131956Y-112662941D01*
X132927658Y-112169726D01*
X132659766Y-112069839D01*
X131679605Y-113050000D01*
X131320395Y-113050000D01*
X130340234Y-112069839D01*
X130072342Y-112169726D01*
X129844149Y-112783074D01*
X120710000Y-112783074D01*
X120710000Y-111890234D01*
X130519839Y-111890234D01*
X131500000Y-112870395D01*
X132480161Y-111890234D01*
X132380274Y-111622342D01*
X131766926Y-111394149D01*
X131112941Y-111418044D01*
X130619726Y-111622342D01*
X130519839Y-111890234D01*
X120710000Y-111890234D01*
X120710000Y-111159766D01*
X126074839Y-111159766D01*
X126174726Y-111427658D01*
X126788074Y-111655851D01*
X127442059Y-111631956D01*
X127935274Y-111427658D01*
X128035161Y-111159766D01*
X134964839Y-111159766D01*
X135064726Y-111427658D01*
X135678074Y-111655851D01*
X136332059Y-111631956D01*
X136825274Y-111427658D01*
X136925161Y-111159766D01*
X135945000Y-110179605D01*
X134964839Y-111159766D01*
X128035161Y-111159766D01*
X127055000Y-110179605D01*
X126074839Y-111159766D01*
X120710000Y-111159766D01*
X120710000Y-109733074D01*
X125399149Y-109733074D01*
X125423044Y-110387059D01*
X125627342Y-110880274D01*
X125895234Y-110980161D01*
X126875395Y-110000000D01*
X127234605Y-110000000D01*
X128214766Y-110980161D01*
X128482658Y-110880274D01*
X128710851Y-110266926D01*
X128691346Y-109733074D01*
X134289149Y-109733074D01*
X134313044Y-110387059D01*
X134517342Y-110880274D01*
X134785234Y-110980161D01*
X135765395Y-110000000D01*
X136124605Y-110000000D01*
X137104766Y-110980161D01*
X137372658Y-110880274D01*
X137498770Y-110541303D01*
X137659624Y-110930600D01*
X138121966Y-111393750D01*
X138170000Y-111413695D01*
X138170000Y-111428350D01*
X138169999Y-111428355D01*
X138213150Y-111645284D01*
X138237367Y-111767030D01*
X138319689Y-111890234D01*
X138429210Y-112054145D01*
X140050853Y-113675787D01*
X140050855Y-113675790D01*
X140337970Y-113867633D01*
X140676645Y-113935000D01*
X142085783Y-113935000D01*
X142104624Y-113980600D01*
X142566966Y-114443750D01*
X143171354Y-114694713D01*
X143825775Y-114695284D01*
X144430600Y-114445376D01*
X144893750Y-113983034D01*
X144913695Y-113935000D01*
X146449995Y-113935000D01*
X146450000Y-113935001D01*
X146732484Y-113878810D01*
X146788675Y-113867633D01*
X147075790Y-113675790D01*
X147075791Y-113675789D01*
X148570787Y-112180792D01*
X148570790Y-112180790D01*
X148762633Y-111893675D01*
X148763317Y-111890234D01*
X148830001Y-111555000D01*
X148830000Y-111554995D01*
X148830000Y-111414217D01*
X148875600Y-111395376D01*
X149338750Y-110933034D01*
X149589713Y-110328646D01*
X149590284Y-109674225D01*
X149340376Y-109069400D01*
X148878034Y-108606250D01*
X148273646Y-108355287D01*
X147619225Y-108354716D01*
X147014400Y-108604624D01*
X146551250Y-109066966D01*
X146300287Y-109671354D01*
X146299716Y-110325775D01*
X146549624Y-110930600D01*
X146933387Y-111315034D01*
X146083420Y-112165000D01*
X144914217Y-112165000D01*
X144895376Y-112119400D01*
X144433034Y-111656250D01*
X143828646Y-111405287D01*
X143174225Y-111404716D01*
X142569400Y-111654624D01*
X142106250Y-112116966D01*
X142086305Y-112165000D01*
X141043224Y-112165000D01*
X140129726Y-111251501D01*
X140448750Y-110933034D01*
X140699713Y-110328646D01*
X140700284Y-109674225D01*
X140450376Y-109069400D01*
X139988034Y-108606250D01*
X139383646Y-108355287D01*
X138729225Y-108354716D01*
X138124400Y-108604624D01*
X137661250Y-109066966D01*
X137505836Y-109441245D01*
X137372658Y-109119726D01*
X137104766Y-109019839D01*
X136124605Y-110000000D01*
X135765395Y-110000000D01*
X134785234Y-109019839D01*
X134517342Y-109119726D01*
X134289149Y-109733074D01*
X128691346Y-109733074D01*
X128686956Y-109612941D01*
X128482658Y-109119726D01*
X128214766Y-109019839D01*
X127234605Y-110000000D01*
X126875395Y-110000000D01*
X125895234Y-109019839D01*
X125627342Y-109119726D01*
X125399149Y-109733074D01*
X120710000Y-109733074D01*
X120710000Y-108840234D01*
X126074839Y-108840234D01*
X127055000Y-109820395D01*
X128035161Y-108840234D01*
X134964839Y-108840234D01*
X135945000Y-109820395D01*
X136925161Y-108840234D01*
X136825274Y-108572342D01*
X136211926Y-108344149D01*
X135557941Y-108368044D01*
X135064726Y-108572342D01*
X134964839Y-108840234D01*
X128035161Y-108840234D01*
X127935274Y-108572342D01*
X127321926Y-108344149D01*
X126667941Y-108368044D01*
X126174726Y-108572342D01*
X126074839Y-108840234D01*
X120710000Y-108840234D01*
X120710000Y-103507745D01*
X124171861Y-103507745D01*
X124245995Y-103753864D01*
X124783223Y-103946965D01*
X125353454Y-103919778D01*
X125754005Y-103753864D01*
X125828139Y-103507745D01*
X125000000Y-102679605D01*
X124171861Y-103507745D01*
X120710000Y-103507745D01*
X120710000Y-102283223D01*
X123553035Y-102283223D01*
X123580222Y-102853454D01*
X123746136Y-103254005D01*
X123992255Y-103328139D01*
X124820395Y-102500000D01*
X125179605Y-102500000D01*
X126007745Y-103328139D01*
X126253864Y-103254005D01*
X126422735Y-102784187D01*
X128564752Y-102784187D01*
X128782757Y-103311800D01*
X129186077Y-103715824D01*
X129713309Y-103934750D01*
X130284187Y-103935248D01*
X130811800Y-103717243D01*
X131215824Y-103313923D01*
X131434750Y-102786691D01*
X131434752Y-102784187D01*
X143564752Y-102784187D01*
X143782757Y-103311800D01*
X144186077Y-103715824D01*
X144713309Y-103934750D01*
X145284187Y-103935248D01*
X145811800Y-103717243D01*
X146021663Y-103507745D01*
X149171861Y-103507745D01*
X149245995Y-103753864D01*
X149783223Y-103946965D01*
X150353454Y-103919778D01*
X150754005Y-103753864D01*
X150828139Y-103507745D01*
X150000000Y-102679605D01*
X149171861Y-103507745D01*
X146021663Y-103507745D01*
X146215824Y-103313923D01*
X146434750Y-102786691D01*
X146435189Y-102283223D01*
X148553035Y-102283223D01*
X148580222Y-102853454D01*
X148746136Y-103254005D01*
X148992255Y-103328139D01*
X149820395Y-102500000D01*
X150179605Y-102500000D01*
X151007745Y-103328139D01*
X151253864Y-103254005D01*
X151446965Y-102716777D01*
X151419778Y-102146546D01*
X151253864Y-101745995D01*
X151007745Y-101671861D01*
X150179605Y-102500000D01*
X149820395Y-102500000D01*
X148992255Y-101671861D01*
X148746136Y-101745995D01*
X148553035Y-102283223D01*
X146435189Y-102283223D01*
X146435248Y-102215813D01*
X146217243Y-101688200D01*
X146021640Y-101492255D01*
X149171861Y-101492255D01*
X150000000Y-102320395D01*
X150828139Y-101492255D01*
X150754005Y-101246136D01*
X150216777Y-101053035D01*
X149646546Y-101080222D01*
X149245995Y-101246136D01*
X149171861Y-101492255D01*
X146021640Y-101492255D01*
X145813923Y-101284176D01*
X145286691Y-101065250D01*
X144715813Y-101064752D01*
X144188200Y-101282757D01*
X143784176Y-101686077D01*
X143565250Y-102213309D01*
X143564752Y-102784187D01*
X131434752Y-102784187D01*
X131435248Y-102215813D01*
X131217243Y-101688200D01*
X130813923Y-101284176D01*
X130286691Y-101065250D01*
X129715813Y-101064752D01*
X129188200Y-101282757D01*
X128784176Y-101686077D01*
X128565250Y-102213309D01*
X128564752Y-102784187D01*
X126422735Y-102784187D01*
X126446965Y-102716777D01*
X126419778Y-102146546D01*
X126253864Y-101745995D01*
X126007745Y-101671861D01*
X125179605Y-102500000D01*
X124820395Y-102500000D01*
X123992255Y-101671861D01*
X123746136Y-101745995D01*
X123553035Y-102283223D01*
X120710000Y-102283223D01*
X120710000Y-101492255D01*
X124171861Y-101492255D01*
X125000000Y-102320395D01*
X125828139Y-101492255D01*
X125754005Y-101246136D01*
X125216777Y-101053035D01*
X124646546Y-101080222D01*
X124245995Y-101246136D01*
X124171861Y-101492255D01*
X120710000Y-101492255D01*
X120710000Y-83507745D01*
X124171861Y-83507745D01*
X124245995Y-83753864D01*
X124783223Y-83946965D01*
X125353454Y-83919778D01*
X125754005Y-83753864D01*
X125828139Y-83507745D01*
X125000000Y-82679605D01*
X124171861Y-83507745D01*
X120710000Y-83507745D01*
X120710000Y-82283223D01*
X123553035Y-82283223D01*
X123580222Y-82853454D01*
X123746136Y-83254005D01*
X123992255Y-83328139D01*
X124820395Y-82500000D01*
X125179605Y-82500000D01*
X126007745Y-83328139D01*
X126253864Y-83254005D01*
X126422735Y-82784187D01*
X128564752Y-82784187D01*
X128782757Y-83311800D01*
X129186077Y-83715824D01*
X129713309Y-83934750D01*
X130284187Y-83935248D01*
X130811800Y-83717243D01*
X131215824Y-83313923D01*
X131434750Y-82786691D01*
X131434752Y-82784187D01*
X143564752Y-82784187D01*
X143782757Y-83311800D01*
X144186077Y-83715824D01*
X144713309Y-83934750D01*
X145284187Y-83935248D01*
X145811800Y-83717243D01*
X146021663Y-83507745D01*
X149171861Y-83507745D01*
X149245995Y-83753864D01*
X149783223Y-83946965D01*
X150353454Y-83919778D01*
X150754005Y-83753864D01*
X150828139Y-83507745D01*
X150000000Y-82679605D01*
X149171861Y-83507745D01*
X146021663Y-83507745D01*
X146215824Y-83313923D01*
X146434750Y-82786691D01*
X146435189Y-82283223D01*
X148553035Y-82283223D01*
X148580222Y-82853454D01*
X148746136Y-83254005D01*
X148992255Y-83328139D01*
X149820395Y-82500000D01*
X150179605Y-82500000D01*
X151007745Y-83328139D01*
X151253864Y-83254005D01*
X151446965Y-82716777D01*
X151419778Y-82146546D01*
X151253864Y-81745995D01*
X151007745Y-81671861D01*
X150179605Y-82500000D01*
X149820395Y-82500000D01*
X148992255Y-81671861D01*
X148746136Y-81745995D01*
X148553035Y-82283223D01*
X146435189Y-82283223D01*
X146435248Y-82215813D01*
X146217243Y-81688200D01*
X146021640Y-81492255D01*
X149171861Y-81492255D01*
X150000000Y-82320395D01*
X150828139Y-81492255D01*
X150754005Y-81246136D01*
X150216777Y-81053035D01*
X149646546Y-81080222D01*
X149245995Y-81246136D01*
X149171861Y-81492255D01*
X146021640Y-81492255D01*
X145813923Y-81284176D01*
X145286691Y-81065250D01*
X144715813Y-81064752D01*
X144188200Y-81282757D01*
X143784176Y-81686077D01*
X143565250Y-82213309D01*
X143564752Y-82784187D01*
X131434752Y-82784187D01*
X131435248Y-82215813D01*
X131217243Y-81688200D01*
X130813923Y-81284176D01*
X130286691Y-81065250D01*
X129715813Y-81064752D01*
X129188200Y-81282757D01*
X128784176Y-81686077D01*
X128565250Y-82213309D01*
X128564752Y-82784187D01*
X126422735Y-82784187D01*
X126446965Y-82716777D01*
X126419778Y-82146546D01*
X126253864Y-81745995D01*
X126007745Y-81671861D01*
X125179605Y-82500000D01*
X124820395Y-82500000D01*
X123992255Y-81671861D01*
X123746136Y-81745995D01*
X123553035Y-82283223D01*
X120710000Y-82283223D01*
X120710000Y-81492255D01*
X124171861Y-81492255D01*
X125000000Y-82320395D01*
X125828139Y-81492255D01*
X125754005Y-81246136D01*
X125216777Y-81053035D01*
X124646546Y-81080222D01*
X124245995Y-81246136D01*
X124171861Y-81492255D01*
X120710000Y-81492255D01*
X120710000Y-63507745D01*
X124171861Y-63507745D01*
X124245995Y-63753864D01*
X124783223Y-63946965D01*
X125353454Y-63919778D01*
X125754005Y-63753864D01*
X125828139Y-63507745D01*
X125000000Y-62679605D01*
X124171861Y-63507745D01*
X120710000Y-63507745D01*
X120710000Y-62283223D01*
X123553035Y-62283223D01*
X123580222Y-62853454D01*
X123746136Y-63254005D01*
X123992255Y-63328139D01*
X124820395Y-62500000D01*
X125179605Y-62500000D01*
X126007745Y-63328139D01*
X126253864Y-63254005D01*
X126422735Y-62784187D01*
X128564752Y-62784187D01*
X128782757Y-63311800D01*
X129186077Y-63715824D01*
X129713309Y-63934750D01*
X130284187Y-63935248D01*
X130811800Y-63717243D01*
X131215824Y-63313923D01*
X131434750Y-62786691D01*
X131435248Y-62215813D01*
X131217243Y-61688200D01*
X130813923Y-61284176D01*
X130286691Y-61065250D01*
X129715813Y-61064752D01*
X129188200Y-61282757D01*
X128784176Y-61686077D01*
X128565250Y-62213309D01*
X128564752Y-62784187D01*
X126422735Y-62784187D01*
X126446965Y-62716777D01*
X126419778Y-62146546D01*
X126253864Y-61745995D01*
X126007745Y-61671861D01*
X125179605Y-62500000D01*
X124820395Y-62500000D01*
X123992255Y-61671861D01*
X123746136Y-61745995D01*
X123553035Y-62283223D01*
X120710000Y-62283223D01*
X120710000Y-61492255D01*
X124171861Y-61492255D01*
X125000000Y-62320395D01*
X125828139Y-61492255D01*
X125754005Y-61246136D01*
X125216777Y-61053035D01*
X124646546Y-61080222D01*
X124245995Y-61246136D01*
X124171861Y-61492255D01*
X120710000Y-61492255D01*
X120710000Y-53382946D01*
X122854017Y-53382946D01*
X123122812Y-53968379D01*
X123595182Y-54406385D01*
X124077056Y-54605975D01*
X124333000Y-54486836D01*
X124333000Y-53127000D01*
X122972633Y-53127000D01*
X122854017Y-53382946D01*
X120710000Y-53382946D01*
X120710000Y-52617054D01*
X122854017Y-52617054D01*
X122972633Y-52873000D01*
X124333000Y-52873000D01*
X124333000Y-51513164D01*
X124587000Y-51513164D01*
X124587000Y-52873000D01*
X124607000Y-52873000D01*
X124607000Y-53127000D01*
X124587000Y-53127000D01*
X124587000Y-54486836D01*
X124842944Y-54605975D01*
X125324818Y-54406385D01*
X125422398Y-54315903D01*
X125519910Y-54467441D01*
X125732110Y-54612431D01*
X125984000Y-54663440D01*
X128016000Y-54663440D01*
X128251317Y-54619162D01*
X128467441Y-54480090D01*
X128612431Y-54267890D01*
X128663440Y-54016000D01*
X128663440Y-51984000D01*
X128619162Y-51748683D01*
X128480090Y-51532559D01*
X128267890Y-51387569D01*
X128016000Y-51336560D01*
X125984000Y-51336560D01*
X125748683Y-51380838D01*
X125532559Y-51519910D01*
X125421160Y-51682948D01*
X125324818Y-51593615D01*
X124842944Y-51394025D01*
X124587000Y-51513164D01*
X124333000Y-51513164D01*
X124077056Y-51394025D01*
X123595182Y-51593615D01*
X123122812Y-52031621D01*
X122854017Y-52617054D01*
X120710000Y-52617054D01*
X120710000Y-46007745D01*
X124171861Y-46007745D01*
X124245995Y-46253864D01*
X124783223Y-46446965D01*
X125353454Y-46419778D01*
X125754005Y-46253864D01*
X125828139Y-46007745D01*
X125000000Y-45179605D01*
X124171861Y-46007745D01*
X120710000Y-46007745D01*
X120710000Y-44783223D01*
X123553035Y-44783223D01*
X123580222Y-45353454D01*
X123746136Y-45754005D01*
X123992255Y-45828139D01*
X124820395Y-45000000D01*
X125179605Y-45000000D01*
X126007745Y-45828139D01*
X126253864Y-45754005D01*
X126422735Y-45284187D01*
X128564752Y-45284187D01*
X128782757Y-45811800D01*
X129186077Y-46215824D01*
X129713309Y-46434750D01*
X130284187Y-46435248D01*
X130811800Y-46217243D01*
X131215824Y-45813923D01*
X131434750Y-45286691D01*
X131435193Y-44779381D01*
X131545910Y-44951441D01*
X131758110Y-45096431D01*
X132010000Y-45147440D01*
X133910000Y-45147440D01*
X134145317Y-45103162D01*
X134361441Y-44964090D01*
X134506431Y-44751890D01*
X134507055Y-44748808D01*
X134600997Y-44842914D01*
X135183341Y-45084724D01*
X135813893Y-45085275D01*
X136396657Y-44844481D01*
X136842914Y-44399003D01*
X137084724Y-43816659D01*
X137085275Y-43186107D01*
X136844481Y-42603343D01*
X136399003Y-42157086D01*
X135816659Y-41915276D01*
X135186107Y-41914725D01*
X134603343Y-42155519D01*
X134505663Y-42253029D01*
X134374090Y-42048559D01*
X134161890Y-41903569D01*
X133910000Y-41852560D01*
X132010000Y-41852560D01*
X131774683Y-41896838D01*
X131558559Y-42035910D01*
X131413569Y-42248110D01*
X131362560Y-42500000D01*
X131362560Y-44500000D01*
X131376344Y-44573253D01*
X131217243Y-44188200D01*
X130813923Y-43784176D01*
X130286691Y-43565250D01*
X129715813Y-43564752D01*
X129188200Y-43782757D01*
X128784176Y-44186077D01*
X128565250Y-44713309D01*
X128564752Y-45284187D01*
X126422735Y-45284187D01*
X126446965Y-45216777D01*
X126419778Y-44646546D01*
X126253864Y-44245995D01*
X126007745Y-44171861D01*
X125179605Y-45000000D01*
X124820395Y-45000000D01*
X123992255Y-44171861D01*
X123746136Y-44245995D01*
X123553035Y-44783223D01*
X120710000Y-44783223D01*
X120710000Y-43992255D01*
X124171861Y-43992255D01*
X125000000Y-44820395D01*
X125828139Y-43992255D01*
X125754005Y-43746136D01*
X125216777Y-43553035D01*
X124646546Y-43580222D01*
X124245995Y-43746136D01*
X124171861Y-43992255D01*
X120710000Y-43992255D01*
X120710000Y-37249819D01*
X121177862Y-38382132D01*
X122112945Y-39318849D01*
X123335315Y-39826421D01*
X124658878Y-39827576D01*
X125882132Y-39322138D01*
X126818849Y-38387055D01*
X127326421Y-37164685D01*
X127327576Y-35841122D01*
X126822138Y-34617868D01*
X125887055Y-33681151D01*
X124752397Y-33210000D01*
X137207172Y-33210000D01*
X137000254Y-33708314D01*
X137000254Y-33708314D01*
G37*
X137000254Y-33708314D02*
X136999747Y-34289138D01*
X137221551Y-34825943D01*
X137631897Y-35237006D01*
X138168314Y-35459746D01*
X138749138Y-35460253D01*
X138817291Y-35432093D01*
X141240000Y-37854802D01*
X141240000Y-56120696D01*
X141226756Y-56115197D01*
X140775225Y-56114803D01*
X140357914Y-56287233D01*
X140154793Y-56490000D01*
X139620642Y-56489999D01*
X139462767Y-56107914D01*
X139260000Y-55904793D01*
X139260000Y-55000000D01*
X139202148Y-54709161D01*
X139037401Y-54462599D01*
X136787401Y-52212599D01*
X136540839Y-52047852D01*
X136250000Y-51990000D01*
X134525494Y-51990000D01*
X134634803Y-51726756D01*
X134635197Y-51275225D01*
X134462767Y-50857914D01*
X134143765Y-50538355D01*
X133726756Y-50365197D01*
X133275225Y-50364803D01*
X132857914Y-50537233D01*
X132538355Y-50856235D01*
X132506319Y-50933386D01*
X132462599Y-50962599D01*
X131962599Y-51462599D01*
X131797852Y-51709161D01*
X131740000Y-52000000D01*
X131740000Y-53250000D01*
X131797852Y-53540839D01*
X131962599Y-53787401D01*
X132462599Y-54287401D01*
X132709161Y-54452148D01*
X133000000Y-54510000D01*
X135685198Y-54510000D01*
X136490000Y-55314802D01*
X136490000Y-58500000D01*
X136547852Y-58790839D01*
X136712599Y-59037401D01*
X137462599Y-59787401D01*
X137709160Y-59952148D01*
X138000000Y-60010000D01*
X138654941Y-60010000D01*
X138856235Y-60211645D01*
X139273244Y-60384803D01*
X139724775Y-60385197D01*
X140142086Y-60212767D01*
X140461645Y-59893765D01*
X140634803Y-59476756D01*
X140635197Y-59025225D01*
X140462767Y-58607914D01*
X140143765Y-58288355D01*
X139726756Y-58115197D01*
X139275225Y-58114803D01*
X138857914Y-58287233D01*
X138654793Y-58490000D01*
X138314802Y-58490000D01*
X138010000Y-58185198D01*
X138010000Y-57775494D01*
X138273244Y-57884803D01*
X138608810Y-57885096D01*
X138709159Y-57952147D01*
X138999999Y-58009999D01*
X140154941Y-58010000D01*
X140356235Y-58211645D01*
X140773244Y-58384803D01*
X141224775Y-58385197D01*
X141240000Y-58378906D01*
X141240000Y-65435198D01*
X139935198Y-66740000D01*
X139845059Y-66740000D01*
X139643765Y-66538355D01*
X139226756Y-66365197D01*
X138775225Y-66364803D01*
X138357914Y-66537233D01*
X138038355Y-66856235D01*
X137865197Y-67273244D01*
X137864803Y-67724775D01*
X137871094Y-67740000D01*
X136814802Y-67740000D01*
X135260000Y-66185198D01*
X135260000Y-62345059D01*
X135461645Y-62143765D01*
X135634803Y-61726756D01*
X135635197Y-61275225D01*
X135462767Y-60857914D01*
X135143765Y-60538355D01*
X134726756Y-60365197D01*
X134275225Y-60364803D01*
X133857914Y-60537233D01*
X133538355Y-60856235D01*
X133365197Y-61273244D01*
X133364803Y-61724775D01*
X133537233Y-62142086D01*
X133740000Y-62345207D01*
X133740000Y-66500000D01*
X133797852Y-66790839D01*
X133962599Y-67037401D01*
X135962599Y-69037401D01*
X136209161Y-69202148D01*
X136500000Y-69260000D01*
X141500000Y-69260000D01*
X141790839Y-69202148D01*
X142037401Y-69037401D01*
X147567057Y-63507745D01*
X149171861Y-63507745D01*
X149245995Y-63753864D01*
X149783223Y-63946965D01*
X150353454Y-63919778D01*
X150754005Y-63753864D01*
X150828139Y-63507745D01*
X150000000Y-62679605D01*
X149171861Y-63507745D01*
X147567057Y-63507745D01*
X148563891Y-62510911D01*
X148580222Y-62853454D01*
X148746136Y-63254005D01*
X148992255Y-63328139D01*
X149820395Y-62500000D01*
X150179605Y-62500000D01*
X151007745Y-63328139D01*
X151253864Y-63254005D01*
X151446965Y-62716777D01*
X151419778Y-62146546D01*
X151253864Y-61745995D01*
X151007745Y-61671861D01*
X150179605Y-62500000D01*
X149820395Y-62500000D01*
X149806252Y-62485858D01*
X149985858Y-62306252D01*
X150000000Y-62320395D01*
X150828139Y-61492255D01*
X150754005Y-61246136D01*
X150216777Y-61053035D01*
X149646546Y-61080222D01*
X149510000Y-61136781D01*
X149510000Y-56511040D01*
X150863600Y-56511040D01*
X151098917Y-56466762D01*
X151315041Y-56327690D01*
X151460031Y-56115490D01*
X151511040Y-55863600D01*
X151511040Y-54136400D01*
X151466762Y-53901083D01*
X151327690Y-53684959D01*
X151115490Y-53539969D01*
X151071869Y-53531136D01*
X151089029Y-53519670D01*
X151413885Y-53033489D01*
X151527959Y-52460000D01*
X151413885Y-51886511D01*
X151089029Y-51400330D01*
X150774248Y-51190000D01*
X151089029Y-50979670D01*
X151413885Y-50493489D01*
X151527959Y-49920000D01*
X151413885Y-49346511D01*
X151089029Y-48860330D01*
X150602848Y-48535474D01*
X150029359Y-48421400D01*
X149970641Y-48421400D01*
X149397152Y-48535474D01*
X148910971Y-48860330D01*
X148730008Y-49131161D01*
X148348490Y-48713179D01*
X147819027Y-48465032D01*
X147587000Y-48585531D01*
X147587000Y-49793000D01*
X147607000Y-49793000D01*
X147607000Y-50047000D01*
X147587000Y-50047000D01*
X147587000Y-50067000D01*
X147333000Y-50067000D01*
X147333000Y-50047000D01*
X146126183Y-50047000D01*
X146005042Y-50279026D01*
X146177312Y-50694947D01*
X146571510Y-51126821D01*
X146694228Y-51184336D01*
X146370971Y-51400330D01*
X146046115Y-51886511D01*
X145932041Y-52460000D01*
X146046115Y-53033489D01*
X146370971Y-53519670D01*
X146685752Y-53730000D01*
X146370971Y-53940330D01*
X146046115Y-54426511D01*
X145932041Y-55000000D01*
X146046115Y-55573489D01*
X146370971Y-56059670D01*
X146857152Y-56384526D01*
X147430641Y-56498600D01*
X147489359Y-56498600D01*
X147990000Y-56399016D01*
X147990000Y-60935198D01*
X146435009Y-62490189D01*
X146435248Y-62215813D01*
X146217243Y-61688200D01*
X145813923Y-61284176D01*
X145286691Y-61065250D01*
X144715813Y-61064752D01*
X144188200Y-61282757D01*
X143784176Y-61686077D01*
X143565250Y-62213309D01*
X143564752Y-62784187D01*
X143782757Y-63311800D01*
X144186077Y-63715824D01*
X144713309Y-63934750D01*
X144990206Y-63934992D01*
X141185198Y-67740000D01*
X141084802Y-67740000D01*
X142537401Y-66287401D01*
X142702148Y-66040839D01*
X142760000Y-65750000D01*
X142760000Y-49560974D01*
X146005042Y-49560974D01*
X146126183Y-49793000D01*
X147333000Y-49793000D01*
X147333000Y-48585531D01*
X147100973Y-48465032D01*
X146571510Y-48713179D01*
X146177312Y-49145053D01*
X146005042Y-49560974D01*
X142760000Y-49560974D01*
X142760000Y-37540000D01*
X142702148Y-37249161D01*
X142537401Y-37002599D01*
X140996519Y-35461717D01*
X141357456Y-35445048D01*
X141769044Y-35274563D01*
X141846248Y-35025853D01*
X141000000Y-34179605D01*
X140985858Y-34193748D01*
X140806253Y-34014143D01*
X140820395Y-34000000D01*
X140806253Y-33985858D01*
X140985858Y-33806253D01*
X141000000Y-33820395D01*
X141014143Y-33806253D01*
X141193748Y-33985858D01*
X141179605Y-34000000D01*
X142025853Y-34846248D01*
X142274563Y-34769044D01*
X142276185Y-34764553D01*
X142301551Y-34825943D01*
X142711897Y-35237006D01*
X143248314Y-35459746D01*
X143829138Y-35460253D01*
X144365943Y-35238449D01*
X144777006Y-34828103D01*
X144999746Y-34291686D01*
X145000253Y-33710862D01*
X144793300Y-33210000D01*
X150250181Y-33210000D01*
X149117868Y-33677862D01*
X148181151Y-34612945D01*
X147673579Y-35835315D01*
X147672424Y-37158878D01*
X148177862Y-38382132D01*
X149112945Y-39318849D01*
X150335315Y-39826421D01*
X151658878Y-39827576D01*
X152882132Y-39322138D01*
X153818849Y-38387055D01*
X154290000Y-37252397D01*
X154290000Y-167750181D01*
X153822138Y-166617868D01*
X152887055Y-165681151D01*
X151664685Y-165173579D01*
X150341122Y-165172424D01*
X149117868Y-165677862D01*
X148181151Y-166612945D01*
X147673579Y-167835315D01*
X147672424Y-169158878D01*
X148177862Y-170382132D01*
X149112945Y-171318849D01*
X150247603Y-171790000D01*
X124749819Y-171790000D01*
X125882132Y-171322138D01*
X126818849Y-170387055D01*
X127326421Y-169164685D01*
X127327576Y-167841122D01*
X126822138Y-166617868D01*
X125887055Y-165681151D01*
X124664685Y-165173579D01*
X123341122Y-165172424D01*
X122117868Y-165677862D01*
X121181151Y-166612945D01*
X120710000Y-167747603D01*
X120710000Y-162825775D01*
X125409716Y-162825775D01*
X125659624Y-163430600D01*
X126121966Y-163893750D01*
X126726354Y-164144713D01*
X127380775Y-164145284D01*
X127985600Y-163895376D01*
X128448750Y-163433034D01*
X128699713Y-162828646D01*
X128699715Y-162825775D01*
X134299716Y-162825775D01*
X134549624Y-163430600D01*
X135011966Y-163893750D01*
X135616354Y-164144713D01*
X136270775Y-164145284D01*
X136875600Y-163895376D01*
X137338750Y-163433034D01*
X137500087Y-163044490D01*
X137659624Y-163430600D01*
X138121966Y-163893750D01*
X138726354Y-164144713D01*
X139380775Y-164145284D01*
X139985600Y-163895376D01*
X140448750Y-163433034D01*
X140699713Y-162828646D01*
X140699715Y-162825775D01*
X146299716Y-162825775D01*
X146549624Y-163430600D01*
X147011966Y-163893750D01*
X147616354Y-164144713D01*
X148270775Y-164145284D01*
X148875600Y-163895376D01*
X149338750Y-163433034D01*
X149589713Y-162828646D01*
X149590284Y-162174225D01*
X149340376Y-161569400D01*
X148878034Y-161106250D01*
X148273646Y-160855287D01*
X147619225Y-160854716D01*
X147014400Y-161104624D01*
X146551250Y-161566966D01*
X146300287Y-162171354D01*
X146299716Y-162825775D01*
X140699715Y-162825775D01*
X140700284Y-162174225D01*
X140450376Y-161569400D01*
X139988034Y-161106250D01*
X139383646Y-160855287D01*
X138729225Y-160854716D01*
X138124400Y-161104624D01*
X137661250Y-161566966D01*
X137499913Y-161955510D01*
X137340376Y-161569400D01*
X136878034Y-161106250D01*
X136273646Y-160855287D01*
X135619225Y-160854716D01*
X135014400Y-161104624D01*
X134551250Y-161566966D01*
X134300287Y-162171354D01*
X134299716Y-162825775D01*
X128699715Y-162825775D01*
X128700284Y-162174225D01*
X128450376Y-161569400D01*
X127988034Y-161106250D01*
X127383646Y-160855287D01*
X126729225Y-160854716D01*
X126124400Y-161104624D01*
X125661250Y-161566966D01*
X125410287Y-162171354D01*
X125409716Y-162825775D01*
X120710000Y-162825775D01*
X120710000Y-159775775D01*
X129854716Y-159775775D01*
X130104624Y-160380600D01*
X130566966Y-160843750D01*
X131171354Y-161094713D01*
X131825775Y-161095284D01*
X132430600Y-160845376D01*
X132893750Y-160383034D01*
X133144713Y-159778646D01*
X133144715Y-159775775D01*
X141854716Y-159775775D01*
X142104624Y-160380600D01*
X142566966Y-160843750D01*
X143171354Y-161094713D01*
X143825775Y-161095284D01*
X144430600Y-160845376D01*
X144893750Y-160383034D01*
X145144713Y-159778646D01*
X145145284Y-159124225D01*
X144895376Y-158519400D01*
X144433034Y-158056250D01*
X143828646Y-157805287D01*
X143174225Y-157804716D01*
X142569400Y-158054624D01*
X142106250Y-158516966D01*
X141855287Y-159121354D01*
X141854716Y-159775775D01*
X133144715Y-159775775D01*
X133145284Y-159124225D01*
X132895376Y-158519400D01*
X132433034Y-158056250D01*
X131828646Y-157805287D01*
X131174225Y-157804716D01*
X130569400Y-158054624D01*
X130106250Y-158516966D01*
X129855287Y-159121354D01*
X129854716Y-159775775D01*
X120710000Y-159775775D01*
X120710000Y-144284187D01*
X143564752Y-144284187D01*
X143782757Y-144811800D01*
X144186077Y-145215824D01*
X144713309Y-145434750D01*
X145284187Y-145435248D01*
X145811800Y-145217243D01*
X146021663Y-145007745D01*
X149171861Y-145007745D01*
X149245995Y-145253864D01*
X149783223Y-145446965D01*
X150353454Y-145419778D01*
X150754005Y-145253864D01*
X150828139Y-145007745D01*
X150000000Y-144179605D01*
X149171861Y-145007745D01*
X146021663Y-145007745D01*
X146215824Y-144813923D01*
X146434750Y-144286691D01*
X146435189Y-143783223D01*
X148553035Y-143783223D01*
X148580222Y-144353454D01*
X148746136Y-144754005D01*
X148992255Y-144828139D01*
X149820395Y-144000000D01*
X150179605Y-144000000D01*
X151007745Y-144828139D01*
X151253864Y-144754005D01*
X151446965Y-144216777D01*
X151419778Y-143646546D01*
X151253864Y-143245995D01*
X151007745Y-143171861D01*
X150179605Y-144000000D01*
X149820395Y-144000000D01*
X148992255Y-143171861D01*
X148746136Y-143245995D01*
X148553035Y-143783223D01*
X146435189Y-143783223D01*
X146435248Y-143715813D01*
X146217243Y-143188200D01*
X146021640Y-142992255D01*
X149171861Y-142992255D01*
X150000000Y-143820395D01*
X150828139Y-142992255D01*
X150754005Y-142746136D01*
X150216777Y-142553035D01*
X149646546Y-142580222D01*
X149245995Y-142746136D01*
X149171861Y-142992255D01*
X146021640Y-142992255D01*
X145813923Y-142784176D01*
X145286691Y-142565250D01*
X144715813Y-142564752D01*
X144188200Y-142782757D01*
X143784176Y-143186077D01*
X143565250Y-143713309D01*
X143564752Y-144284187D01*
X120710000Y-144284187D01*
X120710000Y-141007745D01*
X124171861Y-141007745D01*
X124245995Y-141253864D01*
X124783223Y-141446965D01*
X125353454Y-141419778D01*
X125754005Y-141253864D01*
X125828139Y-141007745D01*
X125000000Y-140179605D01*
X124171861Y-141007745D01*
X120710000Y-141007745D01*
X120710000Y-139783223D01*
X123553035Y-139783223D01*
X123580222Y-140353454D01*
X123746136Y-140754005D01*
X123992255Y-140828139D01*
X124820395Y-140000000D01*
X125179605Y-140000000D01*
X126007745Y-140828139D01*
X126253864Y-140754005D01*
X126422735Y-140284187D01*
X128564752Y-140284187D01*
X128782757Y-140811800D01*
X129186077Y-141215824D01*
X129713309Y-141434750D01*
X130284187Y-141435248D01*
X130811800Y-141217243D01*
X131215824Y-140813923D01*
X131434750Y-140286691D01*
X131435248Y-139715813D01*
X131217243Y-139188200D01*
X130813923Y-138784176D01*
X130286691Y-138565250D01*
X129715813Y-138564752D01*
X129188200Y-138782757D01*
X128784176Y-139186077D01*
X128565250Y-139713309D01*
X128564752Y-140284187D01*
X126422735Y-140284187D01*
X126446965Y-140216777D01*
X126419778Y-139646546D01*
X126253864Y-139245995D01*
X126007745Y-139171861D01*
X125179605Y-140000000D01*
X124820395Y-140000000D01*
X123992255Y-139171861D01*
X123746136Y-139245995D01*
X123553035Y-139783223D01*
X120710000Y-139783223D01*
X120710000Y-138992255D01*
X124171861Y-138992255D01*
X125000000Y-139820395D01*
X125828139Y-138992255D01*
X125754005Y-138746136D01*
X125216777Y-138553035D01*
X124646546Y-138580222D01*
X124245995Y-138746136D01*
X124171861Y-138992255D01*
X120710000Y-138992255D01*
X120710000Y-126007745D01*
X124171861Y-126007745D01*
X124245995Y-126253864D01*
X124783223Y-126446965D01*
X125353454Y-126419778D01*
X125754005Y-126253864D01*
X125828139Y-126007745D01*
X125000000Y-125179605D01*
X124171861Y-126007745D01*
X120710000Y-126007745D01*
X120710000Y-124783223D01*
X123553035Y-124783223D01*
X123580222Y-125353454D01*
X123746136Y-125754005D01*
X123992255Y-125828139D01*
X124820395Y-125000000D01*
X125179605Y-125000000D01*
X126007745Y-125828139D01*
X126253864Y-125754005D01*
X126422735Y-125284187D01*
X128564752Y-125284187D01*
X128782757Y-125811800D01*
X129186077Y-126215824D01*
X129713309Y-126434750D01*
X130284187Y-126435248D01*
X130811800Y-126217243D01*
X131215824Y-125813923D01*
X131434750Y-125286691D01*
X131435248Y-124715813D01*
X131217243Y-124188200D01*
X130813923Y-123784176D01*
X130286691Y-123565250D01*
X129715813Y-123564752D01*
X129188200Y-123782757D01*
X128784176Y-124186077D01*
X128565250Y-124713309D01*
X128564752Y-125284187D01*
X126422735Y-125284187D01*
X126446965Y-125216777D01*
X126419778Y-124646546D01*
X126253864Y-124245995D01*
X126007745Y-124171861D01*
X125179605Y-125000000D01*
X124820395Y-125000000D01*
X123992255Y-124171861D01*
X123746136Y-124245995D01*
X123553035Y-124783223D01*
X120710000Y-124783223D01*
X120710000Y-123992255D01*
X124171861Y-123992255D01*
X125000000Y-124820395D01*
X125828139Y-123992255D01*
X125754005Y-123746136D01*
X125216777Y-123553035D01*
X124646546Y-123580222D01*
X124245995Y-123746136D01*
X124171861Y-123992255D01*
X120710000Y-123992255D01*
X120710000Y-121284187D01*
X143564752Y-121284187D01*
X143782757Y-121811800D01*
X144186077Y-122215824D01*
X144713309Y-122434750D01*
X145284187Y-122435248D01*
X145811800Y-122217243D01*
X146021663Y-122007745D01*
X149171861Y-122007745D01*
X149245995Y-122253864D01*
X149783223Y-122446965D01*
X150353454Y-122419778D01*
X150754005Y-122253864D01*
X150828139Y-122007745D01*
X150000000Y-121179605D01*
X149171861Y-122007745D01*
X146021663Y-122007745D01*
X146215824Y-121813923D01*
X146434750Y-121286691D01*
X146435189Y-120783223D01*
X148553035Y-120783223D01*
X148580222Y-121353454D01*
X148746136Y-121754005D01*
X148992255Y-121828139D01*
X149820395Y-121000000D01*
X150179605Y-121000000D01*
X151007745Y-121828139D01*
X151253864Y-121754005D01*
X151446965Y-121216777D01*
X151419778Y-120646546D01*
X151253864Y-120245995D01*
X151007745Y-120171861D01*
X150179605Y-121000000D01*
X149820395Y-121000000D01*
X148992255Y-120171861D01*
X148746136Y-120245995D01*
X148553035Y-120783223D01*
X146435189Y-120783223D01*
X146435248Y-120715813D01*
X146217243Y-120188200D01*
X146021640Y-119992255D01*
X149171861Y-119992255D01*
X150000000Y-120820395D01*
X150828139Y-119992255D01*
X150754005Y-119746136D01*
X150216777Y-119553035D01*
X149646546Y-119580222D01*
X149245995Y-119746136D01*
X149171861Y-119992255D01*
X146021640Y-119992255D01*
X145813923Y-119784176D01*
X145286691Y-119565250D01*
X144715813Y-119564752D01*
X144188200Y-119782757D01*
X143784176Y-120186077D01*
X143565250Y-120713309D01*
X143564752Y-121284187D01*
X120710000Y-121284187D01*
X120710000Y-114209766D01*
X130519839Y-114209766D01*
X130619726Y-114477658D01*
X131233074Y-114705851D01*
X131887059Y-114681956D01*
X132380274Y-114477658D01*
X132480161Y-114209766D01*
X131500000Y-113229605D01*
X130519839Y-114209766D01*
X120710000Y-114209766D01*
X120710000Y-112783074D01*
X129844149Y-112783074D01*
X129868044Y-113437059D01*
X130072342Y-113930274D01*
X130340234Y-114030161D01*
X131320395Y-113050000D01*
X131679605Y-113050000D01*
X132659766Y-114030161D01*
X132927658Y-113930274D01*
X133155851Y-113316926D01*
X133131956Y-112662941D01*
X132927658Y-112169726D01*
X132659766Y-112069839D01*
X131679605Y-113050000D01*
X131320395Y-113050000D01*
X130340234Y-112069839D01*
X130072342Y-112169726D01*
X129844149Y-112783074D01*
X120710000Y-112783074D01*
X120710000Y-111890234D01*
X130519839Y-111890234D01*
X131500000Y-112870395D01*
X132480161Y-111890234D01*
X132380274Y-111622342D01*
X131766926Y-111394149D01*
X131112941Y-111418044D01*
X130619726Y-111622342D01*
X130519839Y-111890234D01*
X120710000Y-111890234D01*
X120710000Y-111159766D01*
X126074839Y-111159766D01*
X126174726Y-111427658D01*
X126788074Y-111655851D01*
X127442059Y-111631956D01*
X127935274Y-111427658D01*
X128035161Y-111159766D01*
X134964839Y-111159766D01*
X135064726Y-111427658D01*
X135678074Y-111655851D01*
X136332059Y-111631956D01*
X136825274Y-111427658D01*
X136925161Y-111159766D01*
X135945000Y-110179605D01*
X134964839Y-111159766D01*
X128035161Y-111159766D01*
X127055000Y-110179605D01*
X126074839Y-111159766D01*
X120710000Y-111159766D01*
X120710000Y-109733074D01*
X125399149Y-109733074D01*
X125423044Y-110387059D01*
X125627342Y-110880274D01*
X125895234Y-110980161D01*
X126875395Y-110000000D01*
X127234605Y-110000000D01*
X128214766Y-110980161D01*
X128482658Y-110880274D01*
X128710851Y-110266926D01*
X128691346Y-109733074D01*
X134289149Y-109733074D01*
X134313044Y-110387059D01*
X134517342Y-110880274D01*
X134785234Y-110980161D01*
X135765395Y-110000000D01*
X136124605Y-110000000D01*
X137104766Y-110980161D01*
X137372658Y-110880274D01*
X137498770Y-110541303D01*
X137659624Y-110930600D01*
X138121966Y-111393750D01*
X138170000Y-111413695D01*
X138170000Y-111428350D01*
X138169999Y-111428355D01*
X138213150Y-111645284D01*
X138237367Y-111767030D01*
X138319689Y-111890234D01*
X138429210Y-112054145D01*
X140050853Y-113675787D01*
X140050855Y-113675790D01*
X140337970Y-113867633D01*
X140676645Y-113935000D01*
X142085783Y-113935000D01*
X142104624Y-113980600D01*
X142566966Y-114443750D01*
X143171354Y-114694713D01*
X143825775Y-114695284D01*
X144430600Y-114445376D01*
X144893750Y-113983034D01*
X144913695Y-113935000D01*
X146449995Y-113935000D01*
X146450000Y-113935001D01*
X146732484Y-113878810D01*
X146788675Y-113867633D01*
X147075790Y-113675790D01*
X147075791Y-113675789D01*
X148570787Y-112180792D01*
X148570790Y-112180790D01*
X148762633Y-111893675D01*
X148763317Y-111890234D01*
X148830001Y-111555000D01*
X148830000Y-111554995D01*
X148830000Y-111414217D01*
X148875600Y-111395376D01*
X149338750Y-110933034D01*
X149589713Y-110328646D01*
X149590284Y-109674225D01*
X149340376Y-109069400D01*
X148878034Y-108606250D01*
X148273646Y-108355287D01*
X147619225Y-108354716D01*
X147014400Y-108604624D01*
X146551250Y-109066966D01*
X146300287Y-109671354D01*
X146299716Y-110325775D01*
X146549624Y-110930600D01*
X146933387Y-111315034D01*
X146083420Y-112165000D01*
X144914217Y-112165000D01*
X144895376Y-112119400D01*
X144433034Y-111656250D01*
X143828646Y-111405287D01*
X143174225Y-111404716D01*
X142569400Y-111654624D01*
X142106250Y-112116966D01*
X142086305Y-112165000D01*
X141043224Y-112165000D01*
X140129726Y-111251501D01*
X140448750Y-110933034D01*
X140699713Y-110328646D01*
X140700284Y-109674225D01*
X140450376Y-109069400D01*
X139988034Y-108606250D01*
X139383646Y-108355287D01*
X138729225Y-108354716D01*
X138124400Y-108604624D01*
X137661250Y-109066966D01*
X137505836Y-109441245D01*
X137372658Y-109119726D01*
X137104766Y-109019839D01*
X136124605Y-110000000D01*
X135765395Y-110000000D01*
X134785234Y-109019839D01*
X134517342Y-109119726D01*
X134289149Y-109733074D01*
X128691346Y-109733074D01*
X128686956Y-109612941D01*
X128482658Y-109119726D01*
X128214766Y-109019839D01*
X127234605Y-110000000D01*
X126875395Y-110000000D01*
X125895234Y-109019839D01*
X125627342Y-109119726D01*
X125399149Y-109733074D01*
X120710000Y-109733074D01*
X120710000Y-108840234D01*
X126074839Y-108840234D01*
X127055000Y-109820395D01*
X128035161Y-108840234D01*
X134964839Y-108840234D01*
X135945000Y-109820395D01*
X136925161Y-108840234D01*
X136825274Y-108572342D01*
X136211926Y-108344149D01*
X135557941Y-108368044D01*
X135064726Y-108572342D01*
X134964839Y-108840234D01*
X128035161Y-108840234D01*
X127935274Y-108572342D01*
X127321926Y-108344149D01*
X126667941Y-108368044D01*
X126174726Y-108572342D01*
X126074839Y-108840234D01*
X120710000Y-108840234D01*
X120710000Y-103507745D01*
X124171861Y-103507745D01*
X124245995Y-103753864D01*
X124783223Y-103946965D01*
X125353454Y-103919778D01*
X125754005Y-103753864D01*
X125828139Y-103507745D01*
X125000000Y-102679605D01*
X124171861Y-103507745D01*
X120710000Y-103507745D01*
X120710000Y-102283223D01*
X123553035Y-102283223D01*
X123580222Y-102853454D01*
X123746136Y-103254005D01*
X123992255Y-103328139D01*
X124820395Y-102500000D01*
X125179605Y-102500000D01*
X126007745Y-103328139D01*
X126253864Y-103254005D01*
X126422735Y-102784187D01*
X128564752Y-102784187D01*
X128782757Y-103311800D01*
X129186077Y-103715824D01*
X129713309Y-103934750D01*
X130284187Y-103935248D01*
X130811800Y-103717243D01*
X131215824Y-103313923D01*
X131434750Y-102786691D01*
X131434752Y-102784187D01*
X143564752Y-102784187D01*
X143782757Y-103311800D01*
X144186077Y-103715824D01*
X144713309Y-103934750D01*
X145284187Y-103935248D01*
X145811800Y-103717243D01*
X146021663Y-103507745D01*
X149171861Y-103507745D01*
X149245995Y-103753864D01*
X149783223Y-103946965D01*
X150353454Y-103919778D01*
X150754005Y-103753864D01*
X150828139Y-103507745D01*
X150000000Y-102679605D01*
X149171861Y-103507745D01*
X146021663Y-103507745D01*
X146215824Y-103313923D01*
X146434750Y-102786691D01*
X146435189Y-102283223D01*
X148553035Y-102283223D01*
X148580222Y-102853454D01*
X148746136Y-103254005D01*
X148992255Y-103328139D01*
X149820395Y-102500000D01*
X150179605Y-102500000D01*
X151007745Y-103328139D01*
X151253864Y-103254005D01*
X151446965Y-102716777D01*
X151419778Y-102146546D01*
X151253864Y-101745995D01*
X151007745Y-101671861D01*
X150179605Y-102500000D01*
X149820395Y-102500000D01*
X148992255Y-101671861D01*
X148746136Y-101745995D01*
X148553035Y-102283223D01*
X146435189Y-102283223D01*
X146435248Y-102215813D01*
X146217243Y-101688200D01*
X146021640Y-101492255D01*
X149171861Y-101492255D01*
X150000000Y-102320395D01*
X150828139Y-101492255D01*
X150754005Y-101246136D01*
X150216777Y-101053035D01*
X149646546Y-101080222D01*
X149245995Y-101246136D01*
X149171861Y-101492255D01*
X146021640Y-101492255D01*
X145813923Y-101284176D01*
X145286691Y-101065250D01*
X144715813Y-101064752D01*
X144188200Y-101282757D01*
X143784176Y-101686077D01*
X143565250Y-102213309D01*
X143564752Y-102784187D01*
X131434752Y-102784187D01*
X131435248Y-102215813D01*
X131217243Y-101688200D01*
X130813923Y-101284176D01*
X130286691Y-101065250D01*
X129715813Y-101064752D01*
X129188200Y-101282757D01*
X128784176Y-101686077D01*
X128565250Y-102213309D01*
X128564752Y-102784187D01*
X126422735Y-102784187D01*
X126446965Y-102716777D01*
X126419778Y-102146546D01*
X126253864Y-101745995D01*
X126007745Y-101671861D01*
X125179605Y-102500000D01*
X124820395Y-102500000D01*
X123992255Y-101671861D01*
X123746136Y-101745995D01*
X123553035Y-102283223D01*
X120710000Y-102283223D01*
X120710000Y-101492255D01*
X124171861Y-101492255D01*
X125000000Y-102320395D01*
X125828139Y-101492255D01*
X125754005Y-101246136D01*
X125216777Y-101053035D01*
X124646546Y-101080222D01*
X124245995Y-101246136D01*
X124171861Y-101492255D01*
X120710000Y-101492255D01*
X120710000Y-83507745D01*
X124171861Y-83507745D01*
X124245995Y-83753864D01*
X124783223Y-83946965D01*
X125353454Y-83919778D01*
X125754005Y-83753864D01*
X125828139Y-83507745D01*
X125000000Y-82679605D01*
X124171861Y-83507745D01*
X120710000Y-83507745D01*
X120710000Y-82283223D01*
X123553035Y-82283223D01*
X123580222Y-82853454D01*
X123746136Y-83254005D01*
X123992255Y-83328139D01*
X124820395Y-82500000D01*
X125179605Y-82500000D01*
X126007745Y-83328139D01*
X126253864Y-83254005D01*
X126422735Y-82784187D01*
X128564752Y-82784187D01*
X128782757Y-83311800D01*
X129186077Y-83715824D01*
X129713309Y-83934750D01*
X130284187Y-83935248D01*
X130811800Y-83717243D01*
X131215824Y-83313923D01*
X131434750Y-82786691D01*
X131434752Y-82784187D01*
X143564752Y-82784187D01*
X143782757Y-83311800D01*
X144186077Y-83715824D01*
X144713309Y-83934750D01*
X145284187Y-83935248D01*
X145811800Y-83717243D01*
X146021663Y-83507745D01*
X149171861Y-83507745D01*
X149245995Y-83753864D01*
X149783223Y-83946965D01*
X150353454Y-83919778D01*
X150754005Y-83753864D01*
X150828139Y-83507745D01*
X150000000Y-82679605D01*
X149171861Y-83507745D01*
X146021663Y-83507745D01*
X146215824Y-83313923D01*
X146434750Y-82786691D01*
X146435189Y-82283223D01*
X148553035Y-82283223D01*
X148580222Y-82853454D01*
X148746136Y-83254005D01*
X148992255Y-83328139D01*
X149820395Y-82500000D01*
X150179605Y-82500000D01*
X151007745Y-83328139D01*
X151253864Y-83254005D01*
X151446965Y-82716777D01*
X151419778Y-82146546D01*
X151253864Y-81745995D01*
X151007745Y-81671861D01*
X150179605Y-82500000D01*
X149820395Y-82500000D01*
X148992255Y-81671861D01*
X148746136Y-81745995D01*
X148553035Y-82283223D01*
X146435189Y-82283223D01*
X146435248Y-82215813D01*
X146217243Y-81688200D01*
X146021640Y-81492255D01*
X149171861Y-81492255D01*
X150000000Y-82320395D01*
X150828139Y-81492255D01*
X150754005Y-81246136D01*
X150216777Y-81053035D01*
X149646546Y-81080222D01*
X149245995Y-81246136D01*
X149171861Y-81492255D01*
X146021640Y-81492255D01*
X145813923Y-81284176D01*
X145286691Y-81065250D01*
X144715813Y-81064752D01*
X144188200Y-81282757D01*
X143784176Y-81686077D01*
X143565250Y-82213309D01*
X143564752Y-82784187D01*
X131434752Y-82784187D01*
X131435248Y-82215813D01*
X131217243Y-81688200D01*
X130813923Y-81284176D01*
X130286691Y-81065250D01*
X129715813Y-81064752D01*
X129188200Y-81282757D01*
X128784176Y-81686077D01*
X128565250Y-82213309D01*
X128564752Y-82784187D01*
X126422735Y-82784187D01*
X126446965Y-82716777D01*
X126419778Y-82146546D01*
X126253864Y-81745995D01*
X126007745Y-81671861D01*
X125179605Y-82500000D01*
X124820395Y-82500000D01*
X123992255Y-81671861D01*
X123746136Y-81745995D01*
X123553035Y-82283223D01*
X120710000Y-82283223D01*
X120710000Y-81492255D01*
X124171861Y-81492255D01*
X125000000Y-82320395D01*
X125828139Y-81492255D01*
X125754005Y-81246136D01*
X125216777Y-81053035D01*
X124646546Y-81080222D01*
X124245995Y-81246136D01*
X124171861Y-81492255D01*
X120710000Y-81492255D01*
X120710000Y-63507745D01*
X124171861Y-63507745D01*
X124245995Y-63753864D01*
X124783223Y-63946965D01*
X125353454Y-63919778D01*
X125754005Y-63753864D01*
X125828139Y-63507745D01*
X125000000Y-62679605D01*
X124171861Y-63507745D01*
X120710000Y-63507745D01*
X120710000Y-62283223D01*
X123553035Y-62283223D01*
X123580222Y-62853454D01*
X123746136Y-63254005D01*
X123992255Y-63328139D01*
X124820395Y-62500000D01*
X125179605Y-62500000D01*
X126007745Y-63328139D01*
X126253864Y-63254005D01*
X126422735Y-62784187D01*
X128564752Y-62784187D01*
X128782757Y-63311800D01*
X129186077Y-63715824D01*
X129713309Y-63934750D01*
X130284187Y-63935248D01*
X130811800Y-63717243D01*
X131215824Y-63313923D01*
X131434750Y-62786691D01*
X131435248Y-62215813D01*
X131217243Y-61688200D01*
X130813923Y-61284176D01*
X130286691Y-61065250D01*
X129715813Y-61064752D01*
X129188200Y-61282757D01*
X128784176Y-61686077D01*
X128565250Y-62213309D01*
X128564752Y-62784187D01*
X126422735Y-62784187D01*
X126446965Y-62716777D01*
X126419778Y-62146546D01*
X126253864Y-61745995D01*
X126007745Y-61671861D01*
X125179605Y-62500000D01*
X124820395Y-62500000D01*
X123992255Y-61671861D01*
X123746136Y-61745995D01*
X123553035Y-62283223D01*
X120710000Y-62283223D01*
X120710000Y-61492255D01*
X124171861Y-61492255D01*
X125000000Y-62320395D01*
X125828139Y-61492255D01*
X125754005Y-61246136D01*
X125216777Y-61053035D01*
X124646546Y-61080222D01*
X124245995Y-61246136D01*
X124171861Y-61492255D01*
X120710000Y-61492255D01*
X120710000Y-53382946D01*
X122854017Y-53382946D01*
X123122812Y-53968379D01*
X123595182Y-54406385D01*
X124077056Y-54605975D01*
X124333000Y-54486836D01*
X124333000Y-53127000D01*
X122972633Y-53127000D01*
X122854017Y-53382946D01*
X120710000Y-53382946D01*
X120710000Y-52617054D01*
X122854017Y-52617054D01*
X122972633Y-52873000D01*
X124333000Y-52873000D01*
X124333000Y-51513164D01*
X124587000Y-51513164D01*
X124587000Y-52873000D01*
X124607000Y-52873000D01*
X124607000Y-53127000D01*
X124587000Y-53127000D01*
X124587000Y-54486836D01*
X124842944Y-54605975D01*
X125324818Y-54406385D01*
X125422398Y-54315903D01*
X125519910Y-54467441D01*
X125732110Y-54612431D01*
X125984000Y-54663440D01*
X128016000Y-54663440D01*
X128251317Y-54619162D01*
X128467441Y-54480090D01*
X128612431Y-54267890D01*
X128663440Y-54016000D01*
X128663440Y-51984000D01*
X128619162Y-51748683D01*
X128480090Y-51532559D01*
X128267890Y-51387569D01*
X128016000Y-51336560D01*
X125984000Y-51336560D01*
X125748683Y-51380838D01*
X125532559Y-51519910D01*
X125421160Y-51682948D01*
X125324818Y-51593615D01*
X124842944Y-51394025D01*
X124587000Y-51513164D01*
X124333000Y-51513164D01*
X124077056Y-51394025D01*
X123595182Y-51593615D01*
X123122812Y-52031621D01*
X122854017Y-52617054D01*
X120710000Y-52617054D01*
X120710000Y-46007745D01*
X124171861Y-46007745D01*
X124245995Y-46253864D01*
X124783223Y-46446965D01*
X125353454Y-46419778D01*
X125754005Y-46253864D01*
X125828139Y-46007745D01*
X125000000Y-45179605D01*
X124171861Y-46007745D01*
X120710000Y-46007745D01*
X120710000Y-44783223D01*
X123553035Y-44783223D01*
X123580222Y-45353454D01*
X123746136Y-45754005D01*
X123992255Y-45828139D01*
X124820395Y-45000000D01*
X125179605Y-45000000D01*
X126007745Y-45828139D01*
X126253864Y-45754005D01*
X126422735Y-45284187D01*
X128564752Y-45284187D01*
X128782757Y-45811800D01*
X129186077Y-46215824D01*
X129713309Y-46434750D01*
X130284187Y-46435248D01*
X130811800Y-46217243D01*
X131215824Y-45813923D01*
X131434750Y-45286691D01*
X131435193Y-44779381D01*
X131545910Y-44951441D01*
X131758110Y-45096431D01*
X132010000Y-45147440D01*
X133910000Y-45147440D01*
X134145317Y-45103162D01*
X134361441Y-44964090D01*
X134506431Y-44751890D01*
X134507055Y-44748808D01*
X134600997Y-44842914D01*
X135183341Y-45084724D01*
X135813893Y-45085275D01*
X136396657Y-44844481D01*
X136842914Y-44399003D01*
X137084724Y-43816659D01*
X137085275Y-43186107D01*
X136844481Y-42603343D01*
X136399003Y-42157086D01*
X135816659Y-41915276D01*
X135186107Y-41914725D01*
X134603343Y-42155519D01*
X134505663Y-42253029D01*
X134374090Y-42048559D01*
X134161890Y-41903569D01*
X133910000Y-41852560D01*
X132010000Y-41852560D01*
X131774683Y-41896838D01*
X131558559Y-42035910D01*
X131413569Y-42248110D01*
X131362560Y-42500000D01*
X131362560Y-44500000D01*
X131376344Y-44573253D01*
X131217243Y-44188200D01*
X130813923Y-43784176D01*
X130286691Y-43565250D01*
X129715813Y-43564752D01*
X129188200Y-43782757D01*
X128784176Y-44186077D01*
X128565250Y-44713309D01*
X128564752Y-45284187D01*
X126422735Y-45284187D01*
X126446965Y-45216777D01*
X126419778Y-44646546D01*
X126253864Y-44245995D01*
X126007745Y-44171861D01*
X125179605Y-45000000D01*
X124820395Y-45000000D01*
X123992255Y-44171861D01*
X123746136Y-44245995D01*
X123553035Y-44783223D01*
X120710000Y-44783223D01*
X120710000Y-43992255D01*
X124171861Y-43992255D01*
X125000000Y-44820395D01*
X125828139Y-43992255D01*
X125754005Y-43746136D01*
X125216777Y-43553035D01*
X124646546Y-43580222D01*
X124245995Y-43746136D01*
X124171861Y-43992255D01*
X120710000Y-43992255D01*
X120710000Y-37249819D01*
X121177862Y-38382132D01*
X122112945Y-39318849D01*
X123335315Y-39826421D01*
X124658878Y-39827576D01*
X125882132Y-39322138D01*
X126818849Y-38387055D01*
X127326421Y-37164685D01*
X127327576Y-35841122D01*
X126822138Y-34617868D01*
X125887055Y-33681151D01*
X124752397Y-33210000D01*
X137207172Y-33210000D01*
X137000254Y-33708314D01*
M02*
