G04 #@! TF.FileFunction,Legend,Top*
%FSLAX46Y46*%
G04 Gerber Fmt 4.6, Leading zero omitted, Abs format (unit mm)*
G04 Created by KiCad (PCBNEW 4.0.4+e1-6308~48~ubuntu14.04.1-stable) date Thu Dec 22 12:45:23 2016*
%MOMM*%
%LPD*%
G01*
G04 APERTURE LIST*
%ADD10C,0.100000*%
%ADD11C,0.150000*%
%ADD12C,0.010000*%
G04 APERTURE END LIST*
D10*
D11*
X132850000Y-53500000D02*
X132850000Y-52500000D01*
X131150000Y-52500000D02*
X131150000Y-53500000D01*
X130850000Y-53500000D02*
X130850000Y-52500000D01*
X129150000Y-52500000D02*
X129150000Y-53500000D01*
X135299160Y-47849760D02*
X135250900Y-47849760D01*
X132500180Y-48550800D02*
X132500180Y-47849760D01*
X132500180Y-47849760D02*
X132749100Y-47849760D01*
X135299160Y-47849760D02*
X135499820Y-47849760D01*
X135499820Y-47849760D02*
X135499820Y-48550800D01*
X134250000Y-59850000D02*
X135250000Y-59850000D01*
X135250000Y-58150000D02*
X134250000Y-58150000D01*
X142500000Y-38350000D02*
X143500000Y-38350000D01*
X143500000Y-36650000D02*
X142500000Y-36650000D01*
X151270000Y-53730000D02*
X151270000Y-48650000D01*
X151550000Y-56550000D02*
X150000000Y-56550000D01*
X148730000Y-56270000D02*
X148730000Y-53730000D01*
X148730000Y-53730000D02*
X151270000Y-53730000D01*
X151270000Y-48650000D02*
X146190000Y-48650000D01*
X146190000Y-48650000D02*
X146190000Y-53730000D01*
X151550000Y-56550000D02*
X151550000Y-55000000D01*
X146190000Y-56270000D02*
X148730000Y-56270000D01*
X146190000Y-53730000D02*
X146190000Y-56270000D01*
X136650000Y-48000000D02*
X136650000Y-49000000D01*
X138350000Y-49000000D02*
X138350000Y-48000000D01*
X143500000Y-38650000D02*
X142500000Y-38650000D01*
X142500000Y-40350000D02*
X143500000Y-40350000D01*
X138650000Y-38000000D02*
X138650000Y-39000000D01*
X140350000Y-39000000D02*
X140350000Y-38000000D01*
X135925000Y-50925000D02*
X135925000Y-50975000D01*
X140075000Y-50925000D02*
X140075000Y-51070000D01*
X140075000Y-56075000D02*
X140075000Y-55930000D01*
X135925000Y-56075000D02*
X135925000Y-55930000D01*
X135925000Y-50925000D02*
X140075000Y-50925000D01*
X135925000Y-56075000D02*
X140075000Y-56075000D01*
X135925000Y-50975000D02*
X134525000Y-50975000D01*
X140150000Y-48000000D02*
X140150000Y-49000000D01*
X141850000Y-49000000D02*
X141850000Y-48000000D01*
X131400000Y-41100000D02*
X131400000Y-48900000D01*
X123600000Y-41100000D02*
X131400000Y-41100000D01*
X123600000Y-48900000D02*
X123600000Y-41100000D01*
X131400000Y-48900000D02*
X123600000Y-48900000D01*
X131400000Y-98600000D02*
X131400000Y-106400000D01*
X123600000Y-98600000D02*
X131400000Y-98600000D01*
X123600000Y-106400000D02*
X123600000Y-98600000D01*
X131400000Y-106400000D02*
X123600000Y-106400000D01*
X143600000Y-147900000D02*
X143600000Y-140100000D01*
X151400000Y-147900000D02*
X143600000Y-147900000D01*
X151400000Y-140100000D02*
X151400000Y-147900000D01*
X143600000Y-140100000D02*
X151400000Y-140100000D01*
X143600000Y-86400000D02*
X143600000Y-78600000D01*
X151400000Y-86400000D02*
X143600000Y-86400000D01*
X151400000Y-78600000D02*
X151400000Y-86400000D01*
X143600000Y-78600000D02*
X151400000Y-78600000D01*
X131400000Y-58600000D02*
X131400000Y-66400000D01*
X123600000Y-58600000D02*
X131400000Y-58600000D01*
X123600000Y-66400000D02*
X123600000Y-58600000D01*
X131400000Y-66400000D02*
X123600000Y-66400000D01*
X131400000Y-121100000D02*
X131400000Y-128900000D01*
X123600000Y-121100000D02*
X131400000Y-121100000D01*
X123600000Y-128900000D02*
X123600000Y-121100000D01*
X131400000Y-128900000D02*
X123600000Y-128900000D01*
X143600000Y-124900000D02*
X143600000Y-117100000D01*
X151400000Y-124900000D02*
X143600000Y-124900000D01*
X151400000Y-117100000D02*
X151400000Y-124900000D01*
X143600000Y-117100000D02*
X151400000Y-117100000D01*
X143600000Y-66400000D02*
X143600000Y-58600000D01*
X151400000Y-66400000D02*
X143600000Y-66400000D01*
X151400000Y-58600000D02*
X151400000Y-66400000D01*
X143600000Y-58600000D02*
X151400000Y-58600000D01*
X131400000Y-78600000D02*
X131400000Y-86400000D01*
X123600000Y-78600000D02*
X131400000Y-78600000D01*
X123600000Y-86400000D02*
X123600000Y-78600000D01*
X131400000Y-86400000D02*
X123600000Y-86400000D01*
X131400000Y-136100000D02*
X131400000Y-143900000D01*
X123600000Y-136100000D02*
X131400000Y-136100000D01*
X123600000Y-143900000D02*
X123600000Y-136100000D01*
X131400000Y-143900000D02*
X123600000Y-143900000D01*
X143600000Y-106400000D02*
X143600000Y-98600000D01*
X151400000Y-106400000D02*
X143600000Y-106400000D01*
X151400000Y-98600000D02*
X151400000Y-106400000D01*
X143600000Y-98600000D02*
X151400000Y-98600000D01*
X125730000Y-54270000D02*
X123190000Y-54270000D01*
X128550000Y-54550000D02*
X127000000Y-54550000D01*
X125730000Y-54270000D02*
X125730000Y-51730000D01*
X127000000Y-51450000D02*
X128550000Y-51450000D01*
X128550000Y-51450000D02*
X128550000Y-54550000D01*
X125730000Y-51730000D02*
X123190000Y-51730000D01*
X123190000Y-51730000D02*
X123190000Y-54270000D01*
D12*
G36*
X139230000Y-157073892D02*
X139230123Y-157163846D01*
X139229901Y-157235827D01*
X139228448Y-157291853D01*
X139224878Y-157333945D01*
X139218303Y-157364121D01*
X139207837Y-157384401D01*
X139192594Y-157396804D01*
X139171686Y-157403349D01*
X139144228Y-157406055D01*
X139109332Y-157406942D01*
X139083540Y-157407465D01*
X139023584Y-157407828D01*
X138980461Y-157405111D01*
X138951211Y-157399077D01*
X138943996Y-157396271D01*
X138920746Y-157381832D01*
X138906815Y-157366058D01*
X138906496Y-157365294D01*
X138902024Y-157343888D01*
X138899953Y-157313499D01*
X138900089Y-157280025D01*
X138901144Y-157265000D01*
X139060000Y-157265000D01*
X139065000Y-157270000D01*
X139070000Y-157265000D01*
X139065000Y-157260000D01*
X139060000Y-157265000D01*
X138901144Y-157265000D01*
X138902242Y-157249367D01*
X138906219Y-157227423D01*
X138911224Y-157220000D01*
X138915883Y-157214474D01*
X138909057Y-157203863D01*
X138902149Y-157185925D01*
X138896859Y-157150213D01*
X138893083Y-157095866D01*
X138891658Y-157059123D01*
X138890931Y-157020000D01*
X139050000Y-157020000D01*
X139051048Y-157063124D01*
X139053952Y-157093886D01*
X139058345Y-157109003D01*
X139060000Y-157110000D01*
X139064791Y-157100559D01*
X139068209Y-157074428D01*
X139069889Y-157034887D01*
X139070000Y-157020000D01*
X139068951Y-156976875D01*
X139066047Y-156946113D01*
X139061654Y-156930996D01*
X139060000Y-156930000D01*
X139055208Y-156939440D01*
X139051790Y-156965571D01*
X139050110Y-157005112D01*
X139050000Y-157020000D01*
X138890931Y-157020000D01*
X138890253Y-156983551D01*
X138891589Y-156925103D01*
X138896042Y-156881044D01*
X138903987Y-156848637D01*
X138915799Y-156825147D01*
X138925346Y-156813744D01*
X138935742Y-156804333D01*
X138947296Y-156797804D01*
X138963642Y-156793632D01*
X138988412Y-156791291D01*
X139025240Y-156790256D01*
X139077759Y-156790003D01*
X139089545Y-156790000D01*
X139230000Y-156790000D01*
X139230000Y-157073892D01*
X139230000Y-157073892D01*
G37*
X139230000Y-157073892D02*
X139230123Y-157163846D01*
X139229901Y-157235827D01*
X139228448Y-157291853D01*
X139224878Y-157333945D01*
X139218303Y-157364121D01*
X139207837Y-157384401D01*
X139192594Y-157396804D01*
X139171686Y-157403349D01*
X139144228Y-157406055D01*
X139109332Y-157406942D01*
X139083540Y-157407465D01*
X139023584Y-157407828D01*
X138980461Y-157405111D01*
X138951211Y-157399077D01*
X138943996Y-157396271D01*
X138920746Y-157381832D01*
X138906815Y-157366058D01*
X138906496Y-157365294D01*
X138902024Y-157343888D01*
X138899953Y-157313499D01*
X138900089Y-157280025D01*
X138901144Y-157265000D01*
X139060000Y-157265000D01*
X139065000Y-157270000D01*
X139070000Y-157265000D01*
X139065000Y-157260000D01*
X139060000Y-157265000D01*
X138901144Y-157265000D01*
X138902242Y-157249367D01*
X138906219Y-157227423D01*
X138911224Y-157220000D01*
X138915883Y-157214474D01*
X138909057Y-157203863D01*
X138902149Y-157185925D01*
X138896859Y-157150213D01*
X138893083Y-157095866D01*
X138891658Y-157059123D01*
X138890931Y-157020000D01*
X139050000Y-157020000D01*
X139051048Y-157063124D01*
X139053952Y-157093886D01*
X139058345Y-157109003D01*
X139060000Y-157110000D01*
X139064791Y-157100559D01*
X139068209Y-157074428D01*
X139069889Y-157034887D01*
X139070000Y-157020000D01*
X139068951Y-156976875D01*
X139066047Y-156946113D01*
X139061654Y-156930996D01*
X139060000Y-156930000D01*
X139055208Y-156939440D01*
X139051790Y-156965571D01*
X139050110Y-157005112D01*
X139050000Y-157020000D01*
X138890931Y-157020000D01*
X138890253Y-156983551D01*
X138891589Y-156925103D01*
X138896042Y-156881044D01*
X138903987Y-156848637D01*
X138915799Y-156825147D01*
X138925346Y-156813744D01*
X138935742Y-156804333D01*
X138947296Y-156797804D01*
X138963642Y-156793632D01*
X138988412Y-156791291D01*
X139025240Y-156790256D01*
X139077759Y-156790003D01*
X139089545Y-156790000D01*
X139230000Y-156790000D01*
X139230000Y-157073892D01*
G36*
X139455541Y-156835122D02*
X139462409Y-156868839D01*
X139469635Y-156882854D01*
X139476742Y-156877088D01*
X139483250Y-156851463D01*
X139484998Y-156840009D01*
X139491876Y-156790000D01*
X139576671Y-156790000D01*
X139619688Y-156790751D01*
X139645571Y-156793305D01*
X139657140Y-156798115D01*
X139658233Y-156803067D01*
X139655055Y-156815718D01*
X139647608Y-156845276D01*
X139636518Y-156889254D01*
X139622412Y-156945168D01*
X139605917Y-157010533D01*
X139587659Y-157082862D01*
X139580034Y-157113067D01*
X139505069Y-157410000D01*
X139422534Y-157410000D01*
X139384737Y-157409372D01*
X139356044Y-157407700D01*
X139341113Y-157405301D01*
X139340000Y-157404381D01*
X139342594Y-157392906D01*
X139349550Y-157366816D01*
X139359627Y-157330695D01*
X139365599Y-157309782D01*
X139391198Y-157220800D01*
X139340215Y-157022900D01*
X139324480Y-156961964D01*
X139310188Y-156906888D01*
X139298180Y-156860890D01*
X139289296Y-156827186D01*
X139284376Y-156808994D01*
X139283942Y-156807500D01*
X139283282Y-156798991D01*
X139289990Y-156793778D01*
X139307647Y-156791073D01*
X139339838Y-156790090D01*
X139363713Y-156790000D01*
X139448774Y-156790000D01*
X139455541Y-156835122D01*
X139455541Y-156835122D01*
G37*
X139455541Y-156835122D02*
X139462409Y-156868839D01*
X139469635Y-156882854D01*
X139476742Y-156877088D01*
X139483250Y-156851463D01*
X139484998Y-156840009D01*
X139491876Y-156790000D01*
X139576671Y-156790000D01*
X139619688Y-156790751D01*
X139645571Y-156793305D01*
X139657140Y-156798115D01*
X139658233Y-156803067D01*
X139655055Y-156815718D01*
X139647608Y-156845276D01*
X139636518Y-156889254D01*
X139622412Y-156945168D01*
X139605917Y-157010533D01*
X139587659Y-157082862D01*
X139580034Y-157113067D01*
X139505069Y-157410000D01*
X139422534Y-157410000D01*
X139384737Y-157409372D01*
X139356044Y-157407700D01*
X139341113Y-157405301D01*
X139340000Y-157404381D01*
X139342594Y-157392906D01*
X139349550Y-157366816D01*
X139359627Y-157330695D01*
X139365599Y-157309782D01*
X139391198Y-157220800D01*
X139340215Y-157022900D01*
X139324480Y-156961964D01*
X139310188Y-156906888D01*
X139298180Y-156860890D01*
X139289296Y-156827186D01*
X139284376Y-156808994D01*
X139283942Y-156807500D01*
X139283282Y-156798991D01*
X139289990Y-156793778D01*
X139307647Y-156791073D01*
X139339838Y-156790090D01*
X139363713Y-156790000D01*
X139448774Y-156790000D01*
X139455541Y-156835122D01*
G36*
X141235451Y-157127500D02*
X141229452Y-157149786D01*
X141219455Y-157184671D01*
X141207337Y-157225636D01*
X141203762Y-157237500D01*
X141178789Y-157320000D01*
X141060000Y-157320000D01*
X141060071Y-157277500D01*
X141061099Y-157244324D01*
X141063694Y-157201702D01*
X141066517Y-157167500D01*
X141072892Y-157100000D01*
X141242168Y-157100000D01*
X141235451Y-157127500D01*
X141235451Y-157127500D01*
G37*
X141235451Y-157127500D02*
X141229452Y-157149786D01*
X141219455Y-157184671D01*
X141207337Y-157225636D01*
X141203762Y-157237500D01*
X141178789Y-157320000D01*
X141060000Y-157320000D01*
X141060071Y-157277500D01*
X141061099Y-157244324D01*
X141063694Y-157201702D01*
X141066517Y-157167500D01*
X141072892Y-157100000D01*
X141242168Y-157100000D01*
X141235451Y-157127500D01*
G36*
X132524711Y-156569461D02*
X132542459Y-156571059D01*
X132545081Y-156572027D01*
X132547526Y-156582202D01*
X132553225Y-156609715D01*
X132561722Y-156652250D01*
X132572563Y-156707491D01*
X132585291Y-156773122D01*
X132599451Y-156846830D01*
X132609593Y-156900000D01*
X132624601Y-156978650D01*
X132638593Y-157051498D01*
X132651093Y-157116088D01*
X132661619Y-157169965D01*
X132669695Y-157210675D01*
X132674841Y-157235765D01*
X132676378Y-157242500D01*
X132676859Y-157251026D01*
X132669969Y-157256243D01*
X132652106Y-157258942D01*
X132619667Y-157259914D01*
X132596655Y-157260000D01*
X132511963Y-157260000D01*
X132505000Y-157200000D01*
X132500574Y-157166808D01*
X132495299Y-157148858D01*
X132486428Y-157141479D01*
X132471213Y-157140002D01*
X132469692Y-157140000D01*
X132452982Y-157141512D01*
X132442063Y-157148759D01*
X132434585Y-157165801D01*
X132428197Y-157196702D01*
X132424851Y-157217500D01*
X132418242Y-157260000D01*
X132339121Y-157260000D01*
X132295815Y-157258914D01*
X132270277Y-157255432D01*
X132260377Y-157249219D01*
X132260086Y-157247500D01*
X132261977Y-157233399D01*
X132267217Y-157202971D01*
X132275259Y-157158990D01*
X132285559Y-157104229D01*
X132297570Y-157041464D01*
X132309480Y-156980000D01*
X132460000Y-156980000D01*
X132463658Y-156988231D01*
X132466666Y-156986666D01*
X132467863Y-156974799D01*
X132466666Y-156973333D01*
X132460721Y-156974706D01*
X132460000Y-156980000D01*
X132309480Y-156980000D01*
X132310746Y-156973468D01*
X132324543Y-156903014D01*
X132338413Y-156832877D01*
X132351811Y-156765831D01*
X132364191Y-156704650D01*
X132375008Y-156652108D01*
X132383716Y-156610978D01*
X132389768Y-156584036D01*
X132392585Y-156574081D01*
X132404096Y-156571754D01*
X132429274Y-156570045D01*
X132461908Y-156569037D01*
X132495791Y-156568815D01*
X132524711Y-156569461D01*
X132524711Y-156569461D01*
G37*
X132524711Y-156569461D02*
X132542459Y-156571059D01*
X132545081Y-156572027D01*
X132547526Y-156582202D01*
X132553225Y-156609715D01*
X132561722Y-156652250D01*
X132572563Y-156707491D01*
X132585291Y-156773122D01*
X132599451Y-156846830D01*
X132609593Y-156900000D01*
X132624601Y-156978650D01*
X132638593Y-157051498D01*
X132651093Y-157116088D01*
X132661619Y-157169965D01*
X132669695Y-157210675D01*
X132674841Y-157235765D01*
X132676378Y-157242500D01*
X132676859Y-157251026D01*
X132669969Y-157256243D01*
X132652106Y-157258942D01*
X132619667Y-157259914D01*
X132596655Y-157260000D01*
X132511963Y-157260000D01*
X132505000Y-157200000D01*
X132500574Y-157166808D01*
X132495299Y-157148858D01*
X132486428Y-157141479D01*
X132471213Y-157140002D01*
X132469692Y-157140000D01*
X132452982Y-157141512D01*
X132442063Y-157148759D01*
X132434585Y-157165801D01*
X132428197Y-157196702D01*
X132424851Y-157217500D01*
X132418242Y-157260000D01*
X132339121Y-157260000D01*
X132295815Y-157258914D01*
X132270277Y-157255432D01*
X132260377Y-157249219D01*
X132260086Y-157247500D01*
X132261977Y-157233399D01*
X132267217Y-157202971D01*
X132275259Y-157158990D01*
X132285559Y-157104229D01*
X132297570Y-157041464D01*
X132309480Y-156980000D01*
X132460000Y-156980000D01*
X132463658Y-156988231D01*
X132466666Y-156986666D01*
X132467863Y-156974799D01*
X132466666Y-156973333D01*
X132460721Y-156974706D01*
X132460000Y-156980000D01*
X132309480Y-156980000D01*
X132310746Y-156973468D01*
X132324543Y-156903014D01*
X132338413Y-156832877D01*
X132351811Y-156765831D01*
X132364191Y-156704650D01*
X132375008Y-156652108D01*
X132383716Y-156610978D01*
X132389768Y-156584036D01*
X132392585Y-156574081D01*
X132404096Y-156571754D01*
X132429274Y-156570045D01*
X132461908Y-156569037D01*
X132495791Y-156568815D01*
X132524711Y-156569461D01*
G36*
X132950370Y-156790661D02*
X132992909Y-156794093D01*
X133021226Y-156802471D01*
X133038206Y-156817966D01*
X133046734Y-156842753D01*
X133049694Y-156879005D01*
X133050000Y-156910000D01*
X133049765Y-156949670D01*
X133048167Y-156973423D01*
X133043859Y-156985340D01*
X133035497Y-156989505D01*
X133023651Y-156990000D01*
X132997302Y-156990000D01*
X133023651Y-157010725D01*
X133036007Y-157021607D01*
X133043742Y-157033729D01*
X133047934Y-157051765D01*
X133049661Y-157080389D01*
X133049999Y-157124274D01*
X133050000Y-157125000D01*
X133049672Y-157169125D01*
X133047972Y-157197925D01*
X133043820Y-157216074D01*
X133036141Y-157228246D01*
X133023855Y-157239113D01*
X133023651Y-157239274D01*
X133009394Y-157248622D01*
X132992183Y-157254689D01*
X132967579Y-157258154D01*
X132931148Y-157259695D01*
X132888196Y-157260000D01*
X132839694Y-157259709D01*
X132806836Y-157258305D01*
X132785269Y-157254987D01*
X132770641Y-157248957D01*
X132758598Y-157239415D01*
X132754545Y-157235454D01*
X132742110Y-157220950D01*
X132734739Y-157204556D01*
X132731145Y-157180766D01*
X132730039Y-157144072D01*
X132730000Y-157130454D01*
X132730089Y-157115000D01*
X132890000Y-157115000D01*
X132895000Y-157120000D01*
X132900000Y-157115000D01*
X132895000Y-157110000D01*
X132890000Y-157115000D01*
X132730089Y-157115000D01*
X132730230Y-157090647D01*
X132731810Y-157066768D01*
X132736074Y-157054748D01*
X132744355Y-157050515D01*
X132756363Y-157050000D01*
X132782727Y-157050000D01*
X132756363Y-157023636D01*
X132742832Y-157008211D01*
X132734915Y-156991736D01*
X132731140Y-156968413D01*
X132730033Y-156932447D01*
X132730014Y-156925000D01*
X132890000Y-156925000D01*
X132895000Y-156930000D01*
X132900000Y-156925000D01*
X132895000Y-156920000D01*
X132890000Y-156925000D01*
X132730014Y-156925000D01*
X132730000Y-156919984D01*
X132731058Y-156876995D01*
X132735002Y-156848154D01*
X132742987Y-156827686D01*
X132750725Y-156816348D01*
X132760258Y-156805201D01*
X132770653Y-156797746D01*
X132785855Y-156793240D01*
X132809807Y-156790942D01*
X132846450Y-156790109D01*
X132890725Y-156790000D01*
X132950370Y-156790661D01*
X132950370Y-156790661D01*
G37*
X132950370Y-156790661D02*
X132992909Y-156794093D01*
X133021226Y-156802471D01*
X133038206Y-156817966D01*
X133046734Y-156842753D01*
X133049694Y-156879005D01*
X133050000Y-156910000D01*
X133049765Y-156949670D01*
X133048167Y-156973423D01*
X133043859Y-156985340D01*
X133035497Y-156989505D01*
X133023651Y-156990000D01*
X132997302Y-156990000D01*
X133023651Y-157010725D01*
X133036007Y-157021607D01*
X133043742Y-157033729D01*
X133047934Y-157051765D01*
X133049661Y-157080389D01*
X133049999Y-157124274D01*
X133050000Y-157125000D01*
X133049672Y-157169125D01*
X133047972Y-157197925D01*
X133043820Y-157216074D01*
X133036141Y-157228246D01*
X133023855Y-157239113D01*
X133023651Y-157239274D01*
X133009394Y-157248622D01*
X132992183Y-157254689D01*
X132967579Y-157258154D01*
X132931148Y-157259695D01*
X132888196Y-157260000D01*
X132839694Y-157259709D01*
X132806836Y-157258305D01*
X132785269Y-157254987D01*
X132770641Y-157248957D01*
X132758598Y-157239415D01*
X132754545Y-157235454D01*
X132742110Y-157220950D01*
X132734739Y-157204556D01*
X132731145Y-157180766D01*
X132730039Y-157144072D01*
X132730000Y-157130454D01*
X132730089Y-157115000D01*
X132890000Y-157115000D01*
X132895000Y-157120000D01*
X132900000Y-157115000D01*
X132895000Y-157110000D01*
X132890000Y-157115000D01*
X132730089Y-157115000D01*
X132730230Y-157090647D01*
X132731810Y-157066768D01*
X132736074Y-157054748D01*
X132744355Y-157050515D01*
X132756363Y-157050000D01*
X132782727Y-157050000D01*
X132756363Y-157023636D01*
X132742832Y-157008211D01*
X132734915Y-156991736D01*
X132731140Y-156968413D01*
X132730033Y-156932447D01*
X132730014Y-156925000D01*
X132890000Y-156925000D01*
X132895000Y-156930000D01*
X132900000Y-156925000D01*
X132895000Y-156920000D01*
X132890000Y-156925000D01*
X132730014Y-156925000D01*
X132730000Y-156919984D01*
X132731058Y-156876995D01*
X132735002Y-156848154D01*
X132742987Y-156827686D01*
X132750725Y-156816348D01*
X132760258Y-156805201D01*
X132770653Y-156797746D01*
X132785855Y-156793240D01*
X132809807Y-156790942D01*
X132846450Y-156790109D01*
X132890725Y-156790000D01*
X132950370Y-156790661D01*
G36*
X133352271Y-156790697D02*
X133394314Y-156794272D01*
X133422178Y-156802946D01*
X133438770Y-156818943D01*
X133446994Y-156844486D01*
X133449756Y-156881796D01*
X133450000Y-156910000D01*
X133449722Y-156949681D01*
X133448054Y-156973442D01*
X133443744Y-156985362D01*
X133435541Y-156989520D01*
X133425454Y-156990000D01*
X133400909Y-156990000D01*
X133425454Y-157014545D01*
X133437283Y-157028116D01*
X133444566Y-157043267D01*
X133448385Y-157065043D01*
X133449826Y-157098491D01*
X133450000Y-157128819D01*
X133449634Y-157171938D01*
X133447770Y-157199877D01*
X133443259Y-157217456D01*
X133434951Y-157229491D01*
X133423651Y-157239274D01*
X133409394Y-157248622D01*
X133392183Y-157254689D01*
X133367579Y-157258154D01*
X133331148Y-157259695D01*
X133288196Y-157260000D01*
X133239694Y-157259709D01*
X133206836Y-157258305D01*
X133185269Y-157254987D01*
X133170641Y-157248957D01*
X133158598Y-157239415D01*
X133154545Y-157235454D01*
X133142110Y-157220950D01*
X133134739Y-157204556D01*
X133131145Y-157180766D01*
X133130039Y-157144072D01*
X133130000Y-157130454D01*
X133130117Y-157113333D01*
X133283333Y-157113333D01*
X133284706Y-157119278D01*
X133290000Y-157120000D01*
X133298231Y-157116341D01*
X133296666Y-157113333D01*
X133284799Y-157112136D01*
X133283333Y-157113333D01*
X133130117Y-157113333D01*
X133130274Y-157090636D01*
X133131924Y-157066750D01*
X133136190Y-157054728D01*
X133144314Y-157050501D01*
X133154545Y-157050000D01*
X133179090Y-157050000D01*
X133154545Y-157025454D01*
X133142336Y-157011302D01*
X133134995Y-156995384D01*
X133131312Y-156972365D01*
X133130078Y-156936915D01*
X133130025Y-156923333D01*
X133283333Y-156923333D01*
X133284706Y-156929278D01*
X133290000Y-156930000D01*
X133298231Y-156926341D01*
X133296666Y-156923333D01*
X133284799Y-156922136D01*
X133283333Y-156923333D01*
X133130025Y-156923333D01*
X133130000Y-156917197D01*
X133130589Y-156874914D01*
X133133112Y-156847449D01*
X133138704Y-156829638D01*
X133148496Y-156816317D01*
X133153144Y-156811743D01*
X133164859Y-156802343D01*
X133178912Y-156796109D01*
X133199412Y-156792403D01*
X133230471Y-156790587D01*
X133276198Y-156790021D01*
X133293144Y-156790000D01*
X133352271Y-156790697D01*
X133352271Y-156790697D01*
G37*
X133352271Y-156790697D02*
X133394314Y-156794272D01*
X133422178Y-156802946D01*
X133438770Y-156818943D01*
X133446994Y-156844486D01*
X133449756Y-156881796D01*
X133450000Y-156910000D01*
X133449722Y-156949681D01*
X133448054Y-156973442D01*
X133443744Y-156985362D01*
X133435541Y-156989520D01*
X133425454Y-156990000D01*
X133400909Y-156990000D01*
X133425454Y-157014545D01*
X133437283Y-157028116D01*
X133444566Y-157043267D01*
X133448385Y-157065043D01*
X133449826Y-157098491D01*
X133450000Y-157128819D01*
X133449634Y-157171938D01*
X133447770Y-157199877D01*
X133443259Y-157217456D01*
X133434951Y-157229491D01*
X133423651Y-157239274D01*
X133409394Y-157248622D01*
X133392183Y-157254689D01*
X133367579Y-157258154D01*
X133331148Y-157259695D01*
X133288196Y-157260000D01*
X133239694Y-157259709D01*
X133206836Y-157258305D01*
X133185269Y-157254987D01*
X133170641Y-157248957D01*
X133158598Y-157239415D01*
X133154545Y-157235454D01*
X133142110Y-157220950D01*
X133134739Y-157204556D01*
X133131145Y-157180766D01*
X133130039Y-157144072D01*
X133130000Y-157130454D01*
X133130117Y-157113333D01*
X133283333Y-157113333D01*
X133284706Y-157119278D01*
X133290000Y-157120000D01*
X133298231Y-157116341D01*
X133296666Y-157113333D01*
X133284799Y-157112136D01*
X133283333Y-157113333D01*
X133130117Y-157113333D01*
X133130274Y-157090636D01*
X133131924Y-157066750D01*
X133136190Y-157054728D01*
X133144314Y-157050501D01*
X133154545Y-157050000D01*
X133179090Y-157050000D01*
X133154545Y-157025454D01*
X133142336Y-157011302D01*
X133134995Y-156995384D01*
X133131312Y-156972365D01*
X133130078Y-156936915D01*
X133130025Y-156923333D01*
X133283333Y-156923333D01*
X133284706Y-156929278D01*
X133290000Y-156930000D01*
X133298231Y-156926341D01*
X133296666Y-156923333D01*
X133284799Y-156922136D01*
X133283333Y-156923333D01*
X133130025Y-156923333D01*
X133130000Y-156917197D01*
X133130589Y-156874914D01*
X133133112Y-156847449D01*
X133138704Y-156829638D01*
X133148496Y-156816317D01*
X133153144Y-156811743D01*
X133164859Y-156802343D01*
X133178912Y-156796109D01*
X133199412Y-156792403D01*
X133230471Y-156790587D01*
X133276198Y-156790021D01*
X133293144Y-156790000D01*
X133352271Y-156790697D01*
G36*
X133690000Y-157260000D02*
X133530000Y-157260000D01*
X133530000Y-156640000D01*
X133690000Y-156640000D01*
X133690000Y-157260000D01*
X133690000Y-157260000D01*
G37*
X133690000Y-157260000D02*
X133530000Y-157260000D01*
X133530000Y-156640000D01*
X133690000Y-156640000D01*
X133690000Y-157260000D01*
G36*
X133990370Y-156790661D02*
X134032909Y-156794093D01*
X134061226Y-156802471D01*
X134078206Y-156817966D01*
X134086734Y-156842753D01*
X134089694Y-156879005D01*
X134090000Y-156910000D01*
X134089722Y-156949681D01*
X134088054Y-156973442D01*
X134083744Y-156985362D01*
X134075541Y-156989520D01*
X134065454Y-156990000D01*
X134040909Y-156990000D01*
X134065454Y-157014545D01*
X134077283Y-157028116D01*
X134084566Y-157043267D01*
X134088385Y-157065043D01*
X134089826Y-157098491D01*
X134090000Y-157128819D01*
X134089634Y-157171938D01*
X134087770Y-157199877D01*
X134083259Y-157217456D01*
X134074951Y-157229491D01*
X134063651Y-157239274D01*
X134049394Y-157248622D01*
X134032183Y-157254689D01*
X134007579Y-157258154D01*
X133971148Y-157259695D01*
X133928196Y-157260000D01*
X133879694Y-157259709D01*
X133846836Y-157258305D01*
X133825269Y-157254987D01*
X133810641Y-157248957D01*
X133798598Y-157239415D01*
X133794545Y-157235454D01*
X133782110Y-157220950D01*
X133774739Y-157204556D01*
X133771145Y-157180766D01*
X133770039Y-157144072D01*
X133770000Y-157130454D01*
X133770089Y-157115000D01*
X133930000Y-157115000D01*
X133935000Y-157120000D01*
X133940000Y-157115000D01*
X133935000Y-157110000D01*
X133930000Y-157115000D01*
X133770089Y-157115000D01*
X133770230Y-157090647D01*
X133771810Y-157066768D01*
X133776074Y-157054748D01*
X133784355Y-157050515D01*
X133796363Y-157050000D01*
X133822727Y-157050000D01*
X133796363Y-157023636D01*
X133782832Y-157008211D01*
X133774915Y-156991736D01*
X133771140Y-156968413D01*
X133770033Y-156932447D01*
X133770014Y-156925000D01*
X133930000Y-156925000D01*
X133935000Y-156930000D01*
X133940000Y-156925000D01*
X133935000Y-156920000D01*
X133930000Y-156925000D01*
X133770014Y-156925000D01*
X133770000Y-156919984D01*
X133771058Y-156876995D01*
X133775002Y-156848154D01*
X133782987Y-156827686D01*
X133790725Y-156816348D01*
X133800258Y-156805201D01*
X133810653Y-156797746D01*
X133825855Y-156793240D01*
X133849807Y-156790942D01*
X133886450Y-156790109D01*
X133930725Y-156790000D01*
X133990370Y-156790661D01*
X133990370Y-156790661D01*
G37*
X133990370Y-156790661D02*
X134032909Y-156794093D01*
X134061226Y-156802471D01*
X134078206Y-156817966D01*
X134086734Y-156842753D01*
X134089694Y-156879005D01*
X134090000Y-156910000D01*
X134089722Y-156949681D01*
X134088054Y-156973442D01*
X134083744Y-156985362D01*
X134075541Y-156989520D01*
X134065454Y-156990000D01*
X134040909Y-156990000D01*
X134065454Y-157014545D01*
X134077283Y-157028116D01*
X134084566Y-157043267D01*
X134088385Y-157065043D01*
X134089826Y-157098491D01*
X134090000Y-157128819D01*
X134089634Y-157171938D01*
X134087770Y-157199877D01*
X134083259Y-157217456D01*
X134074951Y-157229491D01*
X134063651Y-157239274D01*
X134049394Y-157248622D01*
X134032183Y-157254689D01*
X134007579Y-157258154D01*
X133971148Y-157259695D01*
X133928196Y-157260000D01*
X133879694Y-157259709D01*
X133846836Y-157258305D01*
X133825269Y-157254987D01*
X133810641Y-157248957D01*
X133798598Y-157239415D01*
X133794545Y-157235454D01*
X133782110Y-157220950D01*
X133774739Y-157204556D01*
X133771145Y-157180766D01*
X133770039Y-157144072D01*
X133770000Y-157130454D01*
X133770089Y-157115000D01*
X133930000Y-157115000D01*
X133935000Y-157120000D01*
X133940000Y-157115000D01*
X133935000Y-157110000D01*
X133930000Y-157115000D01*
X133770089Y-157115000D01*
X133770230Y-157090647D01*
X133771810Y-157066768D01*
X133776074Y-157054748D01*
X133784355Y-157050515D01*
X133796363Y-157050000D01*
X133822727Y-157050000D01*
X133796363Y-157023636D01*
X133782832Y-157008211D01*
X133774915Y-156991736D01*
X133771140Y-156968413D01*
X133770033Y-156932447D01*
X133770014Y-156925000D01*
X133930000Y-156925000D01*
X133935000Y-156930000D01*
X133940000Y-156925000D01*
X133935000Y-156920000D01*
X133930000Y-156925000D01*
X133770014Y-156925000D01*
X133770000Y-156919984D01*
X133771058Y-156876995D01*
X133775002Y-156848154D01*
X133782987Y-156827686D01*
X133790725Y-156816348D01*
X133800258Y-156805201D01*
X133810653Y-156797746D01*
X133825855Y-156793240D01*
X133849807Y-156790942D01*
X133886450Y-156790109D01*
X133930725Y-156790000D01*
X133990370Y-156790661D01*
G36*
X134350000Y-156735000D02*
X134350503Y-156766442D01*
X134353805Y-156782808D01*
X134362589Y-156789019D01*
X134379541Y-156789999D01*
X134380000Y-156790000D01*
X134410000Y-156790000D01*
X134410000Y-156930000D01*
X134350000Y-156930000D01*
X134350000Y-157110000D01*
X134410000Y-157110000D01*
X134410000Y-157260000D01*
X134332500Y-157259366D01*
X134292017Y-157257907D01*
X134256909Y-157254644D01*
X134234046Y-157250245D01*
X134232354Y-157249634D01*
X134216414Y-157239761D01*
X134204868Y-157223007D01*
X134197090Y-157196553D01*
X134192453Y-157157585D01*
X134190329Y-157103285D01*
X134190000Y-157059349D01*
X134189828Y-157006431D01*
X134188985Y-156970318D01*
X134186977Y-156947814D01*
X134183308Y-156935724D01*
X134177486Y-156930852D01*
X134170000Y-156930000D01*
X134159489Y-156928111D01*
X134153468Y-156919594D01*
X134150714Y-156900173D01*
X134150005Y-156865571D01*
X134150000Y-156860000D01*
X134150539Y-156823212D01*
X134152972Y-156802138D01*
X134158521Y-156792499D01*
X134168408Y-156790019D01*
X134170000Y-156790000D01*
X134181557Y-156787612D01*
X134187579Y-156777291D01*
X134189786Y-156754295D01*
X134190000Y-156735000D01*
X134190000Y-156680000D01*
X134350000Y-156680000D01*
X134350000Y-156735000D01*
X134350000Y-156735000D01*
G37*
X134350000Y-156735000D02*
X134350503Y-156766442D01*
X134353805Y-156782808D01*
X134362589Y-156789019D01*
X134379541Y-156789999D01*
X134380000Y-156790000D01*
X134410000Y-156790000D01*
X134410000Y-156930000D01*
X134350000Y-156930000D01*
X134350000Y-157110000D01*
X134410000Y-157110000D01*
X134410000Y-157260000D01*
X134332500Y-157259366D01*
X134292017Y-157257907D01*
X134256909Y-157254644D01*
X134234046Y-157250245D01*
X134232354Y-157249634D01*
X134216414Y-157239761D01*
X134204868Y-157223007D01*
X134197090Y-157196553D01*
X134192453Y-157157585D01*
X134190329Y-157103285D01*
X134190000Y-157059349D01*
X134189828Y-157006431D01*
X134188985Y-156970318D01*
X134186977Y-156947814D01*
X134183308Y-156935724D01*
X134177486Y-156930852D01*
X134170000Y-156930000D01*
X134159489Y-156928111D01*
X134153468Y-156919594D01*
X134150714Y-156900173D01*
X134150005Y-156865571D01*
X134150000Y-156860000D01*
X134150539Y-156823212D01*
X134152972Y-156802138D01*
X134158521Y-156792499D01*
X134168408Y-156790019D01*
X134170000Y-156790000D01*
X134181557Y-156787612D01*
X134187579Y-156777291D01*
X134189786Y-156754295D01*
X134190000Y-156735000D01*
X134190000Y-156680000D01*
X134350000Y-156680000D01*
X134350000Y-156735000D01*
G36*
X134640000Y-157260000D02*
X134480000Y-157260000D01*
X134480000Y-156640000D01*
X134640000Y-156640000D01*
X134640000Y-157260000D01*
X134640000Y-157260000D01*
G37*
X134640000Y-157260000D02*
X134480000Y-157260000D01*
X134480000Y-156640000D01*
X134640000Y-156640000D01*
X134640000Y-157260000D01*
G36*
X134865001Y-156840009D02*
X134871239Y-156871551D01*
X134878218Y-156883210D01*
X134885459Y-156875064D01*
X134892483Y-156847194D01*
X134894458Y-156835122D01*
X134901225Y-156790000D01*
X134986286Y-156790000D01*
X135027539Y-156790397D01*
X135052393Y-156792112D01*
X135064440Y-156795931D01*
X135067273Y-156802639D01*
X135066307Y-156807500D01*
X135062382Y-156822180D01*
X135054340Y-156853043D01*
X135043008Y-156896888D01*
X135029211Y-156950519D01*
X135013776Y-157010737D01*
X135010127Y-157025000D01*
X134994429Y-157086269D01*
X134980170Y-157141677D01*
X134968180Y-157188026D01*
X134959286Y-157222117D01*
X134954316Y-157240752D01*
X134953820Y-157242500D01*
X134947686Y-157251957D01*
X134933347Y-157257330D01*
X134906405Y-157259646D01*
X134879012Y-157260000D01*
X134835127Y-157258181D01*
X134810599Y-157252689D01*
X134805006Y-157247500D01*
X134801386Y-157234410D01*
X134793763Y-157204964D01*
X134782913Y-157162226D01*
X134769611Y-157109259D01*
X134754635Y-157049127D01*
X134749895Y-157030000D01*
X134734485Y-156967915D01*
X134720452Y-156911699D01*
X134708591Y-156864512D01*
X134699698Y-156829514D01*
X134694568Y-156809865D01*
X134693901Y-156807500D01*
X134693264Y-156798978D01*
X134700010Y-156793762D01*
X134717726Y-156791062D01*
X134750004Y-156790087D01*
X134773387Y-156790000D01*
X134858123Y-156790000D01*
X134865001Y-156840009D01*
X134865001Y-156840009D01*
G37*
X134865001Y-156840009D02*
X134871239Y-156871551D01*
X134878218Y-156883210D01*
X134885459Y-156875064D01*
X134892483Y-156847194D01*
X134894458Y-156835122D01*
X134901225Y-156790000D01*
X134986286Y-156790000D01*
X135027539Y-156790397D01*
X135052393Y-156792112D01*
X135064440Y-156795931D01*
X135067273Y-156802639D01*
X135066307Y-156807500D01*
X135062382Y-156822180D01*
X135054340Y-156853043D01*
X135043008Y-156896888D01*
X135029211Y-156950519D01*
X135013776Y-157010737D01*
X135010127Y-157025000D01*
X134994429Y-157086269D01*
X134980170Y-157141677D01*
X134968180Y-157188026D01*
X134959286Y-157222117D01*
X134954316Y-157240752D01*
X134953820Y-157242500D01*
X134947686Y-157251957D01*
X134933347Y-157257330D01*
X134906405Y-157259646D01*
X134879012Y-157260000D01*
X134835127Y-157258181D01*
X134810599Y-157252689D01*
X134805006Y-157247500D01*
X134801386Y-157234410D01*
X134793763Y-157204964D01*
X134782913Y-157162226D01*
X134769611Y-157109259D01*
X134754635Y-157049127D01*
X134749895Y-157030000D01*
X134734485Y-156967915D01*
X134720452Y-156911699D01*
X134708591Y-156864512D01*
X134699698Y-156829514D01*
X134694568Y-156809865D01*
X134693901Y-156807500D01*
X134693264Y-156798978D01*
X134700010Y-156793762D01*
X134717726Y-156791062D01*
X134750004Y-156790087D01*
X134773387Y-156790000D01*
X134858123Y-156790000D01*
X134865001Y-156840009D01*
G36*
X135284274Y-156790000D02*
X135336061Y-156790150D01*
X135371685Y-156791065D01*
X135394980Y-156793443D01*
X135409782Y-156797979D01*
X135419927Y-156805372D01*
X135429250Y-156816318D01*
X135429274Y-156816348D01*
X135439192Y-156831754D01*
X135445393Y-156850569D01*
X135448693Y-156877651D01*
X135449912Y-156917855D01*
X135450000Y-156939348D01*
X135448666Y-156992093D01*
X135444799Y-157028686D01*
X135438595Y-157047332D01*
X135438000Y-157048000D01*
X135431289Y-157057864D01*
X135439058Y-157060000D01*
X135445690Y-157065006D01*
X135449021Y-157082062D01*
X135449414Y-157114224D01*
X135448498Y-157139703D01*
X135445795Y-157183247D01*
X135440253Y-157214154D01*
X135428820Y-157234709D01*
X135408447Y-157247194D01*
X135376082Y-157253895D01*
X135328675Y-157257093D01*
X135290044Y-157258328D01*
X135239374Y-157259565D01*
X135204612Y-157259511D01*
X135181680Y-157257547D01*
X135166498Y-157253049D01*
X135154986Y-157245397D01*
X135145374Y-157236283D01*
X135120000Y-157210909D01*
X135120000Y-157100000D01*
X135270000Y-157100000D01*
X135274187Y-157116249D01*
X135280000Y-157120000D01*
X135288124Y-157111624D01*
X135290000Y-157100000D01*
X135285812Y-157083750D01*
X135280000Y-157080000D01*
X135271875Y-157088375D01*
X135270000Y-157100000D01*
X135120000Y-157100000D01*
X135120000Y-157020454D01*
X135119929Y-156946812D01*
X135120124Y-156935000D01*
X135270000Y-156935000D01*
X135275399Y-156948307D01*
X135280000Y-156950000D01*
X135288871Y-156941900D01*
X135290000Y-156935000D01*
X135284600Y-156921692D01*
X135280000Y-156920000D01*
X135271128Y-156928099D01*
X135270000Y-156935000D01*
X135120124Y-156935000D01*
X135120855Y-156890764D01*
X135124484Y-156849915D01*
X135132522Y-156821873D01*
X135146676Y-156804243D01*
X135168652Y-156794631D01*
X135200156Y-156790643D01*
X135242895Y-156789887D01*
X135284274Y-156790000D01*
X135284274Y-156790000D01*
G37*
X135284274Y-156790000D02*
X135336061Y-156790150D01*
X135371685Y-156791065D01*
X135394980Y-156793443D01*
X135409782Y-156797979D01*
X135419927Y-156805372D01*
X135429250Y-156816318D01*
X135429274Y-156816348D01*
X135439192Y-156831754D01*
X135445393Y-156850569D01*
X135448693Y-156877651D01*
X135449912Y-156917855D01*
X135450000Y-156939348D01*
X135448666Y-156992093D01*
X135444799Y-157028686D01*
X135438595Y-157047332D01*
X135438000Y-157048000D01*
X135431289Y-157057864D01*
X135439058Y-157060000D01*
X135445690Y-157065006D01*
X135449021Y-157082062D01*
X135449414Y-157114224D01*
X135448498Y-157139703D01*
X135445795Y-157183247D01*
X135440253Y-157214154D01*
X135428820Y-157234709D01*
X135408447Y-157247194D01*
X135376082Y-157253895D01*
X135328675Y-157257093D01*
X135290044Y-157258328D01*
X135239374Y-157259565D01*
X135204612Y-157259511D01*
X135181680Y-157257547D01*
X135166498Y-157253049D01*
X135154986Y-157245397D01*
X135145374Y-157236283D01*
X135120000Y-157210909D01*
X135120000Y-157100000D01*
X135270000Y-157100000D01*
X135274187Y-157116249D01*
X135280000Y-157120000D01*
X135288124Y-157111624D01*
X135290000Y-157100000D01*
X135285812Y-157083750D01*
X135280000Y-157080000D01*
X135271875Y-157088375D01*
X135270000Y-157100000D01*
X135120000Y-157100000D01*
X135120000Y-157020454D01*
X135119929Y-156946812D01*
X135120124Y-156935000D01*
X135270000Y-156935000D01*
X135275399Y-156948307D01*
X135280000Y-156950000D01*
X135288871Y-156941900D01*
X135290000Y-156935000D01*
X135284600Y-156921692D01*
X135280000Y-156920000D01*
X135271128Y-156928099D01*
X135270000Y-156935000D01*
X135120124Y-156935000D01*
X135120855Y-156890764D01*
X135124484Y-156849915D01*
X135132522Y-156821873D01*
X135146676Y-156804243D01*
X135168652Y-156794631D01*
X135200156Y-156790643D01*
X135242895Y-156789887D01*
X135284274Y-156790000D01*
G36*
X136120000Y-156720000D02*
X136020000Y-156720000D01*
X136020000Y-157260000D01*
X135860000Y-157260000D01*
X135860000Y-156720000D01*
X135760000Y-156720000D01*
X135760000Y-156570000D01*
X136120000Y-156570000D01*
X136120000Y-156720000D01*
X136120000Y-156720000D01*
G37*
X136120000Y-156720000D02*
X136020000Y-156720000D01*
X136020000Y-157260000D01*
X135860000Y-157260000D01*
X135860000Y-156720000D01*
X135760000Y-156720000D01*
X135760000Y-156570000D01*
X136120000Y-156570000D01*
X136120000Y-156720000D01*
G36*
X136338892Y-156790000D02*
X136399722Y-156790559D01*
X136443482Y-156793844D01*
X136473097Y-156802260D01*
X136491495Y-156818213D01*
X136501602Y-156844111D01*
X136506344Y-156882361D01*
X136508447Y-156929435D01*
X136509142Y-156985573D01*
X136506683Y-157023196D01*
X136500975Y-157043556D01*
X136499723Y-157045333D01*
X136492570Y-157057139D01*
X136499834Y-157060000D01*
X136506155Y-157066158D01*
X136509172Y-157086295D01*
X136509154Y-157122905D01*
X136508498Y-157139703D01*
X136505759Y-157183489D01*
X136500125Y-157214489D01*
X136488524Y-157235029D01*
X136467883Y-157247437D01*
X136435132Y-157254041D01*
X136387199Y-157257168D01*
X136352015Y-157258283D01*
X136301069Y-157259410D01*
X136265863Y-157259061D01*
X136242158Y-157256703D01*
X136225717Y-157251803D01*
X136212301Y-157243825D01*
X136207345Y-157240058D01*
X136180000Y-157218548D01*
X136180000Y-157100000D01*
X136330000Y-157100000D01*
X136334187Y-157116249D01*
X136340000Y-157120000D01*
X136348124Y-157111624D01*
X136350000Y-157100000D01*
X136345812Y-157083750D01*
X136340000Y-157080000D01*
X136331875Y-157088375D01*
X136330000Y-157100000D01*
X136180000Y-157100000D01*
X136180000Y-157024274D01*
X136179941Y-156949952D01*
X136180177Y-156935000D01*
X136330000Y-156935000D01*
X136335399Y-156948307D01*
X136340000Y-156950000D01*
X136348871Y-156941900D01*
X136350000Y-156935000D01*
X136344600Y-156921692D01*
X136340000Y-156920000D01*
X136331128Y-156928099D01*
X136330000Y-156935000D01*
X136180177Y-156935000D01*
X136180838Y-156893245D01*
X136184303Y-156851777D01*
X136191946Y-156823173D01*
X136205378Y-156805058D01*
X136226210Y-156795056D01*
X136256052Y-156790793D01*
X136296516Y-156789893D01*
X136338892Y-156790000D01*
X136338892Y-156790000D01*
G37*
X136338892Y-156790000D02*
X136399722Y-156790559D01*
X136443482Y-156793844D01*
X136473097Y-156802260D01*
X136491495Y-156818213D01*
X136501602Y-156844111D01*
X136506344Y-156882361D01*
X136508447Y-156929435D01*
X136509142Y-156985573D01*
X136506683Y-157023196D01*
X136500975Y-157043556D01*
X136499723Y-157045333D01*
X136492570Y-157057139D01*
X136499834Y-157060000D01*
X136506155Y-157066158D01*
X136509172Y-157086295D01*
X136509154Y-157122905D01*
X136508498Y-157139703D01*
X136505759Y-157183489D01*
X136500125Y-157214489D01*
X136488524Y-157235029D01*
X136467883Y-157247437D01*
X136435132Y-157254041D01*
X136387199Y-157257168D01*
X136352015Y-157258283D01*
X136301069Y-157259410D01*
X136265863Y-157259061D01*
X136242158Y-157256703D01*
X136225717Y-157251803D01*
X136212301Y-157243825D01*
X136207345Y-157240058D01*
X136180000Y-157218548D01*
X136180000Y-157100000D01*
X136330000Y-157100000D01*
X136334187Y-157116249D01*
X136340000Y-157120000D01*
X136348124Y-157111624D01*
X136350000Y-157100000D01*
X136345812Y-157083750D01*
X136340000Y-157080000D01*
X136331875Y-157088375D01*
X136330000Y-157100000D01*
X136180000Y-157100000D01*
X136180000Y-157024274D01*
X136179941Y-156949952D01*
X136180177Y-156935000D01*
X136330000Y-156935000D01*
X136335399Y-156948307D01*
X136340000Y-156950000D01*
X136348871Y-156941900D01*
X136350000Y-156935000D01*
X136344600Y-156921692D01*
X136340000Y-156920000D01*
X136331128Y-156928099D01*
X136330000Y-156935000D01*
X136180177Y-156935000D01*
X136180838Y-156893245D01*
X136184303Y-156851777D01*
X136191946Y-156823173D01*
X136205378Y-156805058D01*
X136226210Y-156795056D01*
X136256052Y-156790793D01*
X136296516Y-156789893D01*
X136338892Y-156790000D01*
G36*
X136748892Y-156790000D02*
X136809307Y-156790624D01*
X136852707Y-156793946D01*
X136882068Y-156802140D01*
X136900368Y-156817381D01*
X136910583Y-156841843D01*
X136915691Y-156877700D01*
X136917966Y-156913479D01*
X136922508Y-157000000D01*
X136760000Y-157000000D01*
X136760000Y-156965000D01*
X136757488Y-156941866D01*
X136751312Y-156930302D01*
X136750000Y-156930000D01*
X136745208Y-156939440D01*
X136741790Y-156965571D01*
X136740110Y-157005112D01*
X136740000Y-157020000D01*
X136741048Y-157063124D01*
X136743952Y-157093886D01*
X136748345Y-157109003D01*
X136750000Y-157110000D01*
X136756609Y-157101209D01*
X136759913Y-157079593D01*
X136760000Y-157075000D01*
X136760000Y-157040000D01*
X136920000Y-157040000D01*
X136920000Y-157108507D01*
X136916945Y-157167786D01*
X136907326Y-157210030D01*
X136890459Y-157237323D01*
X136874031Y-157248621D01*
X136853624Y-157253450D01*
X136818844Y-157257261D01*
X136775314Y-157259556D01*
X136745878Y-157260000D01*
X136697413Y-157259486D01*
X136664310Y-157257453D01*
X136641945Y-157253161D01*
X136625693Y-157245869D01*
X136616348Y-157239274D01*
X136590000Y-157218548D01*
X136590000Y-157024274D01*
X136589941Y-156949952D01*
X136590838Y-156893245D01*
X136594303Y-156851777D01*
X136601946Y-156823173D01*
X136615378Y-156805058D01*
X136636210Y-156795056D01*
X136666052Y-156790793D01*
X136706516Y-156789893D01*
X136748892Y-156790000D01*
X136748892Y-156790000D01*
G37*
X136748892Y-156790000D02*
X136809307Y-156790624D01*
X136852707Y-156793946D01*
X136882068Y-156802140D01*
X136900368Y-156817381D01*
X136910583Y-156841843D01*
X136915691Y-156877700D01*
X136917966Y-156913479D01*
X136922508Y-157000000D01*
X136760000Y-157000000D01*
X136760000Y-156965000D01*
X136757488Y-156941866D01*
X136751312Y-156930302D01*
X136750000Y-156930000D01*
X136745208Y-156939440D01*
X136741790Y-156965571D01*
X136740110Y-157005112D01*
X136740000Y-157020000D01*
X136741048Y-157063124D01*
X136743952Y-157093886D01*
X136748345Y-157109003D01*
X136750000Y-157110000D01*
X136756609Y-157101209D01*
X136759913Y-157079593D01*
X136760000Y-157075000D01*
X136760000Y-157040000D01*
X136920000Y-157040000D01*
X136920000Y-157108507D01*
X136916945Y-157167786D01*
X136907326Y-157210030D01*
X136890459Y-157237323D01*
X136874031Y-157248621D01*
X136853624Y-157253450D01*
X136818844Y-157257261D01*
X136775314Y-157259556D01*
X136745878Y-157260000D01*
X136697413Y-157259486D01*
X136664310Y-157257453D01*
X136641945Y-157253161D01*
X136625693Y-157245869D01*
X136616348Y-157239274D01*
X136590000Y-157218548D01*
X136590000Y-157024274D01*
X136589941Y-156949952D01*
X136590838Y-156893245D01*
X136594303Y-156851777D01*
X136601946Y-156823173D01*
X136615378Y-156805058D01*
X136636210Y-156795056D01*
X136666052Y-156790793D01*
X136706516Y-156789893D01*
X136748892Y-156790000D01*
G36*
X137149954Y-156795000D02*
X137219187Y-156791710D01*
X137257731Y-156790775D01*
X137282274Y-156793245D01*
X137298687Y-156800261D01*
X137309210Y-156809210D01*
X137316075Y-156817042D01*
X137321238Y-156826772D01*
X137324939Y-156841141D01*
X137327422Y-156862889D01*
X137328927Y-156894757D01*
X137329696Y-156939487D01*
X137329971Y-156999820D01*
X137330000Y-157045000D01*
X137330000Y-157260000D01*
X137170000Y-157260000D01*
X137170000Y-157095000D01*
X137169409Y-157029958D01*
X137167699Y-156979925D01*
X137164960Y-156946407D01*
X137161284Y-156930910D01*
X137160000Y-156930000D01*
X137156058Y-156939740D01*
X137153025Y-156967958D01*
X137150994Y-157013146D01*
X137150055Y-157073800D01*
X137150000Y-157095000D01*
X137150000Y-157260000D01*
X136990000Y-157260000D01*
X136990000Y-156570000D01*
X137150000Y-156570000D01*
X137149954Y-156795000D01*
X137149954Y-156795000D01*
G37*
X137149954Y-156795000D02*
X137219187Y-156791710D01*
X137257731Y-156790775D01*
X137282274Y-156793245D01*
X137298687Y-156800261D01*
X137309210Y-156809210D01*
X137316075Y-156817042D01*
X137321238Y-156826772D01*
X137324939Y-156841141D01*
X137327422Y-156862889D01*
X137328927Y-156894757D01*
X137329696Y-156939487D01*
X137329971Y-156999820D01*
X137330000Y-157045000D01*
X137330000Y-157260000D01*
X137170000Y-157260000D01*
X137170000Y-157095000D01*
X137169409Y-157029958D01*
X137167699Y-156979925D01*
X137164960Y-156946407D01*
X137161284Y-156930910D01*
X137160000Y-156930000D01*
X137156058Y-156939740D01*
X137153025Y-156967958D01*
X137150994Y-157013146D01*
X137150055Y-157073800D01*
X137150000Y-157095000D01*
X137150000Y-157260000D01*
X136990000Y-157260000D01*
X136990000Y-156570000D01*
X137150000Y-156570000D01*
X137149954Y-156795000D01*
G36*
X137559578Y-156790604D02*
X137617255Y-156790477D01*
X137661970Y-156791448D01*
X137695366Y-156795766D01*
X137719086Y-156805683D01*
X137734773Y-156823446D01*
X137744069Y-156851307D01*
X137748618Y-156891514D01*
X137750064Y-156946317D01*
X137750047Y-157017966D01*
X137750000Y-157051348D01*
X137750000Y-157260000D01*
X137590000Y-157260000D01*
X137590000Y-157095000D01*
X137589409Y-157029958D01*
X137587699Y-156979925D01*
X137584960Y-156946407D01*
X137581284Y-156930910D01*
X137580000Y-156930000D01*
X137576058Y-156939740D01*
X137573025Y-156967958D01*
X137570994Y-157013146D01*
X137570055Y-157073800D01*
X137570000Y-157095000D01*
X137570000Y-157260000D01*
X137410000Y-157260000D01*
X137410000Y-156790434D01*
X137559578Y-156790604D01*
X137559578Y-156790604D01*
G37*
X137559578Y-156790604D02*
X137617255Y-156790477D01*
X137661970Y-156791448D01*
X137695366Y-156795766D01*
X137719086Y-156805683D01*
X137734773Y-156823446D01*
X137744069Y-156851307D01*
X137748618Y-156891514D01*
X137750064Y-156946317D01*
X137750047Y-157017966D01*
X137750000Y-157051348D01*
X137750000Y-157260000D01*
X137590000Y-157260000D01*
X137590000Y-157095000D01*
X137589409Y-157029958D01*
X137587699Y-156979925D01*
X137584960Y-156946407D01*
X137581284Y-156930910D01*
X137580000Y-156930000D01*
X137576058Y-156939740D01*
X137573025Y-156967958D01*
X137570994Y-157013146D01*
X137570055Y-157073800D01*
X137570000Y-157095000D01*
X137570000Y-157260000D01*
X137410000Y-157260000D01*
X137410000Y-156790434D01*
X137559578Y-156790604D01*
G36*
X137994610Y-156790000D02*
X138047259Y-156789947D01*
X138087378Y-156791378D01*
X138116664Y-156796681D01*
X138136817Y-156808242D01*
X138149534Y-156828445D01*
X138156515Y-156859679D01*
X138159457Y-156904328D01*
X138160061Y-156964779D01*
X138160000Y-157022340D01*
X138159930Y-157088103D01*
X138159490Y-157136876D01*
X138158332Y-157171670D01*
X138156111Y-157195494D01*
X138152479Y-157211359D01*
X138147089Y-157222276D01*
X138139596Y-157231254D01*
X138135454Y-157235454D01*
X138123612Y-157246090D01*
X138110661Y-157253112D01*
X138092386Y-157257266D01*
X138064572Y-157259298D01*
X138023007Y-157259954D01*
X137996803Y-157260000D01*
X137945905Y-157259593D01*
X137910705Y-157257951D01*
X137886908Y-157254439D01*
X137870221Y-157248425D01*
X137856349Y-157239274D01*
X137856348Y-157239274D01*
X137830000Y-157218548D01*
X137830000Y-157024274D01*
X137829996Y-157020000D01*
X137980000Y-157020000D01*
X137981048Y-157063124D01*
X137983952Y-157093886D01*
X137988345Y-157109003D01*
X137990000Y-157110000D01*
X137994791Y-157100559D01*
X137998209Y-157074428D01*
X137999889Y-157034887D01*
X138000000Y-157020000D01*
X137998951Y-156976875D01*
X137996047Y-156946113D01*
X137991654Y-156930996D01*
X137990000Y-156930000D01*
X137985208Y-156939440D01*
X137981790Y-156965571D01*
X137980110Y-157005112D01*
X137980000Y-157020000D01*
X137829996Y-157020000D01*
X137829917Y-156949942D01*
X137830783Y-156893223D01*
X137834263Y-156851744D01*
X137842027Y-156823131D01*
X137855741Y-156805012D01*
X137877075Y-156795011D01*
X137907694Y-156790755D01*
X137949268Y-156789872D01*
X137994610Y-156790000D01*
X137994610Y-156790000D01*
G37*
X137994610Y-156790000D02*
X138047259Y-156789947D01*
X138087378Y-156791378D01*
X138116664Y-156796681D01*
X138136817Y-156808242D01*
X138149534Y-156828445D01*
X138156515Y-156859679D01*
X138159457Y-156904328D01*
X138160061Y-156964779D01*
X138160000Y-157022340D01*
X138159930Y-157088103D01*
X138159490Y-157136876D01*
X138158332Y-157171670D01*
X138156111Y-157195494D01*
X138152479Y-157211359D01*
X138147089Y-157222276D01*
X138139596Y-157231254D01*
X138135454Y-157235454D01*
X138123612Y-157246090D01*
X138110661Y-157253112D01*
X138092386Y-157257266D01*
X138064572Y-157259298D01*
X138023007Y-157259954D01*
X137996803Y-157260000D01*
X137945905Y-157259593D01*
X137910705Y-157257951D01*
X137886908Y-157254439D01*
X137870221Y-157248425D01*
X137856349Y-157239274D01*
X137856348Y-157239274D01*
X137830000Y-157218548D01*
X137830000Y-157024274D01*
X137829996Y-157020000D01*
X137980000Y-157020000D01*
X137981048Y-157063124D01*
X137983952Y-157093886D01*
X137988345Y-157109003D01*
X137990000Y-157110000D01*
X137994791Y-157100559D01*
X137998209Y-157074428D01*
X137999889Y-157034887D01*
X138000000Y-157020000D01*
X137998951Y-156976875D01*
X137996047Y-156946113D01*
X137991654Y-156930996D01*
X137990000Y-156930000D01*
X137985208Y-156939440D01*
X137981790Y-156965571D01*
X137980110Y-157005112D01*
X137980000Y-157020000D01*
X137829996Y-157020000D01*
X137829917Y-156949942D01*
X137830783Y-156893223D01*
X137834263Y-156851744D01*
X137842027Y-156823131D01*
X137855741Y-156805012D01*
X137877075Y-156795011D01*
X137907694Y-156790755D01*
X137949268Y-156789872D01*
X137994610Y-156790000D01*
G36*
X138400000Y-157260000D02*
X138240000Y-157260000D01*
X138240000Y-156570000D01*
X138400000Y-156570000D01*
X138400000Y-157260000D01*
X138400000Y-157260000D01*
G37*
X138400000Y-157260000D02*
X138240000Y-157260000D01*
X138240000Y-156570000D01*
X138400000Y-156570000D01*
X138400000Y-157260000D01*
G36*
X138644617Y-156790000D02*
X138701416Y-156790053D01*
X138743924Y-156791899D01*
X138774270Y-156798070D01*
X138794580Y-156811095D01*
X138806981Y-156833504D01*
X138813600Y-156867829D01*
X138816563Y-156916599D01*
X138817998Y-156982346D01*
X138818266Y-156996594D01*
X138819034Y-157074416D01*
X138817672Y-157134640D01*
X138813775Y-157179592D01*
X138806934Y-157211602D01*
X138796742Y-157232995D01*
X138782791Y-157246100D01*
X138773812Y-157250451D01*
X138751184Y-157254867D01*
X138714503Y-157257720D01*
X138669512Y-157259030D01*
X138621958Y-157258814D01*
X138577583Y-157257091D01*
X138542133Y-157253880D01*
X138522354Y-157249634D01*
X138508124Y-157241321D01*
X138497398Y-157227634D01*
X138489711Y-157206004D01*
X138484596Y-157173861D01*
X138481590Y-157128635D01*
X138480226Y-157067758D01*
X138480019Y-157020000D01*
X138640000Y-157020000D01*
X138641048Y-157063124D01*
X138643952Y-157093886D01*
X138648345Y-157109003D01*
X138650000Y-157110000D01*
X138654791Y-157100559D01*
X138658209Y-157074428D01*
X138659889Y-157034887D01*
X138660000Y-157020000D01*
X138658951Y-156976875D01*
X138656047Y-156946113D01*
X138651654Y-156930996D01*
X138650000Y-156930000D01*
X138645208Y-156939440D01*
X138641790Y-156965571D01*
X138640110Y-157005112D01*
X138640000Y-157020000D01*
X138480019Y-157020000D01*
X138480000Y-157015697D01*
X138480092Y-156942980D01*
X138481549Y-156887831D01*
X138486141Y-156847825D01*
X138495638Y-156820534D01*
X138511811Y-156803530D01*
X138536429Y-156794388D01*
X138571262Y-156790681D01*
X138618081Y-156789980D01*
X138644617Y-156790000D01*
X138644617Y-156790000D01*
G37*
X138644617Y-156790000D02*
X138701416Y-156790053D01*
X138743924Y-156791899D01*
X138774270Y-156798070D01*
X138794580Y-156811095D01*
X138806981Y-156833504D01*
X138813600Y-156867829D01*
X138816563Y-156916599D01*
X138817998Y-156982346D01*
X138818266Y-156996594D01*
X138819034Y-157074416D01*
X138817672Y-157134640D01*
X138813775Y-157179592D01*
X138806934Y-157211602D01*
X138796742Y-157232995D01*
X138782791Y-157246100D01*
X138773812Y-157250451D01*
X138751184Y-157254867D01*
X138714503Y-157257720D01*
X138669512Y-157259030D01*
X138621958Y-157258814D01*
X138577583Y-157257091D01*
X138542133Y-157253880D01*
X138522354Y-157249634D01*
X138508124Y-157241321D01*
X138497398Y-157227634D01*
X138489711Y-157206004D01*
X138484596Y-157173861D01*
X138481590Y-157128635D01*
X138480226Y-157067758D01*
X138480019Y-157020000D01*
X138640000Y-157020000D01*
X138641048Y-157063124D01*
X138643952Y-157093886D01*
X138648345Y-157109003D01*
X138650000Y-157110000D01*
X138654791Y-157100559D01*
X138658209Y-157074428D01*
X138659889Y-157034887D01*
X138660000Y-157020000D01*
X138658951Y-156976875D01*
X138656047Y-156946113D01*
X138651654Y-156930996D01*
X138650000Y-156930000D01*
X138645208Y-156939440D01*
X138641790Y-156965571D01*
X138640110Y-157005112D01*
X138640000Y-157020000D01*
X138480019Y-157020000D01*
X138480000Y-157015697D01*
X138480092Y-156942980D01*
X138481549Y-156887831D01*
X138486141Y-156847825D01*
X138495638Y-156820534D01*
X138511811Y-156803530D01*
X138536429Y-156794388D01*
X138571262Y-156790681D01*
X138618081Y-156789980D01*
X138644617Y-156790000D01*
G36*
X140210653Y-156570096D02*
X140250512Y-156570757D01*
X140277327Y-156572536D01*
X140294577Y-156575990D01*
X140305740Y-156581674D01*
X140314296Y-156590144D01*
X140319274Y-156596348D01*
X140328641Y-156610641D01*
X140334713Y-156627904D01*
X140338173Y-156652585D01*
X140339704Y-156689136D01*
X140340000Y-156731348D01*
X140340000Y-156840000D01*
X140180000Y-156840000D01*
X140180000Y-156775000D01*
X140179561Y-156740058D01*
X140177087Y-156720596D01*
X140170841Y-156712096D01*
X140159083Y-156710037D01*
X140155000Y-156710000D01*
X140130000Y-156710000D01*
X140130000Y-157110000D01*
X140155000Y-157110000D01*
X140168438Y-157108860D01*
X140175924Y-157102428D01*
X140179193Y-157086186D01*
X140179985Y-157055616D01*
X140180000Y-157045000D01*
X140180000Y-156980000D01*
X140340000Y-156980000D01*
X140340000Y-157093892D01*
X140339670Y-157151237D01*
X140336854Y-157193015D01*
X140328807Y-157221775D01*
X140312789Y-157240064D01*
X140286054Y-157250432D01*
X140245862Y-157255428D01*
X140189469Y-157257600D01*
X140163165Y-157258216D01*
X140107385Y-157259300D01*
X140067830Y-157259254D01*
X140040739Y-157257664D01*
X140022352Y-157254118D01*
X140008906Y-157248202D01*
X139997259Y-157239990D01*
X139970000Y-157218548D01*
X139970000Y-156914274D01*
X139970054Y-156828108D01*
X139970310Y-156759708D01*
X139970905Y-156706840D01*
X139971976Y-156667270D01*
X139973662Y-156638764D01*
X139976100Y-156619088D01*
X139979428Y-156606008D01*
X139983784Y-156597290D01*
X139989305Y-156590700D01*
X139990000Y-156590000D01*
X139999563Y-156582097D01*
X140012094Y-156576587D01*
X140031072Y-156573047D01*
X140059978Y-156571051D01*
X140102291Y-156570177D01*
X140154274Y-156570000D01*
X140210653Y-156570096D01*
X140210653Y-156570096D01*
G37*
X140210653Y-156570096D02*
X140250512Y-156570757D01*
X140277327Y-156572536D01*
X140294577Y-156575990D01*
X140305740Y-156581674D01*
X140314296Y-156590144D01*
X140319274Y-156596348D01*
X140328641Y-156610641D01*
X140334713Y-156627904D01*
X140338173Y-156652585D01*
X140339704Y-156689136D01*
X140340000Y-156731348D01*
X140340000Y-156840000D01*
X140180000Y-156840000D01*
X140180000Y-156775000D01*
X140179561Y-156740058D01*
X140177087Y-156720596D01*
X140170841Y-156712096D01*
X140159083Y-156710037D01*
X140155000Y-156710000D01*
X140130000Y-156710000D01*
X140130000Y-157110000D01*
X140155000Y-157110000D01*
X140168438Y-157108860D01*
X140175924Y-157102428D01*
X140179193Y-157086186D01*
X140179985Y-157055616D01*
X140180000Y-157045000D01*
X140180000Y-156980000D01*
X140340000Y-156980000D01*
X140340000Y-157093892D01*
X140339670Y-157151237D01*
X140336854Y-157193015D01*
X140328807Y-157221775D01*
X140312789Y-157240064D01*
X140286054Y-157250432D01*
X140245862Y-157255428D01*
X140189469Y-157257600D01*
X140163165Y-157258216D01*
X140107385Y-157259300D01*
X140067830Y-157259254D01*
X140040739Y-157257664D01*
X140022352Y-157254118D01*
X140008906Y-157248202D01*
X139997259Y-157239990D01*
X139970000Y-157218548D01*
X139970000Y-156914274D01*
X139970054Y-156828108D01*
X139970310Y-156759708D01*
X139970905Y-156706840D01*
X139971976Y-156667270D01*
X139973662Y-156638764D01*
X139976100Y-156619088D01*
X139979428Y-156606008D01*
X139983784Y-156597290D01*
X139989305Y-156590700D01*
X139990000Y-156590000D01*
X139999563Y-156582097D01*
X140012094Y-156576587D01*
X140031072Y-156573047D01*
X140059978Y-156571051D01*
X140102291Y-156570177D01*
X140154274Y-156570000D01*
X140210653Y-156570096D01*
G36*
X140682094Y-156791092D02*
X140711294Y-156796008D01*
X140731472Y-156806991D01*
X140744284Y-156826408D01*
X140751387Y-156856626D01*
X140754437Y-156900010D01*
X140755091Y-156958927D01*
X140755000Y-157025692D01*
X140755092Y-157098998D01*
X140754299Y-157154747D01*
X140751019Y-157195370D01*
X140743645Y-157223297D01*
X140730575Y-157240959D01*
X140710205Y-157250786D01*
X140680931Y-157255209D01*
X140641149Y-157256658D01*
X140602170Y-157257281D01*
X140553632Y-157257398D01*
X140510678Y-157255987D01*
X140478287Y-157253305D01*
X140462354Y-157250049D01*
X140447652Y-157241235D01*
X140436654Y-157227121D01*
X140428934Y-157205162D01*
X140424064Y-157172812D01*
X140421617Y-157127524D01*
X140421166Y-157066751D01*
X140421752Y-157020000D01*
X140580000Y-157020000D01*
X140581048Y-157063124D01*
X140583952Y-157093886D01*
X140588345Y-157109003D01*
X140590000Y-157110000D01*
X140594791Y-157100559D01*
X140598209Y-157074428D01*
X140599889Y-157034887D01*
X140600000Y-157020000D01*
X140598951Y-156976875D01*
X140596047Y-156946113D01*
X140591654Y-156930996D01*
X140590000Y-156930000D01*
X140585208Y-156939440D01*
X140581790Y-156965571D01*
X140580110Y-157005112D01*
X140580000Y-157020000D01*
X140421752Y-157020000D01*
X140421893Y-157008776D01*
X140423115Y-156937301D01*
X140425189Y-156883343D01*
X140430002Y-156844447D01*
X140439442Y-156818157D01*
X140455396Y-156802016D01*
X140479749Y-156793570D01*
X140514391Y-156790362D01*
X140561206Y-156789936D01*
X140590000Y-156790000D01*
X140642215Y-156789878D01*
X140682094Y-156791092D01*
X140682094Y-156791092D01*
G37*
X140682094Y-156791092D02*
X140711294Y-156796008D01*
X140731472Y-156806991D01*
X140744284Y-156826408D01*
X140751387Y-156856626D01*
X140754437Y-156900010D01*
X140755091Y-156958927D01*
X140755000Y-157025692D01*
X140755092Y-157098998D01*
X140754299Y-157154747D01*
X140751019Y-157195370D01*
X140743645Y-157223297D01*
X140730575Y-157240959D01*
X140710205Y-157250786D01*
X140680931Y-157255209D01*
X140641149Y-157256658D01*
X140602170Y-157257281D01*
X140553632Y-157257398D01*
X140510678Y-157255987D01*
X140478287Y-157253305D01*
X140462354Y-157250049D01*
X140447652Y-157241235D01*
X140436654Y-157227121D01*
X140428934Y-157205162D01*
X140424064Y-157172812D01*
X140421617Y-157127524D01*
X140421166Y-157066751D01*
X140421752Y-157020000D01*
X140580000Y-157020000D01*
X140581048Y-157063124D01*
X140583952Y-157093886D01*
X140588345Y-157109003D01*
X140590000Y-157110000D01*
X140594791Y-157100559D01*
X140598209Y-157074428D01*
X140599889Y-157034887D01*
X140600000Y-157020000D01*
X140598951Y-156976875D01*
X140596047Y-156946113D01*
X140591654Y-156930996D01*
X140590000Y-156930000D01*
X140585208Y-156939440D01*
X140581790Y-156965571D01*
X140580110Y-157005112D01*
X140580000Y-157020000D01*
X140421752Y-157020000D01*
X140421893Y-157008776D01*
X140423115Y-156937301D01*
X140425189Y-156883343D01*
X140430002Y-156844447D01*
X140439442Y-156818157D01*
X140455396Y-156802016D01*
X140479749Y-156793570D01*
X140514391Y-156790362D01*
X140561206Y-156789936D01*
X140590000Y-156790000D01*
X140642215Y-156789878D01*
X140682094Y-156791092D01*
G36*
X140990000Y-157260000D02*
X140830000Y-157260000D01*
X140830000Y-157090000D01*
X140990000Y-157090000D01*
X140990000Y-157260000D01*
X140990000Y-157260000D01*
G37*
X140990000Y-157260000D02*
X140830000Y-157260000D01*
X140830000Y-157090000D01*
X140990000Y-157090000D01*
X140990000Y-157260000D01*
G36*
X141720000Y-157110000D02*
X141870000Y-157110000D01*
X141870000Y-157260000D01*
X141560000Y-157260000D01*
X141560000Y-156570000D01*
X141720000Y-156570000D01*
X141720000Y-157110000D01*
X141720000Y-157110000D01*
G37*
X141720000Y-157110000D02*
X141870000Y-157110000D01*
X141870000Y-157260000D01*
X141560000Y-157260000D01*
X141560000Y-156570000D01*
X141720000Y-156570000D01*
X141720000Y-157110000D01*
G36*
X142110000Y-156735000D02*
X142110503Y-156766442D01*
X142113805Y-156782808D01*
X142122589Y-156789019D01*
X142139541Y-156789999D01*
X142140000Y-156790000D01*
X142170000Y-156790000D01*
X142170000Y-156930000D01*
X142110000Y-156930000D01*
X142110000Y-157110000D01*
X142180000Y-157110000D01*
X142180000Y-157260000D01*
X142097500Y-157259695D01*
X142056408Y-157258216D01*
X142021179Y-157254564D01*
X141998101Y-157249453D01*
X141995000Y-157248050D01*
X141975795Y-157234396D01*
X141967653Y-157225854D01*
X141965003Y-157212389D01*
X141962755Y-157182840D01*
X141961102Y-157141124D01*
X141960235Y-157091154D01*
X141960153Y-157072500D01*
X141960000Y-156930000D01*
X141935000Y-156930000D01*
X141921938Y-156928970D01*
X141914463Y-156922977D01*
X141911018Y-156907661D01*
X141910045Y-156878665D01*
X141910000Y-156860000D01*
X141910367Y-156823428D01*
X141912508Y-156802498D01*
X141917978Y-156792850D01*
X141928333Y-156790127D01*
X141935000Y-156790000D01*
X141949318Y-156788572D01*
X141956773Y-156781026D01*
X141959590Y-156762468D01*
X141960000Y-156735000D01*
X141960000Y-156680000D01*
X142110000Y-156680000D01*
X142110000Y-156735000D01*
X142110000Y-156735000D01*
G37*
X142110000Y-156735000D02*
X142110503Y-156766442D01*
X142113805Y-156782808D01*
X142122589Y-156789019D01*
X142139541Y-156789999D01*
X142140000Y-156790000D01*
X142170000Y-156790000D01*
X142170000Y-156930000D01*
X142110000Y-156930000D01*
X142110000Y-157110000D01*
X142180000Y-157110000D01*
X142180000Y-157260000D01*
X142097500Y-157259695D01*
X142056408Y-157258216D01*
X142021179Y-157254564D01*
X141998101Y-157249453D01*
X141995000Y-157248050D01*
X141975795Y-157234396D01*
X141967653Y-157225854D01*
X141965003Y-157212389D01*
X141962755Y-157182840D01*
X141961102Y-157141124D01*
X141960235Y-157091154D01*
X141960153Y-157072500D01*
X141960000Y-156930000D01*
X141935000Y-156930000D01*
X141921938Y-156928970D01*
X141914463Y-156922977D01*
X141911018Y-156907661D01*
X141910045Y-156878665D01*
X141910000Y-156860000D01*
X141910367Y-156823428D01*
X141912508Y-156802498D01*
X141917978Y-156792850D01*
X141928333Y-156790127D01*
X141935000Y-156790000D01*
X141949318Y-156788572D01*
X141956773Y-156781026D01*
X141959590Y-156762468D01*
X141960000Y-156735000D01*
X141960000Y-156680000D01*
X142110000Y-156680000D01*
X142110000Y-156735000D01*
G36*
X142580000Y-157259616D02*
X142439663Y-157259038D01*
X142383615Y-157258611D01*
X142343841Y-157257514D01*
X142316611Y-157255214D01*
X142298201Y-157251179D01*
X142284883Y-157244877D01*
X142272930Y-157235776D01*
X142272163Y-157235119D01*
X142245000Y-157211777D01*
X142241810Y-157044624D01*
X142241596Y-157025590D01*
X142400000Y-157025590D01*
X142400970Y-157073049D01*
X142403793Y-157103315D01*
X142408335Y-157115192D01*
X142410000Y-157115000D01*
X142414447Y-157102861D01*
X142417878Y-157075627D01*
X142419779Y-157038192D01*
X142420000Y-157019409D01*
X142418944Y-156976487D01*
X142416025Y-156945895D01*
X142411612Y-156930942D01*
X142410000Y-156930000D01*
X142405291Y-156939479D01*
X142401907Y-156965885D01*
X142400165Y-157006171D01*
X142400000Y-157025590D01*
X142241596Y-157025590D01*
X142240997Y-156972483D01*
X142242056Y-156917506D01*
X142245558Y-156876898D01*
X142252074Y-156847865D01*
X142262175Y-156827613D01*
X142276434Y-156813349D01*
X142290911Y-156804528D01*
X142317949Y-156795808D01*
X142353677Y-156790624D01*
X142369503Y-156790000D01*
X142420000Y-156790000D01*
X142420000Y-156570000D01*
X142580000Y-156570000D01*
X142580000Y-157259616D01*
X142580000Y-157259616D01*
G37*
X142580000Y-157259616D02*
X142439663Y-157259038D01*
X142383615Y-157258611D01*
X142343841Y-157257514D01*
X142316611Y-157255214D01*
X142298201Y-157251179D01*
X142284883Y-157244877D01*
X142272930Y-157235776D01*
X142272163Y-157235119D01*
X142245000Y-157211777D01*
X142241810Y-157044624D01*
X142241596Y-157025590D01*
X142400000Y-157025590D01*
X142400970Y-157073049D01*
X142403793Y-157103315D01*
X142408335Y-157115192D01*
X142410000Y-157115000D01*
X142414447Y-157102861D01*
X142417878Y-157075627D01*
X142419779Y-157038192D01*
X142420000Y-157019409D01*
X142418944Y-156976487D01*
X142416025Y-156945895D01*
X142411612Y-156930942D01*
X142410000Y-156930000D01*
X142405291Y-156939479D01*
X142401907Y-156965885D01*
X142400165Y-157006171D01*
X142400000Y-157025590D01*
X142241596Y-157025590D01*
X142240997Y-156972483D01*
X142242056Y-156917506D01*
X142245558Y-156876898D01*
X142252074Y-156847865D01*
X142262175Y-156827613D01*
X142276434Y-156813349D01*
X142290911Y-156804528D01*
X142317949Y-156795808D01*
X142353677Y-156790624D01*
X142369503Y-156790000D01*
X142420000Y-156790000D01*
X142420000Y-156570000D01*
X142580000Y-156570000D01*
X142580000Y-157259616D01*
G36*
X142810000Y-157260000D02*
X142650000Y-157260000D01*
X142650000Y-157090000D01*
X142810000Y-157090000D01*
X142810000Y-157260000D01*
X142810000Y-157260000D01*
G37*
X142810000Y-157260000D02*
X142650000Y-157260000D01*
X142650000Y-157090000D01*
X142810000Y-157090000D01*
X142810000Y-157260000D01*
G36*
X142730000Y-156140000D02*
X132150000Y-156140000D01*
X132150000Y-156010000D01*
X142730000Y-156010000D01*
X142730000Y-156140000D01*
X142730000Y-156140000D01*
G37*
X142730000Y-156140000D02*
X132150000Y-156140000D01*
X132150000Y-156010000D01*
X142730000Y-156010000D01*
X142730000Y-156140000D01*
G36*
X132640000Y-155660000D02*
X132390000Y-155660000D01*
X132390000Y-154030000D01*
X132640000Y-154030000D01*
X132640000Y-155660000D01*
X132640000Y-155660000D01*
G37*
X132640000Y-155660000D02*
X132390000Y-155660000D01*
X132390000Y-154030000D01*
X132640000Y-154030000D01*
X132640000Y-155660000D01*
G36*
X133537344Y-154157500D02*
X133553078Y-154197941D01*
X133574747Y-154253736D01*
X133601071Y-154321586D01*
X133630770Y-154398190D01*
X133662567Y-154480250D01*
X133695180Y-154564466D01*
X133716016Y-154618295D01*
X133845000Y-154951591D01*
X133847599Y-154490795D01*
X133850199Y-154030000D01*
X134100000Y-154030000D01*
X134100000Y-155660000D01*
X133872594Y-155660000D01*
X133787804Y-155437500D01*
X133758488Y-155360545D01*
X133724528Y-155271355D01*
X133688382Y-155176387D01*
X133652509Y-155082104D01*
X133619367Y-154994964D01*
X133609006Y-154967713D01*
X133515000Y-154720426D01*
X133509804Y-155660000D01*
X133260000Y-155660000D01*
X133260000Y-154030000D01*
X133487655Y-154030000D01*
X133537344Y-154157500D01*
X133537344Y-154157500D01*
G37*
X133537344Y-154157500D02*
X133553078Y-154197941D01*
X133574747Y-154253736D01*
X133601071Y-154321586D01*
X133630770Y-154398190D01*
X133662567Y-154480250D01*
X133695180Y-154564466D01*
X133716016Y-154618295D01*
X133845000Y-154951591D01*
X133847599Y-154490795D01*
X133850199Y-154030000D01*
X134100000Y-154030000D01*
X134100000Y-155660000D01*
X133872594Y-155660000D01*
X133787804Y-155437500D01*
X133758488Y-155360545D01*
X133724528Y-155271355D01*
X133688382Y-155176387D01*
X133652509Y-155082104D01*
X133619367Y-154994964D01*
X133609006Y-154967713D01*
X133515000Y-154720426D01*
X133509804Y-155660000D01*
X133260000Y-155660000D01*
X133260000Y-154030000D01*
X133487655Y-154030000D01*
X133537344Y-154157500D01*
G36*
X135219889Y-154029041D02*
X135289355Y-154030667D01*
X135351237Y-154033117D01*
X135402474Y-154036390D01*
X135440002Y-154040486D01*
X135460758Y-154045405D01*
X135461284Y-154045664D01*
X135479583Y-154057107D01*
X135493695Y-154071864D01*
X135504145Y-154092483D01*
X135511461Y-154121515D01*
X135516171Y-154161509D01*
X135518801Y-154215014D01*
X135519878Y-154284581D01*
X135520000Y-154329678D01*
X135520000Y-154530000D01*
X135260000Y-154530000D01*
X135260000Y-154240000D01*
X134960000Y-154240000D01*
X134960000Y-155450000D01*
X135260000Y-155450000D01*
X135260000Y-154990000D01*
X135080000Y-154990000D01*
X135080000Y-154780000D01*
X135520000Y-154780000D01*
X135520000Y-155170321D01*
X135519915Y-155276199D01*
X135519508Y-155363934D01*
X135518550Y-155435379D01*
X135516809Y-155492392D01*
X135514057Y-155536827D01*
X135510064Y-155570540D01*
X135504599Y-155595387D01*
X135497433Y-155613222D01*
X135488335Y-155625902D01*
X135477077Y-155635282D01*
X135463428Y-155643218D01*
X135461284Y-155644335D01*
X135450157Y-155648760D01*
X135434311Y-155652288D01*
X135411601Y-155655016D01*
X135379879Y-155657037D01*
X135337001Y-155658448D01*
X135280819Y-155659342D01*
X135209188Y-155659815D01*
X135119961Y-155659962D01*
X135107996Y-155659962D01*
X135018490Y-155659882D01*
X134946751Y-155659585D01*
X134890546Y-155658950D01*
X134847642Y-155657858D01*
X134815808Y-155656187D01*
X134792810Y-155653820D01*
X134776415Y-155650634D01*
X134764391Y-155646510D01*
X134754505Y-155641327D01*
X134753806Y-155640904D01*
X134728980Y-155618575D01*
X134711748Y-155590669D01*
X134711306Y-155589449D01*
X134708881Y-155575106D01*
X134706772Y-155546460D01*
X134704970Y-155502823D01*
X134703464Y-155443507D01*
X134702244Y-155367824D01*
X134701298Y-155275086D01*
X134700618Y-155164605D01*
X134700191Y-155035691D01*
X134700008Y-154887658D01*
X134700000Y-154843186D01*
X134700002Y-154701280D01*
X134700076Y-154578007D01*
X134700323Y-154471996D01*
X134700843Y-154381881D01*
X134701737Y-154306293D01*
X134703105Y-154243864D01*
X134705050Y-154193225D01*
X134707670Y-154153009D01*
X134711067Y-154121847D01*
X134715343Y-154098370D01*
X134720596Y-154081212D01*
X134726929Y-154069002D01*
X134734441Y-154060374D01*
X134743234Y-154053959D01*
X134753409Y-154048389D01*
X134758715Y-154045664D01*
X134778582Y-154040705D01*
X134815368Y-154036569D01*
X134866012Y-154033256D01*
X134927451Y-154030767D01*
X134996620Y-154029101D01*
X135070458Y-154028257D01*
X135145902Y-154028238D01*
X135219889Y-154029041D01*
X135219889Y-154029041D01*
G37*
X135219889Y-154029041D02*
X135289355Y-154030667D01*
X135351237Y-154033117D01*
X135402474Y-154036390D01*
X135440002Y-154040486D01*
X135460758Y-154045405D01*
X135461284Y-154045664D01*
X135479583Y-154057107D01*
X135493695Y-154071864D01*
X135504145Y-154092483D01*
X135511461Y-154121515D01*
X135516171Y-154161509D01*
X135518801Y-154215014D01*
X135519878Y-154284581D01*
X135520000Y-154329678D01*
X135520000Y-154530000D01*
X135260000Y-154530000D01*
X135260000Y-154240000D01*
X134960000Y-154240000D01*
X134960000Y-155450000D01*
X135260000Y-155450000D01*
X135260000Y-154990000D01*
X135080000Y-154990000D01*
X135080000Y-154780000D01*
X135520000Y-154780000D01*
X135520000Y-155170321D01*
X135519915Y-155276199D01*
X135519508Y-155363934D01*
X135518550Y-155435379D01*
X135516809Y-155492392D01*
X135514057Y-155536827D01*
X135510064Y-155570540D01*
X135504599Y-155595387D01*
X135497433Y-155613222D01*
X135488335Y-155625902D01*
X135477077Y-155635282D01*
X135463428Y-155643218D01*
X135461284Y-155644335D01*
X135450157Y-155648760D01*
X135434311Y-155652288D01*
X135411601Y-155655016D01*
X135379879Y-155657037D01*
X135337001Y-155658448D01*
X135280819Y-155659342D01*
X135209188Y-155659815D01*
X135119961Y-155659962D01*
X135107996Y-155659962D01*
X135018490Y-155659882D01*
X134946751Y-155659585D01*
X134890546Y-155658950D01*
X134847642Y-155657858D01*
X134815808Y-155656187D01*
X134792810Y-155653820D01*
X134776415Y-155650634D01*
X134764391Y-155646510D01*
X134754505Y-155641327D01*
X134753806Y-155640904D01*
X134728980Y-155618575D01*
X134711748Y-155590669D01*
X134711306Y-155589449D01*
X134708881Y-155575106D01*
X134706772Y-155546460D01*
X134704970Y-155502823D01*
X134703464Y-155443507D01*
X134702244Y-155367824D01*
X134701298Y-155275086D01*
X134700618Y-155164605D01*
X134700191Y-155035691D01*
X134700008Y-154887658D01*
X134700000Y-154843186D01*
X134700002Y-154701280D01*
X134700076Y-154578007D01*
X134700323Y-154471996D01*
X134700843Y-154381881D01*
X134701737Y-154306293D01*
X134703105Y-154243864D01*
X134705050Y-154193225D01*
X134707670Y-154153009D01*
X134711067Y-154121847D01*
X134715343Y-154098370D01*
X134720596Y-154081212D01*
X134726929Y-154069002D01*
X134734441Y-154060374D01*
X134743234Y-154053959D01*
X134753409Y-154048389D01*
X134758715Y-154045664D01*
X134778582Y-154040705D01*
X134815368Y-154036569D01*
X134866012Y-154033256D01*
X134927451Y-154030767D01*
X134996620Y-154029101D01*
X135070458Y-154028257D01*
X135145902Y-154028238D01*
X135219889Y-154029041D01*
G36*
X136621864Y-154032788D02*
X136649691Y-154035198D01*
X136659986Y-154038871D01*
X136660000Y-154039031D01*
X136661832Y-154050310D01*
X136667102Y-154079432D01*
X136675467Y-154124601D01*
X136686582Y-154184020D01*
X136700106Y-154255895D01*
X136715695Y-154338427D01*
X136733007Y-154429822D01*
X136751699Y-154528282D01*
X136771427Y-154632012D01*
X136791850Y-154739215D01*
X136812623Y-154848095D01*
X136833404Y-154956855D01*
X136853850Y-155063700D01*
X136873619Y-155166834D01*
X136892366Y-155264459D01*
X136909751Y-155354780D01*
X136925428Y-155436000D01*
X136939056Y-155506324D01*
X136950292Y-155563954D01*
X136958793Y-155607095D01*
X136964215Y-155633951D01*
X136966106Y-155642500D01*
X136966726Y-155649638D01*
X136961550Y-155654529D01*
X136947575Y-155657590D01*
X136921794Y-155659242D01*
X136881205Y-155659902D01*
X136840673Y-155660000D01*
X136787169Y-155659766D01*
X136750536Y-155658785D01*
X136727651Y-155656638D01*
X136715387Y-155652906D01*
X136710620Y-155647172D01*
X136710058Y-155642500D01*
X136708579Y-155626568D01*
X136704482Y-155595060D01*
X136698348Y-155552145D01*
X136690756Y-155501988D01*
X136688493Y-155487500D01*
X136666868Y-155350000D01*
X136373131Y-155350000D01*
X136351506Y-155487500D01*
X136343615Y-155538915D01*
X136337023Y-155584234D01*
X136332309Y-155619290D01*
X136330053Y-155639914D01*
X136329941Y-155642500D01*
X136328211Y-155649687D01*
X136320873Y-155654600D01*
X136304791Y-155657662D01*
X136276831Y-155659297D01*
X136233856Y-155659927D01*
X136200250Y-155660000D01*
X136070500Y-155660000D01*
X136077192Y-155627500D01*
X136080113Y-155612739D01*
X136086531Y-155579901D01*
X136096146Y-155530542D01*
X136108653Y-155466221D01*
X136123751Y-155388496D01*
X136141138Y-155298923D01*
X136160510Y-155199060D01*
X136175354Y-155122500D01*
X136410312Y-155122500D01*
X136412102Y-155130202D01*
X136420054Y-155135264D01*
X136437547Y-155138225D01*
X136467960Y-155139623D01*
X136514672Y-155139998D01*
X136520000Y-155140000D01*
X136564202Y-155139417D01*
X136599924Y-155137837D01*
X136623130Y-155135513D01*
X136630000Y-155133128D01*
X136628425Y-155119768D01*
X136624017Y-155089723D01*
X136617251Y-155045883D01*
X136608599Y-154991142D01*
X136598537Y-154928393D01*
X136587538Y-154860526D01*
X136576077Y-154790435D01*
X136564628Y-154721012D01*
X136553665Y-154655149D01*
X136543662Y-154595739D01*
X136535093Y-154545674D01*
X136528432Y-154507846D01*
X136524154Y-154485148D01*
X136522930Y-154480000D01*
X136520277Y-154486576D01*
X136514878Y-154510157D01*
X136507214Y-154548010D01*
X136497762Y-154597401D01*
X136487003Y-154655597D01*
X136475415Y-154719864D01*
X136463478Y-154787468D01*
X136451670Y-154855676D01*
X136440471Y-154921756D01*
X136430360Y-154982972D01*
X136421816Y-155036592D01*
X136415318Y-155079883D01*
X136411345Y-155110111D01*
X136410312Y-155122500D01*
X136175354Y-155122500D01*
X136181565Y-155090466D01*
X136204002Y-154974698D01*
X136227517Y-154853313D01*
X136234937Y-154815000D01*
X136385990Y-154035000D01*
X136522995Y-154032217D01*
X136578849Y-154031755D01*
X136621864Y-154032788D01*
X136621864Y-154032788D01*
G37*
X136621864Y-154032788D02*
X136649691Y-154035198D01*
X136659986Y-154038871D01*
X136660000Y-154039031D01*
X136661832Y-154050310D01*
X136667102Y-154079432D01*
X136675467Y-154124601D01*
X136686582Y-154184020D01*
X136700106Y-154255895D01*
X136715695Y-154338427D01*
X136733007Y-154429822D01*
X136751699Y-154528282D01*
X136771427Y-154632012D01*
X136791850Y-154739215D01*
X136812623Y-154848095D01*
X136833404Y-154956855D01*
X136853850Y-155063700D01*
X136873619Y-155166834D01*
X136892366Y-155264459D01*
X136909751Y-155354780D01*
X136925428Y-155436000D01*
X136939056Y-155506324D01*
X136950292Y-155563954D01*
X136958793Y-155607095D01*
X136964215Y-155633951D01*
X136966106Y-155642500D01*
X136966726Y-155649638D01*
X136961550Y-155654529D01*
X136947575Y-155657590D01*
X136921794Y-155659242D01*
X136881205Y-155659902D01*
X136840673Y-155660000D01*
X136787169Y-155659766D01*
X136750536Y-155658785D01*
X136727651Y-155656638D01*
X136715387Y-155652906D01*
X136710620Y-155647172D01*
X136710058Y-155642500D01*
X136708579Y-155626568D01*
X136704482Y-155595060D01*
X136698348Y-155552145D01*
X136690756Y-155501988D01*
X136688493Y-155487500D01*
X136666868Y-155350000D01*
X136373131Y-155350000D01*
X136351506Y-155487500D01*
X136343615Y-155538915D01*
X136337023Y-155584234D01*
X136332309Y-155619290D01*
X136330053Y-155639914D01*
X136329941Y-155642500D01*
X136328211Y-155649687D01*
X136320873Y-155654600D01*
X136304791Y-155657662D01*
X136276831Y-155659297D01*
X136233856Y-155659927D01*
X136200250Y-155660000D01*
X136070500Y-155660000D01*
X136077192Y-155627500D01*
X136080113Y-155612739D01*
X136086531Y-155579901D01*
X136096146Y-155530542D01*
X136108653Y-155466221D01*
X136123751Y-155388496D01*
X136141138Y-155298923D01*
X136160510Y-155199060D01*
X136175354Y-155122500D01*
X136410312Y-155122500D01*
X136412102Y-155130202D01*
X136420054Y-155135264D01*
X136437547Y-155138225D01*
X136467960Y-155139623D01*
X136514672Y-155139998D01*
X136520000Y-155140000D01*
X136564202Y-155139417D01*
X136599924Y-155137837D01*
X136623130Y-155135513D01*
X136630000Y-155133128D01*
X136628425Y-155119768D01*
X136624017Y-155089723D01*
X136617251Y-155045883D01*
X136608599Y-154991142D01*
X136598537Y-154928393D01*
X136587538Y-154860526D01*
X136576077Y-154790435D01*
X136564628Y-154721012D01*
X136553665Y-154655149D01*
X136543662Y-154595739D01*
X136535093Y-154545674D01*
X136528432Y-154507846D01*
X136524154Y-154485148D01*
X136522930Y-154480000D01*
X136520277Y-154486576D01*
X136514878Y-154510157D01*
X136507214Y-154548010D01*
X136497762Y-154597401D01*
X136487003Y-154655597D01*
X136475415Y-154719864D01*
X136463478Y-154787468D01*
X136451670Y-154855676D01*
X136440471Y-154921756D01*
X136430360Y-154982972D01*
X136421816Y-155036592D01*
X136415318Y-155079883D01*
X136411345Y-155110111D01*
X136410312Y-155122500D01*
X136175354Y-155122500D01*
X136181565Y-155090466D01*
X136204002Y-154974698D01*
X136227517Y-154853313D01*
X136234937Y-154815000D01*
X136385990Y-154035000D01*
X136522995Y-154032217D01*
X136578849Y-154031755D01*
X136621864Y-154032788D01*
G36*
X137981407Y-154030066D02*
X138063799Y-154030458D01*
X138130073Y-154031465D01*
X138182171Y-154033379D01*
X138222032Y-154036488D01*
X138251600Y-154041083D01*
X138272814Y-154047454D01*
X138287615Y-154055890D01*
X138297945Y-154066682D01*
X138305745Y-154080120D01*
X138312076Y-154094405D01*
X138315942Y-154113806D01*
X138319182Y-154150260D01*
X138321797Y-154200833D01*
X138323790Y-154262586D01*
X138325162Y-154332584D01*
X138325916Y-154407892D01*
X138326054Y-154485572D01*
X138325576Y-154562688D01*
X138324486Y-154636304D01*
X138322786Y-154703484D01*
X138320476Y-154761291D01*
X138317560Y-154806789D01*
X138314038Y-154837043D01*
X138311577Y-154846798D01*
X138288848Y-154878322D01*
X138251346Y-154898843D01*
X138198013Y-154908821D01*
X138165988Y-154910000D01*
X138132636Y-154910345D01*
X138108973Y-154911251D01*
X138100189Y-154912500D01*
X138103492Y-154922140D01*
X138112832Y-154948575D01*
X138127486Y-154989777D01*
X138146729Y-155043719D01*
X138169839Y-155108373D01*
X138196092Y-155181711D01*
X138224764Y-155261706D01*
X138233119Y-155285000D01*
X138365859Y-155655000D01*
X138236562Y-155657799D01*
X138187802Y-155658488D01*
X138146666Y-155658373D01*
X138117067Y-155657519D01*
X138102916Y-155655985D01*
X138102345Y-155655678D01*
X138098044Y-155645478D01*
X138087842Y-155618440D01*
X138072473Y-155576596D01*
X138052673Y-155521976D01*
X138029177Y-155456610D01*
X138002718Y-155382528D01*
X137974032Y-155301761D01*
X137963811Y-155272879D01*
X137930171Y-155177537D01*
X137902677Y-155098944D01*
X137880713Y-155035028D01*
X137863664Y-154983715D01*
X137850913Y-154942932D01*
X137841846Y-154910606D01*
X137835847Y-154884663D01*
X137832301Y-154863031D01*
X137830591Y-154843636D01*
X137830103Y-154824406D01*
X137830098Y-154822500D01*
X137830000Y-154750000D01*
X138070000Y-154750000D01*
X138070000Y-154240000D01*
X137780000Y-154240000D01*
X137780000Y-155660000D01*
X137520000Y-155660000D01*
X137520000Y-154030000D01*
X137880957Y-154030000D01*
X137981407Y-154030066D01*
X137981407Y-154030066D01*
G37*
X137981407Y-154030066D02*
X138063799Y-154030458D01*
X138130073Y-154031465D01*
X138182171Y-154033379D01*
X138222032Y-154036488D01*
X138251600Y-154041083D01*
X138272814Y-154047454D01*
X138287615Y-154055890D01*
X138297945Y-154066682D01*
X138305745Y-154080120D01*
X138312076Y-154094405D01*
X138315942Y-154113806D01*
X138319182Y-154150260D01*
X138321797Y-154200833D01*
X138323790Y-154262586D01*
X138325162Y-154332584D01*
X138325916Y-154407892D01*
X138326054Y-154485572D01*
X138325576Y-154562688D01*
X138324486Y-154636304D01*
X138322786Y-154703484D01*
X138320476Y-154761291D01*
X138317560Y-154806789D01*
X138314038Y-154837043D01*
X138311577Y-154846798D01*
X138288848Y-154878322D01*
X138251346Y-154898843D01*
X138198013Y-154908821D01*
X138165988Y-154910000D01*
X138132636Y-154910345D01*
X138108973Y-154911251D01*
X138100189Y-154912500D01*
X138103492Y-154922140D01*
X138112832Y-154948575D01*
X138127486Y-154989777D01*
X138146729Y-155043719D01*
X138169839Y-155108373D01*
X138196092Y-155181711D01*
X138224764Y-155261706D01*
X138233119Y-155285000D01*
X138365859Y-155655000D01*
X138236562Y-155657799D01*
X138187802Y-155658488D01*
X138146666Y-155658373D01*
X138117067Y-155657519D01*
X138102916Y-155655985D01*
X138102345Y-155655678D01*
X138098044Y-155645478D01*
X138087842Y-155618440D01*
X138072473Y-155576596D01*
X138052673Y-155521976D01*
X138029177Y-155456610D01*
X138002718Y-155382528D01*
X137974032Y-155301761D01*
X137963811Y-155272879D01*
X137930171Y-155177537D01*
X137902677Y-155098944D01*
X137880713Y-155035028D01*
X137863664Y-154983715D01*
X137850913Y-154942932D01*
X137841846Y-154910606D01*
X137835847Y-154884663D01*
X137832301Y-154863031D01*
X137830591Y-154843636D01*
X137830103Y-154824406D01*
X137830098Y-154822500D01*
X137830000Y-154750000D01*
X138070000Y-154750000D01*
X138070000Y-154240000D01*
X137780000Y-154240000D01*
X137780000Y-155660000D01*
X137520000Y-155660000D01*
X137520000Y-154030000D01*
X137880957Y-154030000D01*
X137981407Y-154030066D01*
G36*
X139421864Y-154032788D02*
X139449691Y-154035198D01*
X139459986Y-154038871D01*
X139460000Y-154039031D01*
X139461832Y-154050310D01*
X139467102Y-154079432D01*
X139475467Y-154124601D01*
X139486582Y-154184020D01*
X139500106Y-154255895D01*
X139515695Y-154338427D01*
X139533007Y-154429822D01*
X139551699Y-154528282D01*
X139571427Y-154632012D01*
X139591850Y-154739215D01*
X139612623Y-154848095D01*
X139633404Y-154956855D01*
X139653850Y-155063700D01*
X139673619Y-155166834D01*
X139692366Y-155264459D01*
X139709751Y-155354780D01*
X139725428Y-155436000D01*
X139739056Y-155506324D01*
X139750292Y-155563954D01*
X139758793Y-155607095D01*
X139764215Y-155633951D01*
X139766106Y-155642500D01*
X139766726Y-155649638D01*
X139761550Y-155654529D01*
X139747575Y-155657590D01*
X139721794Y-155659242D01*
X139681205Y-155659902D01*
X139640673Y-155660000D01*
X139587169Y-155659766D01*
X139550536Y-155658785D01*
X139527651Y-155656638D01*
X139515387Y-155652906D01*
X139510620Y-155647172D01*
X139510058Y-155642500D01*
X139508579Y-155626568D01*
X139504482Y-155595060D01*
X139498348Y-155552145D01*
X139490756Y-155501988D01*
X139488493Y-155487500D01*
X139466868Y-155350000D01*
X139173131Y-155350000D01*
X139151506Y-155487500D01*
X139143615Y-155538915D01*
X139137023Y-155584234D01*
X139132309Y-155619290D01*
X139130053Y-155639914D01*
X139129941Y-155642500D01*
X139128211Y-155649687D01*
X139120873Y-155654600D01*
X139104791Y-155657662D01*
X139076831Y-155659297D01*
X139033856Y-155659927D01*
X139000250Y-155660000D01*
X138870500Y-155660000D01*
X138877192Y-155627500D01*
X138880113Y-155612739D01*
X138886531Y-155579901D01*
X138896146Y-155530542D01*
X138908653Y-155466221D01*
X138923751Y-155388496D01*
X138941138Y-155298923D01*
X138960510Y-155199060D01*
X138975354Y-155122500D01*
X139210312Y-155122500D01*
X139212102Y-155130202D01*
X139220054Y-155135264D01*
X139237547Y-155138225D01*
X139267960Y-155139623D01*
X139314672Y-155139998D01*
X139320000Y-155140000D01*
X139364202Y-155139417D01*
X139399924Y-155137837D01*
X139423130Y-155135513D01*
X139430000Y-155133128D01*
X139428425Y-155119768D01*
X139424017Y-155089723D01*
X139417251Y-155045883D01*
X139408599Y-154991142D01*
X139398537Y-154928393D01*
X139387538Y-154860526D01*
X139376077Y-154790435D01*
X139364628Y-154721012D01*
X139353665Y-154655149D01*
X139343662Y-154595739D01*
X139335093Y-154545674D01*
X139328432Y-154507846D01*
X139324154Y-154485148D01*
X139322930Y-154480000D01*
X139320277Y-154486576D01*
X139314878Y-154510157D01*
X139307214Y-154548010D01*
X139297762Y-154597401D01*
X139287003Y-154655597D01*
X139275415Y-154719864D01*
X139263478Y-154787468D01*
X139251670Y-154855676D01*
X139240471Y-154921756D01*
X139230360Y-154982972D01*
X139221816Y-155036592D01*
X139215318Y-155079883D01*
X139211345Y-155110111D01*
X139210312Y-155122500D01*
X138975354Y-155122500D01*
X138981565Y-155090466D01*
X139004002Y-154974698D01*
X139027517Y-154853313D01*
X139034937Y-154815000D01*
X139185990Y-154035000D01*
X139322995Y-154032217D01*
X139378849Y-154031755D01*
X139421864Y-154032788D01*
X139421864Y-154032788D01*
G37*
X139421864Y-154032788D02*
X139449691Y-154035198D01*
X139459986Y-154038871D01*
X139460000Y-154039031D01*
X139461832Y-154050310D01*
X139467102Y-154079432D01*
X139475467Y-154124601D01*
X139486582Y-154184020D01*
X139500106Y-154255895D01*
X139515695Y-154338427D01*
X139533007Y-154429822D01*
X139551699Y-154528282D01*
X139571427Y-154632012D01*
X139591850Y-154739215D01*
X139612623Y-154848095D01*
X139633404Y-154956855D01*
X139653850Y-155063700D01*
X139673619Y-155166834D01*
X139692366Y-155264459D01*
X139709751Y-155354780D01*
X139725428Y-155436000D01*
X139739056Y-155506324D01*
X139750292Y-155563954D01*
X139758793Y-155607095D01*
X139764215Y-155633951D01*
X139766106Y-155642500D01*
X139766726Y-155649638D01*
X139761550Y-155654529D01*
X139747575Y-155657590D01*
X139721794Y-155659242D01*
X139681205Y-155659902D01*
X139640673Y-155660000D01*
X139587169Y-155659766D01*
X139550536Y-155658785D01*
X139527651Y-155656638D01*
X139515387Y-155652906D01*
X139510620Y-155647172D01*
X139510058Y-155642500D01*
X139508579Y-155626568D01*
X139504482Y-155595060D01*
X139498348Y-155552145D01*
X139490756Y-155501988D01*
X139488493Y-155487500D01*
X139466868Y-155350000D01*
X139173131Y-155350000D01*
X139151506Y-155487500D01*
X139143615Y-155538915D01*
X139137023Y-155584234D01*
X139132309Y-155619290D01*
X139130053Y-155639914D01*
X139129941Y-155642500D01*
X139128211Y-155649687D01*
X139120873Y-155654600D01*
X139104791Y-155657662D01*
X139076831Y-155659297D01*
X139033856Y-155659927D01*
X139000250Y-155660000D01*
X138870500Y-155660000D01*
X138877192Y-155627500D01*
X138880113Y-155612739D01*
X138886531Y-155579901D01*
X138896146Y-155530542D01*
X138908653Y-155466221D01*
X138923751Y-155388496D01*
X138941138Y-155298923D01*
X138960510Y-155199060D01*
X138975354Y-155122500D01*
X139210312Y-155122500D01*
X139212102Y-155130202D01*
X139220054Y-155135264D01*
X139237547Y-155138225D01*
X139267960Y-155139623D01*
X139314672Y-155139998D01*
X139320000Y-155140000D01*
X139364202Y-155139417D01*
X139399924Y-155137837D01*
X139423130Y-155135513D01*
X139430000Y-155133128D01*
X139428425Y-155119768D01*
X139424017Y-155089723D01*
X139417251Y-155045883D01*
X139408599Y-154991142D01*
X139398537Y-154928393D01*
X139387538Y-154860526D01*
X139376077Y-154790435D01*
X139364628Y-154721012D01*
X139353665Y-154655149D01*
X139343662Y-154595739D01*
X139335093Y-154545674D01*
X139328432Y-154507846D01*
X139324154Y-154485148D01*
X139322930Y-154480000D01*
X139320277Y-154486576D01*
X139314878Y-154510157D01*
X139307214Y-154548010D01*
X139297762Y-154597401D01*
X139287003Y-154655597D01*
X139275415Y-154719864D01*
X139263478Y-154787468D01*
X139251670Y-154855676D01*
X139240471Y-154921756D01*
X139230360Y-154982972D01*
X139221816Y-155036592D01*
X139215318Y-155079883D01*
X139211345Y-155110111D01*
X139210312Y-155122500D01*
X138975354Y-155122500D01*
X138981565Y-155090466D01*
X139004002Y-154974698D01*
X139027517Y-154853313D01*
X139034937Y-154815000D01*
X139185990Y-154035000D01*
X139322995Y-154032217D01*
X139378849Y-154031755D01*
X139421864Y-154032788D01*
G36*
X140839889Y-154029041D02*
X140909355Y-154030667D01*
X140971237Y-154033117D01*
X141022474Y-154036390D01*
X141060002Y-154040486D01*
X141080758Y-154045405D01*
X141081284Y-154045664D01*
X141099583Y-154057107D01*
X141113695Y-154071864D01*
X141124145Y-154092483D01*
X141131461Y-154121515D01*
X141136171Y-154161509D01*
X141138801Y-154215014D01*
X141139878Y-154284581D01*
X141140000Y-154329678D01*
X141140000Y-154530000D01*
X140880000Y-154530000D01*
X140880000Y-154240000D01*
X140580000Y-154240000D01*
X140580000Y-155450000D01*
X140880000Y-155450000D01*
X140880000Y-154990000D01*
X140700000Y-154990000D01*
X140700000Y-154780000D01*
X141140000Y-154780000D01*
X141140000Y-155170321D01*
X141139915Y-155276199D01*
X141139508Y-155363934D01*
X141138550Y-155435379D01*
X141136809Y-155492392D01*
X141134057Y-155536827D01*
X141130064Y-155570540D01*
X141124599Y-155595387D01*
X141117433Y-155613222D01*
X141108335Y-155625902D01*
X141097077Y-155635282D01*
X141083428Y-155643218D01*
X141081284Y-155644335D01*
X141070157Y-155648760D01*
X141054311Y-155652288D01*
X141031601Y-155655016D01*
X140999879Y-155657037D01*
X140957001Y-155658448D01*
X140900819Y-155659342D01*
X140829188Y-155659815D01*
X140739961Y-155659962D01*
X140727996Y-155659962D01*
X140638490Y-155659882D01*
X140566751Y-155659585D01*
X140510546Y-155658950D01*
X140467642Y-155657858D01*
X140435808Y-155656187D01*
X140412810Y-155653820D01*
X140396415Y-155650634D01*
X140384391Y-155646510D01*
X140374505Y-155641327D01*
X140373806Y-155640904D01*
X140348980Y-155618575D01*
X140331748Y-155590669D01*
X140331306Y-155589449D01*
X140328881Y-155575106D01*
X140326772Y-155546460D01*
X140324970Y-155502823D01*
X140323464Y-155443507D01*
X140322244Y-155367824D01*
X140321298Y-155275086D01*
X140320618Y-155164605D01*
X140320191Y-155035691D01*
X140320008Y-154887658D01*
X140320000Y-154843186D01*
X140320002Y-154701280D01*
X140320076Y-154578007D01*
X140320323Y-154471996D01*
X140320843Y-154381881D01*
X140321737Y-154306293D01*
X140323105Y-154243864D01*
X140325050Y-154193225D01*
X140327670Y-154153009D01*
X140331067Y-154121847D01*
X140335343Y-154098370D01*
X140340596Y-154081212D01*
X140346929Y-154069002D01*
X140354441Y-154060374D01*
X140363234Y-154053959D01*
X140373409Y-154048389D01*
X140378715Y-154045664D01*
X140398582Y-154040705D01*
X140435368Y-154036569D01*
X140486012Y-154033256D01*
X140547451Y-154030767D01*
X140616620Y-154029101D01*
X140690458Y-154028257D01*
X140765902Y-154028238D01*
X140839889Y-154029041D01*
X140839889Y-154029041D01*
G37*
X140839889Y-154029041D02*
X140909355Y-154030667D01*
X140971237Y-154033117D01*
X141022474Y-154036390D01*
X141060002Y-154040486D01*
X141080758Y-154045405D01*
X141081284Y-154045664D01*
X141099583Y-154057107D01*
X141113695Y-154071864D01*
X141124145Y-154092483D01*
X141131461Y-154121515D01*
X141136171Y-154161509D01*
X141138801Y-154215014D01*
X141139878Y-154284581D01*
X141140000Y-154329678D01*
X141140000Y-154530000D01*
X140880000Y-154530000D01*
X140880000Y-154240000D01*
X140580000Y-154240000D01*
X140580000Y-155450000D01*
X140880000Y-155450000D01*
X140880000Y-154990000D01*
X140700000Y-154990000D01*
X140700000Y-154780000D01*
X141140000Y-154780000D01*
X141140000Y-155170321D01*
X141139915Y-155276199D01*
X141139508Y-155363934D01*
X141138550Y-155435379D01*
X141136809Y-155492392D01*
X141134057Y-155536827D01*
X141130064Y-155570540D01*
X141124599Y-155595387D01*
X141117433Y-155613222D01*
X141108335Y-155625902D01*
X141097077Y-155635282D01*
X141083428Y-155643218D01*
X141081284Y-155644335D01*
X141070157Y-155648760D01*
X141054311Y-155652288D01*
X141031601Y-155655016D01*
X140999879Y-155657037D01*
X140957001Y-155658448D01*
X140900819Y-155659342D01*
X140829188Y-155659815D01*
X140739961Y-155659962D01*
X140727996Y-155659962D01*
X140638490Y-155659882D01*
X140566751Y-155659585D01*
X140510546Y-155658950D01*
X140467642Y-155657858D01*
X140435808Y-155656187D01*
X140412810Y-155653820D01*
X140396415Y-155650634D01*
X140384391Y-155646510D01*
X140374505Y-155641327D01*
X140373806Y-155640904D01*
X140348980Y-155618575D01*
X140331748Y-155590669D01*
X140331306Y-155589449D01*
X140328881Y-155575106D01*
X140326772Y-155546460D01*
X140324970Y-155502823D01*
X140323464Y-155443507D01*
X140322244Y-155367824D01*
X140321298Y-155275086D01*
X140320618Y-155164605D01*
X140320191Y-155035691D01*
X140320008Y-154887658D01*
X140320000Y-154843186D01*
X140320002Y-154701280D01*
X140320076Y-154578007D01*
X140320323Y-154471996D01*
X140320843Y-154381881D01*
X140321737Y-154306293D01*
X140323105Y-154243864D01*
X140325050Y-154193225D01*
X140327670Y-154153009D01*
X140331067Y-154121847D01*
X140335343Y-154098370D01*
X140340596Y-154081212D01*
X140346929Y-154069002D01*
X140354441Y-154060374D01*
X140363234Y-154053959D01*
X140373409Y-154048389D01*
X140378715Y-154045664D01*
X140398582Y-154040705D01*
X140435368Y-154036569D01*
X140486012Y-154033256D01*
X140547451Y-154030767D01*
X140616620Y-154029101D01*
X140690458Y-154028257D01*
X140765902Y-154028238D01*
X140839889Y-154029041D01*
G36*
X142420000Y-154250000D02*
X142000000Y-154250000D01*
X142000000Y-154720000D01*
X142360000Y-154720000D01*
X142360000Y-154930000D01*
X142000000Y-154930000D01*
X142000000Y-155440000D01*
X142430000Y-155440000D01*
X142430000Y-155660000D01*
X141740000Y-155660000D01*
X141740000Y-154030000D01*
X142420000Y-154030000D01*
X142420000Y-154250000D01*
X142420000Y-154250000D01*
G37*
X142420000Y-154250000D02*
X142000000Y-154250000D01*
X142000000Y-154720000D01*
X142360000Y-154720000D01*
X142360000Y-154930000D01*
X142000000Y-154930000D01*
X142000000Y-155440000D01*
X142430000Y-155440000D01*
X142430000Y-155660000D01*
X141740000Y-155660000D01*
X141740000Y-154030000D01*
X142420000Y-154030000D01*
X142420000Y-154250000D01*
G36*
X139915000Y-142955171D02*
X140116740Y-143070660D01*
X140313974Y-143183592D01*
X140505995Y-143293561D01*
X140692095Y-143400161D01*
X140871570Y-143502988D01*
X141043711Y-143601635D01*
X141207813Y-143695698D01*
X141363170Y-143784772D01*
X141509073Y-143868450D01*
X141644818Y-143946328D01*
X141769697Y-144018000D01*
X141883005Y-144083060D01*
X141984034Y-144141105D01*
X142072077Y-144191727D01*
X142146429Y-144234522D01*
X142206383Y-144269085D01*
X142251233Y-144295009D01*
X142280271Y-144311891D01*
X142292792Y-144319324D01*
X142293246Y-144319635D01*
X142294440Y-144330746D01*
X142295102Y-144360147D01*
X142295251Y-144406137D01*
X142294907Y-144467014D01*
X142294090Y-144541076D01*
X142292820Y-144626622D01*
X142291116Y-144721950D01*
X142288999Y-144825357D01*
X142286487Y-144935144D01*
X142285730Y-144966246D01*
X142282947Y-145080503D01*
X142280321Y-145191179D01*
X142277896Y-145296259D01*
X142275715Y-145393723D01*
X142273821Y-145481554D01*
X142272258Y-145557735D01*
X142271069Y-145620248D01*
X142270298Y-145667076D01*
X142269987Y-145696200D01*
X142269983Y-145698666D01*
X142269646Y-145742409D01*
X142268163Y-145769629D01*
X142264849Y-145783797D01*
X142259024Y-145788385D01*
X142252500Y-145787600D01*
X142242429Y-145782286D01*
X142215720Y-145767435D01*
X142173086Y-145743453D01*
X142115242Y-145710749D01*
X142042902Y-145669728D01*
X141956779Y-145620799D01*
X141857587Y-145564368D01*
X141746041Y-145500843D01*
X141622854Y-145430630D01*
X141488740Y-145354138D01*
X141344413Y-145271774D01*
X141190588Y-145183944D01*
X141027977Y-145091056D01*
X140857296Y-144993516D01*
X140679258Y-144891733D01*
X140494576Y-144786114D01*
X140303966Y-144677065D01*
X140108140Y-144564994D01*
X139907813Y-144450307D01*
X139892316Y-144441434D01*
X139691765Y-144326620D01*
X139495706Y-144214422D01*
X139304849Y-144105244D01*
X139119905Y-143999493D01*
X138941587Y-143897574D01*
X138770604Y-143799892D01*
X138607668Y-143706852D01*
X138453491Y-143618859D01*
X138308783Y-143536320D01*
X138174256Y-143459640D01*
X138050621Y-143389223D01*
X137938588Y-143325476D01*
X137838871Y-143268803D01*
X137752178Y-143219610D01*
X137679223Y-143178303D01*
X137620715Y-143145286D01*
X137577366Y-143120965D01*
X137549888Y-143105746D01*
X137538991Y-143100034D01*
X137538854Y-143100000D01*
X137529222Y-143104867D01*
X137503033Y-143119160D01*
X137461113Y-143142411D01*
X137404287Y-143174155D01*
X137333382Y-143213923D01*
X137249223Y-143261252D01*
X137152637Y-143315673D01*
X137044448Y-143376720D01*
X136925483Y-143443927D01*
X136796567Y-143516828D01*
X136658527Y-143594957D01*
X136512188Y-143677846D01*
X136358376Y-143765029D01*
X136197917Y-143856041D01*
X136031637Y-143950414D01*
X135860361Y-144047682D01*
X135774038Y-144096727D01*
X134020000Y-145093455D01*
X134020150Y-147109227D01*
X134020300Y-149125000D01*
X135777053Y-150140000D01*
X135950219Y-150240020D01*
X136118785Y-150337325D01*
X136281935Y-150431445D01*
X136438849Y-150521911D01*
X136588711Y-150608252D01*
X136730703Y-150690000D01*
X136864006Y-150766685D01*
X136987804Y-150837837D01*
X137101278Y-150902986D01*
X137203611Y-150961663D01*
X137293985Y-151013398D01*
X137371582Y-151057722D01*
X137435584Y-151094165D01*
X137485175Y-151122258D01*
X137519535Y-151141530D01*
X137537847Y-151151513D01*
X137540780Y-151152874D01*
X137550010Y-151147749D01*
X137575745Y-151133118D01*
X137617157Y-151109456D01*
X137673418Y-151077240D01*
X137743702Y-151036944D01*
X137827182Y-150989044D01*
X137923029Y-150934014D01*
X138030417Y-150872331D01*
X138148519Y-150804469D01*
X138276508Y-150730903D01*
X138413555Y-150652110D01*
X138558834Y-150568564D01*
X138711518Y-150480741D01*
X138870779Y-150389115D01*
X139035790Y-150294163D01*
X139205724Y-150196359D01*
X139270691Y-150158963D01*
X139442381Y-150060160D01*
X139609539Y-149964022D01*
X139771331Y-149871024D01*
X139926925Y-149781643D01*
X140075489Y-149696357D01*
X140216189Y-149615640D01*
X140348194Y-149539971D01*
X140470671Y-149469824D01*
X140582787Y-149405678D01*
X140683709Y-149348007D01*
X140772606Y-149297290D01*
X140848645Y-149254002D01*
X140910992Y-149218619D01*
X140958816Y-149191619D01*
X140991284Y-149173478D01*
X141007563Y-149164672D01*
X141009314Y-149163876D01*
X141020189Y-149168299D01*
X141046489Y-149182022D01*
X141086563Y-149204071D01*
X141138761Y-149233473D01*
X141201434Y-149269254D01*
X141272932Y-149310441D01*
X141351605Y-149356061D01*
X141435804Y-149405141D01*
X141523877Y-149456708D01*
X141614176Y-149509788D01*
X141705051Y-149563408D01*
X141794851Y-149616595D01*
X141881927Y-149668376D01*
X141964629Y-149717778D01*
X142041308Y-149763827D01*
X142110312Y-149805550D01*
X142169993Y-149841974D01*
X142218700Y-149872126D01*
X142254784Y-149895032D01*
X142276595Y-149909719D01*
X142282679Y-149915000D01*
X142274187Y-149920464D01*
X142249218Y-149935420D01*
X142208624Y-149959377D01*
X142153258Y-149991841D01*
X142083971Y-150032320D01*
X142001617Y-150080321D01*
X141907046Y-150135352D01*
X141801112Y-150196920D01*
X141684667Y-150264534D01*
X141558562Y-150337699D01*
X141423650Y-150415924D01*
X141280783Y-150498717D01*
X141130814Y-150585584D01*
X140974595Y-150676033D01*
X140812977Y-150769572D01*
X140646814Y-150865708D01*
X140476956Y-150963949D01*
X140304258Y-151063802D01*
X140129569Y-151164774D01*
X139953744Y-151266373D01*
X139777634Y-151368107D01*
X139602092Y-151469482D01*
X139427969Y-151570008D01*
X139256117Y-151669190D01*
X139087390Y-151766536D01*
X138922639Y-151861554D01*
X138762717Y-151953752D01*
X138608475Y-152042636D01*
X138460766Y-152127715D01*
X138320442Y-152208495D01*
X138188355Y-152284485D01*
X138065358Y-152355191D01*
X137952303Y-152420122D01*
X137850041Y-152478784D01*
X137759426Y-152530685D01*
X137681309Y-152575333D01*
X137616543Y-152612235D01*
X137570000Y-152638628D01*
X137535000Y-152658407D01*
X135127500Y-151266703D01*
X132720001Y-149875000D01*
X132720433Y-144335000D01*
X135096143Y-142985000D01*
X135298653Y-142869932D01*
X135496835Y-142757342D01*
X135689973Y-142647636D01*
X135877346Y-142541222D01*
X136058236Y-142438508D01*
X136231926Y-142339901D01*
X136397695Y-142245809D01*
X136554826Y-142156639D01*
X136702600Y-142072798D01*
X136840298Y-141994696D01*
X136967202Y-141922738D01*
X137082593Y-141857333D01*
X137185753Y-141798888D01*
X137275962Y-141747811D01*
X137352504Y-141704509D01*
X137414658Y-141669390D01*
X137461707Y-141642861D01*
X137492931Y-141625331D01*
X137507613Y-141617206D01*
X137508426Y-141616782D01*
X137545000Y-141598564D01*
X139915000Y-142955171D01*
X139915000Y-142955171D01*
G37*
X139915000Y-142955171D02*
X140116740Y-143070660D01*
X140313974Y-143183592D01*
X140505995Y-143293561D01*
X140692095Y-143400161D01*
X140871570Y-143502988D01*
X141043711Y-143601635D01*
X141207813Y-143695698D01*
X141363170Y-143784772D01*
X141509073Y-143868450D01*
X141644818Y-143946328D01*
X141769697Y-144018000D01*
X141883005Y-144083060D01*
X141984034Y-144141105D01*
X142072077Y-144191727D01*
X142146429Y-144234522D01*
X142206383Y-144269085D01*
X142251233Y-144295009D01*
X142280271Y-144311891D01*
X142292792Y-144319324D01*
X142293246Y-144319635D01*
X142294440Y-144330746D01*
X142295102Y-144360147D01*
X142295251Y-144406137D01*
X142294907Y-144467014D01*
X142294090Y-144541076D01*
X142292820Y-144626622D01*
X142291116Y-144721950D01*
X142288999Y-144825357D01*
X142286487Y-144935144D01*
X142285730Y-144966246D01*
X142282947Y-145080503D01*
X142280321Y-145191179D01*
X142277896Y-145296259D01*
X142275715Y-145393723D01*
X142273821Y-145481554D01*
X142272258Y-145557735D01*
X142271069Y-145620248D01*
X142270298Y-145667076D01*
X142269987Y-145696200D01*
X142269983Y-145698666D01*
X142269646Y-145742409D01*
X142268163Y-145769629D01*
X142264849Y-145783797D01*
X142259024Y-145788385D01*
X142252500Y-145787600D01*
X142242429Y-145782286D01*
X142215720Y-145767435D01*
X142173086Y-145743453D01*
X142115242Y-145710749D01*
X142042902Y-145669728D01*
X141956779Y-145620799D01*
X141857587Y-145564368D01*
X141746041Y-145500843D01*
X141622854Y-145430630D01*
X141488740Y-145354138D01*
X141344413Y-145271774D01*
X141190588Y-145183944D01*
X141027977Y-145091056D01*
X140857296Y-144993516D01*
X140679258Y-144891733D01*
X140494576Y-144786114D01*
X140303966Y-144677065D01*
X140108140Y-144564994D01*
X139907813Y-144450307D01*
X139892316Y-144441434D01*
X139691765Y-144326620D01*
X139495706Y-144214422D01*
X139304849Y-144105244D01*
X139119905Y-143999493D01*
X138941587Y-143897574D01*
X138770604Y-143799892D01*
X138607668Y-143706852D01*
X138453491Y-143618859D01*
X138308783Y-143536320D01*
X138174256Y-143459640D01*
X138050621Y-143389223D01*
X137938588Y-143325476D01*
X137838871Y-143268803D01*
X137752178Y-143219610D01*
X137679223Y-143178303D01*
X137620715Y-143145286D01*
X137577366Y-143120965D01*
X137549888Y-143105746D01*
X137538991Y-143100034D01*
X137538854Y-143100000D01*
X137529222Y-143104867D01*
X137503033Y-143119160D01*
X137461113Y-143142411D01*
X137404287Y-143174155D01*
X137333382Y-143213923D01*
X137249223Y-143261252D01*
X137152637Y-143315673D01*
X137044448Y-143376720D01*
X136925483Y-143443927D01*
X136796567Y-143516828D01*
X136658527Y-143594957D01*
X136512188Y-143677846D01*
X136358376Y-143765029D01*
X136197917Y-143856041D01*
X136031637Y-143950414D01*
X135860361Y-144047682D01*
X135774038Y-144096727D01*
X134020000Y-145093455D01*
X134020150Y-147109227D01*
X134020300Y-149125000D01*
X135777053Y-150140000D01*
X135950219Y-150240020D01*
X136118785Y-150337325D01*
X136281935Y-150431445D01*
X136438849Y-150521911D01*
X136588711Y-150608252D01*
X136730703Y-150690000D01*
X136864006Y-150766685D01*
X136987804Y-150837837D01*
X137101278Y-150902986D01*
X137203611Y-150961663D01*
X137293985Y-151013398D01*
X137371582Y-151057722D01*
X137435584Y-151094165D01*
X137485175Y-151122258D01*
X137519535Y-151141530D01*
X137537847Y-151151513D01*
X137540780Y-151152874D01*
X137550010Y-151147749D01*
X137575745Y-151133118D01*
X137617157Y-151109456D01*
X137673418Y-151077240D01*
X137743702Y-151036944D01*
X137827182Y-150989044D01*
X137923029Y-150934014D01*
X138030417Y-150872331D01*
X138148519Y-150804469D01*
X138276508Y-150730903D01*
X138413555Y-150652110D01*
X138558834Y-150568564D01*
X138711518Y-150480741D01*
X138870779Y-150389115D01*
X139035790Y-150294163D01*
X139205724Y-150196359D01*
X139270691Y-150158963D01*
X139442381Y-150060160D01*
X139609539Y-149964022D01*
X139771331Y-149871024D01*
X139926925Y-149781643D01*
X140075489Y-149696357D01*
X140216189Y-149615640D01*
X140348194Y-149539971D01*
X140470671Y-149469824D01*
X140582787Y-149405678D01*
X140683709Y-149348007D01*
X140772606Y-149297290D01*
X140848645Y-149254002D01*
X140910992Y-149218619D01*
X140958816Y-149191619D01*
X140991284Y-149173478D01*
X141007563Y-149164672D01*
X141009314Y-149163876D01*
X141020189Y-149168299D01*
X141046489Y-149182022D01*
X141086563Y-149204071D01*
X141138761Y-149233473D01*
X141201434Y-149269254D01*
X141272932Y-149310441D01*
X141351605Y-149356061D01*
X141435804Y-149405141D01*
X141523877Y-149456708D01*
X141614176Y-149509788D01*
X141705051Y-149563408D01*
X141794851Y-149616595D01*
X141881927Y-149668376D01*
X141964629Y-149717778D01*
X142041308Y-149763827D01*
X142110312Y-149805550D01*
X142169993Y-149841974D01*
X142218700Y-149872126D01*
X142254784Y-149895032D01*
X142276595Y-149909719D01*
X142282679Y-149915000D01*
X142274187Y-149920464D01*
X142249218Y-149935420D01*
X142208624Y-149959377D01*
X142153258Y-149991841D01*
X142083971Y-150032320D01*
X142001617Y-150080321D01*
X141907046Y-150135352D01*
X141801112Y-150196920D01*
X141684667Y-150264534D01*
X141558562Y-150337699D01*
X141423650Y-150415924D01*
X141280783Y-150498717D01*
X141130814Y-150585584D01*
X140974595Y-150676033D01*
X140812977Y-150769572D01*
X140646814Y-150865708D01*
X140476956Y-150963949D01*
X140304258Y-151063802D01*
X140129569Y-151164774D01*
X139953744Y-151266373D01*
X139777634Y-151368107D01*
X139602092Y-151469482D01*
X139427969Y-151570008D01*
X139256117Y-151669190D01*
X139087390Y-151766536D01*
X138922639Y-151861554D01*
X138762717Y-151953752D01*
X138608475Y-152042636D01*
X138460766Y-152127715D01*
X138320442Y-152208495D01*
X138188355Y-152284485D01*
X138065358Y-152355191D01*
X137952303Y-152420122D01*
X137850041Y-152478784D01*
X137759426Y-152530685D01*
X137681309Y-152575333D01*
X137616543Y-152612235D01*
X137570000Y-152638628D01*
X137535000Y-152658407D01*
X135127500Y-151266703D01*
X132720001Y-149875000D01*
X132720433Y-144335000D01*
X135096143Y-142985000D01*
X135298653Y-142869932D01*
X135496835Y-142757342D01*
X135689973Y-142647636D01*
X135877346Y-142541222D01*
X136058236Y-142438508D01*
X136231926Y-142339901D01*
X136397695Y-142245809D01*
X136554826Y-142156639D01*
X136702600Y-142072798D01*
X136840298Y-141994696D01*
X136967202Y-141922738D01*
X137082593Y-141857333D01*
X137185753Y-141798888D01*
X137275962Y-141747811D01*
X137352504Y-141704509D01*
X137414658Y-141669390D01*
X137461707Y-141642861D01*
X137492931Y-141625331D01*
X137507613Y-141617206D01*
X137508426Y-141616782D01*
X137545000Y-141598564D01*
X139915000Y-142955171D01*
G36*
X137529241Y-145710062D02*
X137532776Y-145711345D01*
X137545264Y-145718338D01*
X137574066Y-145734708D01*
X137618324Y-145759963D01*
X137677180Y-145793611D01*
X137749776Y-145835159D01*
X137835255Y-145884114D01*
X137932758Y-145939983D01*
X138041429Y-146002275D01*
X138160408Y-146070496D01*
X138288839Y-146144154D01*
X138425863Y-146222755D01*
X138570623Y-146305809D01*
X138722261Y-146392821D01*
X138879920Y-146483300D01*
X139042740Y-146576753D01*
X139209865Y-146672686D01*
X139380437Y-146770608D01*
X139553597Y-146870026D01*
X139728489Y-146970447D01*
X139904254Y-147071379D01*
X140080034Y-147172329D01*
X140254973Y-147272805D01*
X140428211Y-147372313D01*
X140598891Y-147470361D01*
X140766156Y-147566457D01*
X140929147Y-147660108D01*
X141087007Y-147750822D01*
X141238878Y-147838105D01*
X141383903Y-147921465D01*
X141521222Y-148000410D01*
X141649979Y-148074447D01*
X141769316Y-148143083D01*
X141878375Y-148205826D01*
X141976297Y-148262183D01*
X142062227Y-148311661D01*
X142135304Y-148353768D01*
X142194673Y-148388012D01*
X142239475Y-148413899D01*
X142268851Y-148430937D01*
X142281945Y-148438633D01*
X142282570Y-148439036D01*
X142283818Y-148449992D01*
X142284927Y-148479292D01*
X142285884Y-148525278D01*
X142286678Y-148586293D01*
X142287296Y-148660682D01*
X142287726Y-148746789D01*
X142287956Y-148842955D01*
X142287974Y-148947525D01*
X142287767Y-149058842D01*
X142287570Y-149117893D01*
X142285000Y-149789645D01*
X139325198Y-148090419D01*
X139099659Y-147960917D01*
X138878591Y-147833944D01*
X138662623Y-147709863D01*
X138452385Y-147589036D01*
X138248507Y-147471827D01*
X138051617Y-147358598D01*
X137862345Y-147249711D01*
X137681320Y-147145530D01*
X137509172Y-147046418D01*
X137346531Y-146952736D01*
X137194024Y-146864848D01*
X137052283Y-146783117D01*
X136921936Y-146707904D01*
X136803613Y-146639574D01*
X136697943Y-146578489D01*
X136605555Y-146525011D01*
X136527079Y-146479504D01*
X136463145Y-146442330D01*
X136414381Y-146413851D01*
X136381417Y-146394431D01*
X136364882Y-146384432D01*
X136362966Y-146383096D01*
X136370945Y-146376789D01*
X136394788Y-146361252D01*
X136433087Y-146337335D01*
X136484431Y-146305890D01*
X136547412Y-146267769D01*
X136620621Y-146223821D01*
X136702649Y-146174898D01*
X136792086Y-146121851D01*
X136887523Y-146065531D01*
X136935544Y-146037296D01*
X137049987Y-145970137D01*
X137148469Y-145912495D01*
X137232235Y-145863691D01*
X137302528Y-145823045D01*
X137360595Y-145789878D01*
X137407678Y-145763510D01*
X137445024Y-145743263D01*
X137473876Y-145728458D01*
X137495479Y-145718414D01*
X137511078Y-145712453D01*
X137521917Y-145709895D01*
X137529241Y-145710062D01*
X137529241Y-145710062D01*
G37*
X137529241Y-145710062D02*
X137532776Y-145711345D01*
X137545264Y-145718338D01*
X137574066Y-145734708D01*
X137618324Y-145759963D01*
X137677180Y-145793611D01*
X137749776Y-145835159D01*
X137835255Y-145884114D01*
X137932758Y-145939983D01*
X138041429Y-146002275D01*
X138160408Y-146070496D01*
X138288839Y-146144154D01*
X138425863Y-146222755D01*
X138570623Y-146305809D01*
X138722261Y-146392821D01*
X138879920Y-146483300D01*
X139042740Y-146576753D01*
X139209865Y-146672686D01*
X139380437Y-146770608D01*
X139553597Y-146870026D01*
X139728489Y-146970447D01*
X139904254Y-147071379D01*
X140080034Y-147172329D01*
X140254973Y-147272805D01*
X140428211Y-147372313D01*
X140598891Y-147470361D01*
X140766156Y-147566457D01*
X140929147Y-147660108D01*
X141087007Y-147750822D01*
X141238878Y-147838105D01*
X141383903Y-147921465D01*
X141521222Y-148000410D01*
X141649979Y-148074447D01*
X141769316Y-148143083D01*
X141878375Y-148205826D01*
X141976297Y-148262183D01*
X142062227Y-148311661D01*
X142135304Y-148353768D01*
X142194673Y-148388012D01*
X142239475Y-148413899D01*
X142268851Y-148430937D01*
X142281945Y-148438633D01*
X142282570Y-148439036D01*
X142283818Y-148449992D01*
X142284927Y-148479292D01*
X142285884Y-148525278D01*
X142286678Y-148586293D01*
X142287296Y-148660682D01*
X142287726Y-148746789D01*
X142287956Y-148842955D01*
X142287974Y-148947525D01*
X142287767Y-149058842D01*
X142287570Y-149117893D01*
X142285000Y-149789645D01*
X139325198Y-148090419D01*
X139099659Y-147960917D01*
X138878591Y-147833944D01*
X138662623Y-147709863D01*
X138452385Y-147589036D01*
X138248507Y-147471827D01*
X138051617Y-147358598D01*
X137862345Y-147249711D01*
X137681320Y-147145530D01*
X137509172Y-147046418D01*
X137346531Y-146952736D01*
X137194024Y-146864848D01*
X137052283Y-146783117D01*
X136921936Y-146707904D01*
X136803613Y-146639574D01*
X136697943Y-146578489D01*
X136605555Y-146525011D01*
X136527079Y-146479504D01*
X136463145Y-146442330D01*
X136414381Y-146413851D01*
X136381417Y-146394431D01*
X136364882Y-146384432D01*
X136362966Y-146383096D01*
X136370945Y-146376789D01*
X136394788Y-146361252D01*
X136433087Y-146337335D01*
X136484431Y-146305890D01*
X136547412Y-146267769D01*
X136620621Y-146223821D01*
X136702649Y-146174898D01*
X136792086Y-146121851D01*
X136887523Y-146065531D01*
X136935544Y-146037296D01*
X137049987Y-145970137D01*
X137148469Y-145912495D01*
X137232235Y-145863691D01*
X137302528Y-145823045D01*
X137360595Y-145789878D01*
X137407678Y-145763510D01*
X137445024Y-145743263D01*
X137473876Y-145728458D01*
X137495479Y-145718414D01*
X137511078Y-145712453D01*
X137521917Y-145709895D01*
X137529241Y-145710062D01*
D11*
X136000000Y-61600000D02*
X136600000Y-61000000D01*
X136000000Y-65000000D02*
X136000000Y-61000000D01*
X140000000Y-65000000D02*
X136000000Y-65000000D01*
X140000000Y-61000000D02*
X140000000Y-65000000D01*
X136000000Y-61000000D02*
X140000000Y-61000000D01*
X131833334Y-55952381D02*
X131500000Y-55476190D01*
X131261905Y-55952381D02*
X131261905Y-54952381D01*
X131642858Y-54952381D01*
X131738096Y-55000000D01*
X131785715Y-55047619D01*
X131833334Y-55142857D01*
X131833334Y-55285714D01*
X131785715Y-55380952D01*
X131738096Y-55428571D01*
X131642858Y-55476190D01*
X131261905Y-55476190D01*
X132785715Y-55952381D02*
X132214286Y-55952381D01*
X132500000Y-55952381D02*
X132500000Y-54952381D01*
X132404762Y-55095238D01*
X132309524Y-55190476D01*
X132214286Y-55238095D01*
X129833334Y-55952381D02*
X129500000Y-55476190D01*
X129261905Y-55952381D02*
X129261905Y-54952381D01*
X129642858Y-54952381D01*
X129738096Y-55000000D01*
X129785715Y-55047619D01*
X129833334Y-55142857D01*
X129833334Y-55285714D01*
X129785715Y-55380952D01*
X129738096Y-55428571D01*
X129642858Y-55476190D01*
X129261905Y-55476190D01*
X130214286Y-55047619D02*
X130261905Y-55000000D01*
X130357143Y-54952381D01*
X130595239Y-54952381D01*
X130690477Y-55000000D01*
X130738096Y-55047619D01*
X130785715Y-55142857D01*
X130785715Y-55238095D01*
X130738096Y-55380952D01*
X130166667Y-55952381D01*
X130785715Y-55952381D01*
X131404762Y-50547619D02*
X131309524Y-50500000D01*
X131214286Y-50404762D01*
X131071429Y-50261905D01*
X130976190Y-50214286D01*
X130880952Y-50214286D01*
X130928571Y-50452381D02*
X130833333Y-50404762D01*
X130738095Y-50309524D01*
X130690476Y-50119048D01*
X130690476Y-49785714D01*
X130738095Y-49595238D01*
X130833333Y-49500000D01*
X130928571Y-49452381D01*
X131119048Y-49452381D01*
X131214286Y-49500000D01*
X131309524Y-49595238D01*
X131357143Y-49785714D01*
X131357143Y-50119048D01*
X131309524Y-50309524D01*
X131214286Y-50404762D01*
X131119048Y-50452381D01*
X130928571Y-50452381D01*
X132309524Y-50452381D02*
X131738095Y-50452381D01*
X132023809Y-50452381D02*
X132023809Y-49452381D01*
X131928571Y-49595238D01*
X131833333Y-49690476D01*
X131738095Y-49738095D01*
X135583334Y-57607143D02*
X135535715Y-57654762D01*
X135392858Y-57702381D01*
X135297620Y-57702381D01*
X135154762Y-57654762D01*
X135059524Y-57559524D01*
X135011905Y-57464286D01*
X134964286Y-57273810D01*
X134964286Y-57130952D01*
X135011905Y-56940476D01*
X135059524Y-56845238D01*
X135154762Y-56750000D01*
X135297620Y-56702381D01*
X135392858Y-56702381D01*
X135535715Y-56750000D01*
X135583334Y-56797619D01*
X135964286Y-56797619D02*
X136011905Y-56750000D01*
X136107143Y-56702381D01*
X136345239Y-56702381D01*
X136440477Y-56750000D01*
X136488096Y-56797619D01*
X136535715Y-56892857D01*
X136535715Y-56988095D01*
X136488096Y-57130952D01*
X135916667Y-57702381D01*
X136535715Y-57702381D01*
X145833334Y-37857143D02*
X145785715Y-37904762D01*
X145642858Y-37952381D01*
X145547620Y-37952381D01*
X145404762Y-37904762D01*
X145309524Y-37809524D01*
X145261905Y-37714286D01*
X145214286Y-37523810D01*
X145214286Y-37380952D01*
X145261905Y-37190476D01*
X145309524Y-37095238D01*
X145404762Y-37000000D01*
X145547620Y-36952381D01*
X145642858Y-36952381D01*
X145785715Y-37000000D01*
X145833334Y-37047619D01*
X146166667Y-36952381D02*
X146785715Y-36952381D01*
X146452381Y-37333333D01*
X146595239Y-37333333D01*
X146690477Y-37380952D01*
X146738096Y-37428571D01*
X146785715Y-37523810D01*
X146785715Y-37761905D01*
X146738096Y-37857143D01*
X146690477Y-37904762D01*
X146595239Y-37952381D01*
X146309524Y-37952381D01*
X146214286Y-37904762D01*
X146166667Y-37857143D01*
X148011905Y-57952381D02*
X148011905Y-56952381D01*
X148392858Y-56952381D01*
X148488096Y-57000000D01*
X148535715Y-57047619D01*
X148583334Y-57142857D01*
X148583334Y-57285714D01*
X148535715Y-57380952D01*
X148488096Y-57428571D01*
X148392858Y-57476190D01*
X148011905Y-57476190D01*
X149488096Y-56952381D02*
X149011905Y-56952381D01*
X148964286Y-57428571D01*
X149011905Y-57380952D01*
X149107143Y-57333333D01*
X149345239Y-57333333D01*
X149440477Y-57380952D01*
X149488096Y-57428571D01*
X149535715Y-57523810D01*
X149535715Y-57761905D01*
X149488096Y-57857143D01*
X149440477Y-57904762D01*
X149345239Y-57952381D01*
X149107143Y-57952381D01*
X149011905Y-57904762D01*
X148964286Y-57857143D01*
X137333334Y-46452381D02*
X137000000Y-45976190D01*
X136761905Y-46452381D02*
X136761905Y-45452381D01*
X137142858Y-45452381D01*
X137238096Y-45500000D01*
X137285715Y-45547619D01*
X137333334Y-45642857D01*
X137333334Y-45785714D01*
X137285715Y-45880952D01*
X137238096Y-45928571D01*
X137142858Y-45976190D01*
X136761905Y-45976190D01*
X137666667Y-45452381D02*
X138285715Y-45452381D01*
X137952381Y-45833333D01*
X138095239Y-45833333D01*
X138190477Y-45880952D01*
X138238096Y-45928571D01*
X138285715Y-46023810D01*
X138285715Y-46261905D01*
X138238096Y-46357143D01*
X138190477Y-46404762D01*
X138095239Y-46452381D01*
X137809524Y-46452381D01*
X137714286Y-46404762D01*
X137666667Y-46357143D01*
X145833334Y-39952381D02*
X145500000Y-39476190D01*
X145261905Y-39952381D02*
X145261905Y-38952381D01*
X145642858Y-38952381D01*
X145738096Y-39000000D01*
X145785715Y-39047619D01*
X145833334Y-39142857D01*
X145833334Y-39285714D01*
X145785715Y-39380952D01*
X145738096Y-39428571D01*
X145642858Y-39476190D01*
X145261905Y-39476190D01*
X146690477Y-39285714D02*
X146690477Y-39952381D01*
X146452381Y-38904762D02*
X146214286Y-39619048D01*
X146833334Y-39619048D01*
X136833334Y-38952381D02*
X136500000Y-38476190D01*
X136261905Y-38952381D02*
X136261905Y-37952381D01*
X136642858Y-37952381D01*
X136738096Y-38000000D01*
X136785715Y-38047619D01*
X136833334Y-38142857D01*
X136833334Y-38285714D01*
X136785715Y-38380952D01*
X136738096Y-38428571D01*
X136642858Y-38476190D01*
X136261905Y-38476190D01*
X137738096Y-37952381D02*
X137261905Y-37952381D01*
X137214286Y-38428571D01*
X137261905Y-38380952D01*
X137357143Y-38333333D01*
X137595239Y-38333333D01*
X137690477Y-38380952D01*
X137738096Y-38428571D01*
X137785715Y-38523810D01*
X137785715Y-38761905D01*
X137738096Y-38857143D01*
X137690477Y-38904762D01*
X137595239Y-38952381D01*
X137357143Y-38952381D01*
X137261905Y-38904762D01*
X137214286Y-38857143D01*
X137238095Y-52952381D02*
X137238095Y-53761905D01*
X137285714Y-53857143D01*
X137333333Y-53904762D01*
X137428571Y-53952381D01*
X137619048Y-53952381D01*
X137714286Y-53904762D01*
X137761905Y-53857143D01*
X137809524Y-53761905D01*
X137809524Y-52952381D01*
X138809524Y-53952381D02*
X138238095Y-53952381D01*
X138523809Y-53952381D02*
X138523809Y-52952381D01*
X138428571Y-53095238D01*
X138333333Y-53190476D01*
X138238095Y-53238095D01*
X140833334Y-46357143D02*
X140785715Y-46404762D01*
X140642858Y-46452381D01*
X140547620Y-46452381D01*
X140404762Y-46404762D01*
X140309524Y-46309524D01*
X140261905Y-46214286D01*
X140214286Y-46023810D01*
X140214286Y-45880952D01*
X140261905Y-45690476D01*
X140309524Y-45595238D01*
X140404762Y-45500000D01*
X140547620Y-45452381D01*
X140642858Y-45452381D01*
X140785715Y-45500000D01*
X140833334Y-45547619D01*
X141738096Y-45452381D02*
X141261905Y-45452381D01*
X141214286Y-45928571D01*
X141261905Y-45880952D01*
X141357143Y-45833333D01*
X141595239Y-45833333D01*
X141690477Y-45880952D01*
X141738096Y-45928571D01*
X141785715Y-46023810D01*
X141785715Y-46261905D01*
X141738096Y-46357143D01*
X141690477Y-46404762D01*
X141595239Y-46452381D01*
X141357143Y-46452381D01*
X141261905Y-46404762D01*
X141214286Y-46357143D01*
X125690476Y-50404762D02*
X125833333Y-50452381D01*
X126071429Y-50452381D01*
X126166667Y-50404762D01*
X126214286Y-50357143D01*
X126261905Y-50261905D01*
X126261905Y-50166667D01*
X126214286Y-50071429D01*
X126166667Y-50023810D01*
X126071429Y-49976190D01*
X125880952Y-49928571D01*
X125785714Y-49880952D01*
X125738095Y-49833333D01*
X125690476Y-49738095D01*
X125690476Y-49642857D01*
X125738095Y-49547619D01*
X125785714Y-49500000D01*
X125880952Y-49452381D01*
X126119048Y-49452381D01*
X126261905Y-49500000D01*
X126595238Y-49452381D02*
X126833333Y-50452381D01*
X127023810Y-49738095D01*
X127214286Y-50452381D01*
X127452381Y-49452381D01*
X128357143Y-50452381D02*
X127785714Y-50452381D01*
X128071428Y-50452381D02*
X128071428Y-49452381D01*
X127976190Y-49595238D01*
X127880952Y-49690476D01*
X127785714Y-49738095D01*
X128738095Y-49547619D02*
X128785714Y-49500000D01*
X128880952Y-49452381D01*
X129119048Y-49452381D01*
X129214286Y-49500000D01*
X129261905Y-49547619D01*
X129309524Y-49642857D01*
X129309524Y-49738095D01*
X129261905Y-49880952D01*
X128690476Y-50452381D01*
X129309524Y-50452381D01*
X125690476Y-107904762D02*
X125833333Y-107952381D01*
X126071429Y-107952381D01*
X126166667Y-107904762D01*
X126214286Y-107857143D01*
X126261905Y-107761905D01*
X126261905Y-107666667D01*
X126214286Y-107571429D01*
X126166667Y-107523810D01*
X126071429Y-107476190D01*
X125880952Y-107428571D01*
X125785714Y-107380952D01*
X125738095Y-107333333D01*
X125690476Y-107238095D01*
X125690476Y-107142857D01*
X125738095Y-107047619D01*
X125785714Y-107000000D01*
X125880952Y-106952381D01*
X126119048Y-106952381D01*
X126261905Y-107000000D01*
X126595238Y-106952381D02*
X126833333Y-107952381D01*
X127023810Y-107238095D01*
X127214286Y-107952381D01*
X127452381Y-106952381D01*
X128357143Y-107952381D02*
X127785714Y-107952381D01*
X128071428Y-107952381D02*
X128071428Y-106952381D01*
X127976190Y-107095238D01*
X127880952Y-107190476D01*
X127785714Y-107238095D01*
X128690476Y-106952381D02*
X129309524Y-106952381D01*
X128976190Y-107333333D01*
X129119048Y-107333333D01*
X129214286Y-107380952D01*
X129261905Y-107428571D01*
X129309524Y-107523810D01*
X129309524Y-107761905D01*
X129261905Y-107857143D01*
X129214286Y-107904762D01*
X129119048Y-107952381D01*
X128833333Y-107952381D01*
X128738095Y-107904762D01*
X128690476Y-107857143D01*
X145690476Y-149404762D02*
X145833333Y-149452381D01*
X146071429Y-149452381D01*
X146166667Y-149404762D01*
X146214286Y-149357143D01*
X146261905Y-149261905D01*
X146261905Y-149166667D01*
X146214286Y-149071429D01*
X146166667Y-149023810D01*
X146071429Y-148976190D01*
X145880952Y-148928571D01*
X145785714Y-148880952D01*
X145738095Y-148833333D01*
X145690476Y-148738095D01*
X145690476Y-148642857D01*
X145738095Y-148547619D01*
X145785714Y-148500000D01*
X145880952Y-148452381D01*
X146119048Y-148452381D01*
X146261905Y-148500000D01*
X146595238Y-148452381D02*
X146833333Y-149452381D01*
X147023810Y-148738095D01*
X147214286Y-149452381D01*
X147452381Y-148452381D01*
X148357143Y-149452381D02*
X147785714Y-149452381D01*
X148071428Y-149452381D02*
X148071428Y-148452381D01*
X147976190Y-148595238D01*
X147880952Y-148690476D01*
X147785714Y-148738095D01*
X149214286Y-148785714D02*
X149214286Y-149452381D01*
X148976190Y-148404762D02*
X148738095Y-149119048D01*
X149357143Y-149119048D01*
X145690476Y-87904762D02*
X145833333Y-87952381D01*
X146071429Y-87952381D01*
X146166667Y-87904762D01*
X146214286Y-87857143D01*
X146261905Y-87761905D01*
X146261905Y-87666667D01*
X146214286Y-87571429D01*
X146166667Y-87523810D01*
X146071429Y-87476190D01*
X145880952Y-87428571D01*
X145785714Y-87380952D01*
X145738095Y-87333333D01*
X145690476Y-87238095D01*
X145690476Y-87142857D01*
X145738095Y-87047619D01*
X145785714Y-87000000D01*
X145880952Y-86952381D01*
X146119048Y-86952381D01*
X146261905Y-87000000D01*
X146595238Y-86952381D02*
X146833333Y-87952381D01*
X147023810Y-87238095D01*
X147214286Y-87952381D01*
X147452381Y-86952381D01*
X148357143Y-87952381D02*
X147785714Y-87952381D01*
X148071428Y-87952381D02*
X148071428Y-86952381D01*
X147976190Y-87095238D01*
X147880952Y-87190476D01*
X147785714Y-87238095D01*
X149261905Y-86952381D02*
X148785714Y-86952381D01*
X148738095Y-87428571D01*
X148785714Y-87380952D01*
X148880952Y-87333333D01*
X149119048Y-87333333D01*
X149214286Y-87380952D01*
X149261905Y-87428571D01*
X149309524Y-87523810D01*
X149309524Y-87761905D01*
X149261905Y-87857143D01*
X149214286Y-87904762D01*
X149119048Y-87952381D01*
X148880952Y-87952381D01*
X148785714Y-87904762D01*
X148738095Y-87857143D01*
X125690476Y-67904762D02*
X125833333Y-67952381D01*
X126071429Y-67952381D01*
X126166667Y-67904762D01*
X126214286Y-67857143D01*
X126261905Y-67761905D01*
X126261905Y-67666667D01*
X126214286Y-67571429D01*
X126166667Y-67523810D01*
X126071429Y-67476190D01*
X125880952Y-67428571D01*
X125785714Y-67380952D01*
X125738095Y-67333333D01*
X125690476Y-67238095D01*
X125690476Y-67142857D01*
X125738095Y-67047619D01*
X125785714Y-67000000D01*
X125880952Y-66952381D01*
X126119048Y-66952381D01*
X126261905Y-67000000D01*
X126595238Y-66952381D02*
X126833333Y-67952381D01*
X127023810Y-67238095D01*
X127214286Y-67952381D01*
X127452381Y-66952381D01*
X128357143Y-67952381D02*
X127785714Y-67952381D01*
X128071428Y-67952381D02*
X128071428Y-66952381D01*
X127976190Y-67095238D01*
X127880952Y-67190476D01*
X127785714Y-67238095D01*
X129214286Y-66952381D02*
X129023809Y-66952381D01*
X128928571Y-67000000D01*
X128880952Y-67047619D01*
X128785714Y-67190476D01*
X128738095Y-67380952D01*
X128738095Y-67761905D01*
X128785714Y-67857143D01*
X128833333Y-67904762D01*
X128928571Y-67952381D01*
X129119048Y-67952381D01*
X129214286Y-67904762D01*
X129261905Y-67857143D01*
X129309524Y-67761905D01*
X129309524Y-67523810D01*
X129261905Y-67428571D01*
X129214286Y-67380952D01*
X129119048Y-67333333D01*
X128928571Y-67333333D01*
X128833333Y-67380952D01*
X128785714Y-67428571D01*
X128738095Y-67523810D01*
X125690476Y-130404762D02*
X125833333Y-130452381D01*
X126071429Y-130452381D01*
X126166667Y-130404762D01*
X126214286Y-130357143D01*
X126261905Y-130261905D01*
X126261905Y-130166667D01*
X126214286Y-130071429D01*
X126166667Y-130023810D01*
X126071429Y-129976190D01*
X125880952Y-129928571D01*
X125785714Y-129880952D01*
X125738095Y-129833333D01*
X125690476Y-129738095D01*
X125690476Y-129642857D01*
X125738095Y-129547619D01*
X125785714Y-129500000D01*
X125880952Y-129452381D01*
X126119048Y-129452381D01*
X126261905Y-129500000D01*
X126595238Y-129452381D02*
X126833333Y-130452381D01*
X127023810Y-129738095D01*
X127214286Y-130452381D01*
X127452381Y-129452381D01*
X128357143Y-130452381D02*
X127785714Y-130452381D01*
X128071428Y-130452381D02*
X128071428Y-129452381D01*
X127976190Y-129595238D01*
X127880952Y-129690476D01*
X127785714Y-129738095D01*
X128690476Y-129452381D02*
X129357143Y-129452381D01*
X128928571Y-130452381D01*
X145690476Y-126404762D02*
X145833333Y-126452381D01*
X146071429Y-126452381D01*
X146166667Y-126404762D01*
X146214286Y-126357143D01*
X146261905Y-126261905D01*
X146261905Y-126166667D01*
X146214286Y-126071429D01*
X146166667Y-126023810D01*
X146071429Y-125976190D01*
X145880952Y-125928571D01*
X145785714Y-125880952D01*
X145738095Y-125833333D01*
X145690476Y-125738095D01*
X145690476Y-125642857D01*
X145738095Y-125547619D01*
X145785714Y-125500000D01*
X145880952Y-125452381D01*
X146119048Y-125452381D01*
X146261905Y-125500000D01*
X146595238Y-125452381D02*
X146833333Y-126452381D01*
X147023810Y-125738095D01*
X147214286Y-126452381D01*
X147452381Y-125452381D01*
X148357143Y-126452381D02*
X147785714Y-126452381D01*
X148071428Y-126452381D02*
X148071428Y-125452381D01*
X147976190Y-125595238D01*
X147880952Y-125690476D01*
X147785714Y-125738095D01*
X148928571Y-125880952D02*
X148833333Y-125833333D01*
X148785714Y-125785714D01*
X148738095Y-125690476D01*
X148738095Y-125642857D01*
X148785714Y-125547619D01*
X148833333Y-125500000D01*
X148928571Y-125452381D01*
X149119048Y-125452381D01*
X149214286Y-125500000D01*
X149261905Y-125547619D01*
X149309524Y-125642857D01*
X149309524Y-125690476D01*
X149261905Y-125785714D01*
X149214286Y-125833333D01*
X149119048Y-125880952D01*
X148928571Y-125880952D01*
X148833333Y-125928571D01*
X148785714Y-125976190D01*
X148738095Y-126071429D01*
X148738095Y-126261905D01*
X148785714Y-126357143D01*
X148833333Y-126404762D01*
X148928571Y-126452381D01*
X149119048Y-126452381D01*
X149214286Y-126404762D01*
X149261905Y-126357143D01*
X149309524Y-126261905D01*
X149309524Y-126071429D01*
X149261905Y-125976190D01*
X149214286Y-125928571D01*
X149119048Y-125880952D01*
X145690476Y-67904762D02*
X145833333Y-67952381D01*
X146071429Y-67952381D01*
X146166667Y-67904762D01*
X146214286Y-67857143D01*
X146261905Y-67761905D01*
X146261905Y-67666667D01*
X146214286Y-67571429D01*
X146166667Y-67523810D01*
X146071429Y-67476190D01*
X145880952Y-67428571D01*
X145785714Y-67380952D01*
X145738095Y-67333333D01*
X145690476Y-67238095D01*
X145690476Y-67142857D01*
X145738095Y-67047619D01*
X145785714Y-67000000D01*
X145880952Y-66952381D01*
X146119048Y-66952381D01*
X146261905Y-67000000D01*
X146595238Y-66952381D02*
X146833333Y-67952381D01*
X147023810Y-67238095D01*
X147214286Y-67952381D01*
X147452381Y-66952381D01*
X148357143Y-67952381D02*
X147785714Y-67952381D01*
X148071428Y-67952381D02*
X148071428Y-66952381D01*
X147976190Y-67095238D01*
X147880952Y-67190476D01*
X147785714Y-67238095D01*
X148833333Y-67952381D02*
X149023809Y-67952381D01*
X149119048Y-67904762D01*
X149166667Y-67857143D01*
X149261905Y-67714286D01*
X149309524Y-67523810D01*
X149309524Y-67142857D01*
X149261905Y-67047619D01*
X149214286Y-67000000D01*
X149119048Y-66952381D01*
X148928571Y-66952381D01*
X148833333Y-67000000D01*
X148785714Y-67047619D01*
X148738095Y-67142857D01*
X148738095Y-67380952D01*
X148785714Y-67476190D01*
X148833333Y-67523810D01*
X148928571Y-67571429D01*
X149119048Y-67571429D01*
X149214286Y-67523810D01*
X149261905Y-67476190D01*
X149309524Y-67380952D01*
X125690476Y-87904762D02*
X125833333Y-87952381D01*
X126071429Y-87952381D01*
X126166667Y-87904762D01*
X126214286Y-87857143D01*
X126261905Y-87761905D01*
X126261905Y-87666667D01*
X126214286Y-87571429D01*
X126166667Y-87523810D01*
X126071429Y-87476190D01*
X125880952Y-87428571D01*
X125785714Y-87380952D01*
X125738095Y-87333333D01*
X125690476Y-87238095D01*
X125690476Y-87142857D01*
X125738095Y-87047619D01*
X125785714Y-87000000D01*
X125880952Y-86952381D01*
X126119048Y-86952381D01*
X126261905Y-87000000D01*
X126595238Y-86952381D02*
X126833333Y-87952381D01*
X127023810Y-87238095D01*
X127214286Y-87952381D01*
X127452381Y-86952381D01*
X127785714Y-87047619D02*
X127833333Y-87000000D01*
X127928571Y-86952381D01*
X128166667Y-86952381D01*
X128261905Y-87000000D01*
X128309524Y-87047619D01*
X128357143Y-87142857D01*
X128357143Y-87238095D01*
X128309524Y-87380952D01*
X127738095Y-87952381D01*
X128357143Y-87952381D01*
X128976190Y-86952381D02*
X129071429Y-86952381D01*
X129166667Y-87000000D01*
X129214286Y-87047619D01*
X129261905Y-87142857D01*
X129309524Y-87333333D01*
X129309524Y-87571429D01*
X129261905Y-87761905D01*
X129214286Y-87857143D01*
X129166667Y-87904762D01*
X129071429Y-87952381D01*
X128976190Y-87952381D01*
X128880952Y-87904762D01*
X128833333Y-87857143D01*
X128785714Y-87761905D01*
X128738095Y-87571429D01*
X128738095Y-87333333D01*
X128785714Y-87142857D01*
X128833333Y-87047619D01*
X128880952Y-87000000D01*
X128976190Y-86952381D01*
X125690476Y-145404762D02*
X125833333Y-145452381D01*
X126071429Y-145452381D01*
X126166667Y-145404762D01*
X126214286Y-145357143D01*
X126261905Y-145261905D01*
X126261905Y-145166667D01*
X126214286Y-145071429D01*
X126166667Y-145023810D01*
X126071429Y-144976190D01*
X125880952Y-144928571D01*
X125785714Y-144880952D01*
X125738095Y-144833333D01*
X125690476Y-144738095D01*
X125690476Y-144642857D01*
X125738095Y-144547619D01*
X125785714Y-144500000D01*
X125880952Y-144452381D01*
X126119048Y-144452381D01*
X126261905Y-144500000D01*
X126595238Y-144452381D02*
X126833333Y-145452381D01*
X127023810Y-144738095D01*
X127214286Y-145452381D01*
X127452381Y-144452381D01*
X127785714Y-144547619D02*
X127833333Y-144500000D01*
X127928571Y-144452381D01*
X128166667Y-144452381D01*
X128261905Y-144500000D01*
X128309524Y-144547619D01*
X128357143Y-144642857D01*
X128357143Y-144738095D01*
X128309524Y-144880952D01*
X127738095Y-145452381D01*
X128357143Y-145452381D01*
X129309524Y-145452381D02*
X128738095Y-145452381D01*
X129023809Y-145452381D02*
X129023809Y-144452381D01*
X128928571Y-144595238D01*
X128833333Y-144690476D01*
X128738095Y-144738095D01*
X145690476Y-107904762D02*
X145833333Y-107952381D01*
X146071429Y-107952381D01*
X146166667Y-107904762D01*
X146214286Y-107857143D01*
X146261905Y-107761905D01*
X146261905Y-107666667D01*
X146214286Y-107571429D01*
X146166667Y-107523810D01*
X146071429Y-107476190D01*
X145880952Y-107428571D01*
X145785714Y-107380952D01*
X145738095Y-107333333D01*
X145690476Y-107238095D01*
X145690476Y-107142857D01*
X145738095Y-107047619D01*
X145785714Y-107000000D01*
X145880952Y-106952381D01*
X146119048Y-106952381D01*
X146261905Y-107000000D01*
X146595238Y-106952381D02*
X146833333Y-107952381D01*
X147023810Y-107238095D01*
X147214286Y-107952381D01*
X147452381Y-106952381D01*
X147785714Y-107047619D02*
X147833333Y-107000000D01*
X147928571Y-106952381D01*
X148166667Y-106952381D01*
X148261905Y-107000000D01*
X148309524Y-107047619D01*
X148357143Y-107142857D01*
X148357143Y-107238095D01*
X148309524Y-107380952D01*
X147738095Y-107952381D01*
X148357143Y-107952381D01*
X148738095Y-107047619D02*
X148785714Y-107000000D01*
X148880952Y-106952381D01*
X149119048Y-106952381D01*
X149214286Y-107000000D01*
X149261905Y-107047619D01*
X149309524Y-107142857D01*
X149309524Y-107238095D01*
X149261905Y-107380952D01*
X148690476Y-107952381D01*
X149309524Y-107952381D01*
X125261905Y-55952381D02*
X125261905Y-54952381D01*
X125642858Y-54952381D01*
X125738096Y-55000000D01*
X125785715Y-55047619D01*
X125833334Y-55142857D01*
X125833334Y-55285714D01*
X125785715Y-55380952D01*
X125738096Y-55428571D01*
X125642858Y-55476190D01*
X125261905Y-55476190D01*
X126690477Y-54952381D02*
X126500000Y-54952381D01*
X126404762Y-55000000D01*
X126357143Y-55047619D01*
X126261905Y-55190476D01*
X126214286Y-55380952D01*
X126214286Y-55761905D01*
X126261905Y-55857143D01*
X126309524Y-55904762D01*
X126404762Y-55952381D01*
X126595239Y-55952381D01*
X126690477Y-55904762D01*
X126738096Y-55857143D01*
X126785715Y-55761905D01*
X126785715Y-55523810D01*
X126738096Y-55428571D01*
X126690477Y-55380952D01*
X126595239Y-55333333D01*
X126404762Y-55333333D01*
X126309524Y-55380952D01*
X126261905Y-55428571D01*
X126214286Y-55523810D01*
X137123810Y-66752381D02*
X137123810Y-65752381D01*
X138171429Y-66657143D02*
X138123810Y-66704762D01*
X137980953Y-66752381D01*
X137885715Y-66752381D01*
X137742857Y-66704762D01*
X137647619Y-66609524D01*
X137600000Y-66514286D01*
X137552381Y-66323810D01*
X137552381Y-66180952D01*
X137600000Y-65990476D01*
X137647619Y-65895238D01*
X137742857Y-65800000D01*
X137885715Y-65752381D01*
X137980953Y-65752381D01*
X138123810Y-65800000D01*
X138171429Y-65847619D01*
X138552381Y-65847619D02*
X138600000Y-65800000D01*
X138695238Y-65752381D01*
X138933334Y-65752381D01*
X139028572Y-65800000D01*
X139076191Y-65847619D01*
X139123810Y-65942857D01*
X139123810Y-66038095D01*
X139076191Y-66180952D01*
X138504762Y-66752381D01*
X139123810Y-66752381D01*
M02*
