G04 #@! TF.FileFunction,Copper,L1,Top,Signal*
%FSLAX46Y46*%
G04 Gerber Fmt 4.6, Leading zero omitted, Abs format (unit mm)*
G04 Created by KiCad (PCBNEW 4.0.4+e1-6308~48~ubuntu14.04.1-stable) date Thu Dec 22 12:45:23 2016*
%MOMM*%
%LPD*%
G01*
G04 APERTURE LIST*
%ADD10C,0.100000*%
%ADD11C,0.300000*%
%ADD12C,1.016000*%
%ADD13R,1.200000X0.900000*%
%ADD14R,0.800100X0.800100*%
%ADD15R,0.950000X1.400000*%
%ADD16R,1.727200X1.727200*%
%ADD17O,1.727200X1.727200*%
%ADD18R,0.900000X1.200000*%
%ADD19R,1.550000X0.600000*%
%ADD20C,1.650000*%
%ADD21R,1.400000X0.950000*%
%ADD22R,1.900000X2.000000*%
%ADD23C,1.900000*%
%ADD24C,2.020000*%
%ADD25C,1.600000*%
%ADD26R,2.032000X2.032000*%
%ADD27O,2.032000X2.032000*%
%ADD28R,0.800000X0.300000*%
%ADD29R,0.300000X0.800000*%
%ADD30R,1.250000X1.250000*%
%ADD31C,1.000000*%
%ADD32C,0.400000*%
%ADD33C,0.500000*%
%ADD34C,0.250000*%
%ADD35C,0.254000*%
G04 APERTURE END LIST*
D10*
D11*
X130678572Y-168403571D02*
X130178572Y-167689286D01*
X129821429Y-168403571D02*
X129821429Y-166903571D01*
X130392857Y-166903571D01*
X130535715Y-166975000D01*
X130607143Y-167046429D01*
X130678572Y-167189286D01*
X130678572Y-167403571D01*
X130607143Y-167546429D01*
X130535715Y-167617857D01*
X130392857Y-167689286D01*
X129821429Y-167689286D01*
X131321429Y-167617857D02*
X131821429Y-167617857D01*
X132035715Y-168403571D02*
X131321429Y-168403571D01*
X131321429Y-166903571D01*
X132035715Y-166903571D01*
X132678572Y-168403571D02*
X132678572Y-166903571D01*
X133178572Y-167975000D01*
X133678572Y-166903571D01*
X133678572Y-168403571D01*
X134678572Y-166903571D02*
X134964286Y-166903571D01*
X135107144Y-166975000D01*
X135250001Y-167117857D01*
X135321429Y-167403571D01*
X135321429Y-167903571D01*
X135250001Y-168189286D01*
X135107144Y-168332143D01*
X134964286Y-168403571D01*
X134678572Y-168403571D01*
X134535715Y-168332143D01*
X134392858Y-168189286D01*
X134321429Y-167903571D01*
X134321429Y-167403571D01*
X134392858Y-167117857D01*
X134535715Y-166975000D01*
X134678572Y-166903571D01*
X135750001Y-166903571D02*
X136607144Y-166903571D01*
X136178573Y-168403571D02*
X136178573Y-166903571D01*
X137107144Y-167617857D02*
X137607144Y-167617857D01*
X137821430Y-168403571D02*
X137107144Y-168403571D01*
X137107144Y-166903571D01*
X137821430Y-166903571D01*
X140464287Y-168403571D02*
X139964287Y-167689286D01*
X139607144Y-168403571D02*
X139607144Y-166903571D01*
X140178572Y-166903571D01*
X140321430Y-166975000D01*
X140392858Y-167046429D01*
X140464287Y-167189286D01*
X140464287Y-167403571D01*
X140392858Y-167546429D01*
X140321430Y-167617857D01*
X140178572Y-167689286D01*
X139607144Y-167689286D01*
X141107144Y-167617857D02*
X141607144Y-167617857D01*
X141821430Y-168403571D02*
X141107144Y-168403571D01*
X141107144Y-166903571D01*
X141821430Y-166903571D01*
X142250001Y-166903571D02*
X142750001Y-168403571D01*
X143250001Y-166903571D01*
X143750001Y-168260714D02*
X143821429Y-168332143D01*
X143750001Y-168403571D01*
X143678572Y-168332143D01*
X143750001Y-168260714D01*
X143750001Y-168403571D01*
X144392858Y-167046429D02*
X144464287Y-166975000D01*
X144607144Y-166903571D01*
X144964287Y-166903571D01*
X145107144Y-166975000D01*
X145178573Y-167046429D01*
X145250001Y-167189286D01*
X145250001Y-167332143D01*
X145178573Y-167546429D01*
X144321430Y-168403571D01*
X145250001Y-168403571D01*
X128928572Y-170953571D02*
X128928572Y-169453571D01*
X129642858Y-170953571D02*
X129642858Y-169453571D01*
X130500001Y-170953571D01*
X130500001Y-169453571D01*
X132000001Y-169525000D02*
X131857144Y-169453571D01*
X131642858Y-169453571D01*
X131428573Y-169525000D01*
X131285715Y-169667857D01*
X131214287Y-169810714D01*
X131142858Y-170096429D01*
X131142858Y-170310714D01*
X131214287Y-170596429D01*
X131285715Y-170739286D01*
X131428573Y-170882143D01*
X131642858Y-170953571D01*
X131785715Y-170953571D01*
X132000001Y-170882143D01*
X132071430Y-170810714D01*
X132071430Y-170310714D01*
X131785715Y-170310714D01*
X132642858Y-170525000D02*
X133357144Y-170525000D01*
X132500001Y-170953571D02*
X133000001Y-169453571D01*
X133500001Y-170953571D01*
X134857144Y-170953571D02*
X134357144Y-170239286D01*
X134000001Y-170953571D02*
X134000001Y-169453571D01*
X134571429Y-169453571D01*
X134714287Y-169525000D01*
X134785715Y-169596429D01*
X134857144Y-169739286D01*
X134857144Y-169953571D01*
X134785715Y-170096429D01*
X134714287Y-170167857D01*
X134571429Y-170239286D01*
X134000001Y-170239286D01*
X135428572Y-170525000D02*
X136142858Y-170525000D01*
X135285715Y-170953571D02*
X135785715Y-169453571D01*
X136285715Y-170953571D01*
X137571429Y-169525000D02*
X137428572Y-169453571D01*
X137214286Y-169453571D01*
X137000001Y-169525000D01*
X136857143Y-169667857D01*
X136785715Y-169810714D01*
X136714286Y-170096429D01*
X136714286Y-170310714D01*
X136785715Y-170596429D01*
X136857143Y-170739286D01*
X137000001Y-170882143D01*
X137214286Y-170953571D01*
X137357143Y-170953571D01*
X137571429Y-170882143D01*
X137642858Y-170810714D01*
X137642858Y-170310714D01*
X137357143Y-170310714D01*
X138285715Y-170167857D02*
X138785715Y-170167857D01*
X139000001Y-170953571D02*
X138285715Y-170953571D01*
X138285715Y-169453571D01*
X139000001Y-169453571D01*
X140714286Y-170525000D02*
X141428572Y-170525000D01*
X140571429Y-170953571D02*
X141071429Y-169453571D01*
X141571429Y-170953571D01*
X142000000Y-170882143D02*
X142214286Y-170953571D01*
X142571429Y-170953571D01*
X142714286Y-170882143D01*
X142785715Y-170810714D01*
X142857143Y-170667857D01*
X142857143Y-170525000D01*
X142785715Y-170382143D01*
X142714286Y-170310714D01*
X142571429Y-170239286D01*
X142285715Y-170167857D01*
X142142857Y-170096429D01*
X142071429Y-170025000D01*
X142000000Y-169882143D01*
X142000000Y-169739286D01*
X142071429Y-169596429D01*
X142142857Y-169525000D01*
X142285715Y-169453571D01*
X142642857Y-169453571D01*
X142857143Y-169525000D01*
X143428571Y-170882143D02*
X143642857Y-170953571D01*
X144000000Y-170953571D01*
X144142857Y-170882143D01*
X144214286Y-170810714D01*
X144285714Y-170667857D01*
X144285714Y-170525000D01*
X144214286Y-170382143D01*
X144142857Y-170310714D01*
X144000000Y-170239286D01*
X143714286Y-170167857D01*
X143571428Y-170096429D01*
X143500000Y-170025000D01*
X143428571Y-169882143D01*
X143428571Y-169739286D01*
X143500000Y-169596429D01*
X143571428Y-169525000D01*
X143714286Y-169453571D01*
X144071428Y-169453571D01*
X144285714Y-169525000D01*
X144714285Y-169453571D02*
X145571428Y-169453571D01*
X145142857Y-170953571D02*
X145142857Y-169453571D01*
X146071428Y-170810714D02*
X146142856Y-170882143D01*
X146071428Y-170953571D01*
X145999999Y-170882143D01*
X146071428Y-170810714D01*
X146071428Y-170953571D01*
D12*
X153500000Y-45000000D03*
X153500000Y-41000000D03*
X146500000Y-34000000D03*
X142500000Y-36000000D03*
D13*
X132000000Y-51950000D03*
X132000000Y-54050000D03*
X130000000Y-51950000D03*
X130000000Y-54050000D03*
D12*
X138000000Y-63000000D03*
D14*
X133050000Y-49500760D03*
X134950000Y-49500760D03*
X134000000Y-47501780D03*
D15*
X135675000Y-59000000D03*
X133825000Y-59000000D03*
X143925000Y-37500000D03*
X142075000Y-37500000D03*
D16*
X150000000Y-55000000D03*
D17*
X147460000Y-55000000D03*
X150000000Y-52460000D03*
X147460000Y-52460000D03*
X150000000Y-49920000D03*
X147460000Y-49920000D03*
D13*
X137500000Y-49550000D03*
X137500000Y-47450000D03*
D18*
X141950000Y-39500000D03*
X144050000Y-39500000D03*
D13*
X139500000Y-39550000D03*
X139500000Y-37450000D03*
D19*
X135300000Y-51595000D03*
X135300000Y-52865000D03*
X135300000Y-54135000D03*
X135300000Y-55405000D03*
X140700000Y-55405000D03*
X140700000Y-54135000D03*
X140700000Y-52865000D03*
X140700000Y-51595000D03*
D20*
X138460000Y-34000000D03*
X141000000Y-34000000D03*
X143540000Y-34000000D03*
D21*
X141000000Y-49425000D03*
X141000000Y-47575000D03*
D22*
X132960000Y-43500000D03*
D23*
X135500000Y-43500000D03*
D24*
X127055000Y-110000000D03*
X135945000Y-110000000D03*
X131500000Y-113050000D03*
X147945000Y-162500000D03*
X139055000Y-162500000D03*
X143500000Y-159450000D03*
X139055000Y-110000000D03*
X147945000Y-110000000D03*
X143500000Y-113050000D03*
X135945000Y-162500000D03*
X127055000Y-162500000D03*
X131500000Y-159450000D03*
D25*
X130000000Y-45000000D03*
X125000000Y-45000000D03*
X130000000Y-102500000D03*
X125000000Y-102500000D03*
X145000000Y-144000000D03*
X150000000Y-144000000D03*
X145000000Y-82500000D03*
X150000000Y-82500000D03*
X130000000Y-62500000D03*
X125000000Y-62500000D03*
X130000000Y-125000000D03*
X125000000Y-125000000D03*
X145000000Y-121000000D03*
X150000000Y-121000000D03*
X145000000Y-62500000D03*
X150000000Y-62500000D03*
X130000000Y-82500000D03*
X125000000Y-82500000D03*
X130000000Y-140000000D03*
X125000000Y-140000000D03*
X145000000Y-102500000D03*
X150000000Y-102500000D03*
D26*
X127000000Y-53000000D03*
D27*
X124460000Y-53000000D03*
D28*
X136000000Y-63000000D03*
X136000000Y-62500000D03*
X136000000Y-62000000D03*
X136000000Y-63500000D03*
X136000000Y-64000000D03*
D29*
X137000000Y-65000000D03*
X137500000Y-65000000D03*
X138000000Y-65000000D03*
X138500000Y-65000000D03*
X139000000Y-65000000D03*
D28*
X140000000Y-64000000D03*
X140000000Y-63500000D03*
X140000000Y-63000000D03*
X140000000Y-62500000D03*
X140000000Y-62000000D03*
D29*
X139000000Y-61000000D03*
X138500000Y-61000000D03*
X138000000Y-61000000D03*
X137500000Y-61000000D03*
X137000000Y-61000000D03*
D30*
X138000000Y-63000000D03*
D31*
X143000000Y-47500000D03*
X140000000Y-66000000D03*
X136000000Y-49500000D03*
X133500000Y-57500000D03*
X133500000Y-55500000D03*
X138500000Y-56750000D03*
X141000000Y-57250000D03*
X133500000Y-52750000D03*
X139000000Y-67500000D03*
X134500000Y-61500000D03*
X133500000Y-51500000D03*
X139500000Y-59250000D03*
D11*
X139500000Y-39550000D02*
X141900000Y-39550000D01*
X141900000Y-39550000D02*
X141950000Y-39500000D01*
D32*
X139500000Y-39550000D02*
X139500000Y-44500000D01*
X139500000Y-44500000D02*
X140500000Y-45500000D01*
D33*
X153500000Y-57750000D02*
X153500000Y-104445000D01*
X153500000Y-104445000D02*
X147945000Y-110000000D01*
D32*
X141000000Y-49425000D02*
X141000000Y-51295000D01*
X141000000Y-51295000D02*
X140700000Y-51595000D01*
X136924992Y-54075008D02*
X136865000Y-54135000D01*
X136865000Y-54135000D02*
X135300000Y-54135000D01*
D33*
X139000000Y-49000000D02*
X139000000Y-51000000D01*
D32*
X140700000Y-51595000D02*
X139525000Y-51595000D01*
D33*
X139000000Y-51000000D02*
X139000000Y-52000000D01*
D32*
X139525000Y-51595000D02*
X139000000Y-51070000D01*
X139000000Y-51070000D02*
X139000000Y-51000000D01*
D33*
X139000000Y-47000000D02*
X139000000Y-49000000D01*
D32*
X139000000Y-49050000D02*
X139000000Y-49000000D01*
X137500000Y-49550000D02*
X138500000Y-49550000D01*
X138500000Y-49550000D02*
X139000000Y-49050000D01*
D33*
X150000000Y-45500000D02*
X142000000Y-45500000D01*
X142000000Y-45500000D02*
X140500000Y-45500000D01*
D32*
X136924992Y-55500000D02*
X136924992Y-54075008D01*
D33*
X139000000Y-52000000D02*
X136924992Y-54075008D01*
X140500000Y-45500000D02*
X139000000Y-47000000D01*
D32*
X136924992Y-56650008D02*
X136924992Y-55500000D01*
D33*
X153500000Y-49000000D02*
X150000000Y-45500000D01*
D32*
X140875000Y-49550000D02*
X141000000Y-49425000D01*
D34*
X135300000Y-54135000D02*
X132085000Y-54135000D01*
X132085000Y-54135000D02*
X132000000Y-54050000D01*
X137000000Y-59500000D02*
X136500000Y-59000000D01*
X136500000Y-59000000D02*
X135675000Y-59000000D01*
X137000000Y-61000000D02*
X137000000Y-59500000D01*
D11*
X140575000Y-51470000D02*
X140700000Y-51595000D01*
X140700000Y-51595000D02*
X140700000Y-52865000D01*
D32*
X135675000Y-59000000D02*
X135675000Y-57900000D01*
X135675000Y-57900000D02*
X136924992Y-56650008D01*
D33*
X153500000Y-57750000D02*
X153500000Y-49000000D01*
D11*
X152250000Y-57000000D02*
X152750000Y-57000000D01*
X152750000Y-57000000D02*
X153500000Y-57750000D01*
X148238686Y-57000000D02*
X152250000Y-57000000D01*
X147460000Y-55000000D02*
X147460000Y-56221314D01*
X147460000Y-56221314D02*
X148238686Y-57000000D01*
X141000000Y-47575000D02*
X142925000Y-47575000D01*
X142925000Y-47575000D02*
X143000000Y-47500000D01*
X142075000Y-37500000D02*
X142075000Y-35075000D01*
X142075000Y-35075000D02*
X141000000Y-34000000D01*
D34*
X125000000Y-82500000D02*
X125000000Y-102500000D01*
X139000000Y-65500000D02*
X139000000Y-65000000D01*
X139500000Y-66000000D02*
X139000000Y-65500000D01*
X140000000Y-66000000D02*
X139500000Y-66000000D01*
D32*
X134950000Y-49500760D02*
X135999240Y-49500760D01*
X135999240Y-49500760D02*
X136000000Y-49500000D01*
D34*
X133825000Y-59000000D02*
X133825000Y-57825000D01*
X133825000Y-57825000D02*
X133500000Y-57500000D01*
X135300000Y-55405000D02*
X133595000Y-55405000D01*
X133595000Y-55405000D02*
X133500000Y-55500000D01*
X150000000Y-121000000D02*
X150000000Y-144000000D01*
X125000000Y-62500000D02*
X125000000Y-63631370D01*
X125000000Y-63631370D02*
X125000000Y-82500000D01*
X125000000Y-102500000D02*
X125000000Y-109250000D01*
X125000000Y-109250000D02*
X125000000Y-125000000D01*
X125000000Y-109373355D02*
X125000000Y-109250000D01*
X125000000Y-125000000D02*
X125000000Y-140000000D01*
X150000000Y-62500000D02*
X150000000Y-82500000D01*
D11*
X143925000Y-37500000D02*
X143925000Y-34385000D01*
X143925000Y-34385000D02*
X143540000Y-34000000D01*
X143925000Y-37500000D02*
X143925000Y-39375000D01*
X143925000Y-39375000D02*
X144050000Y-39500000D01*
D32*
X134000000Y-47501780D02*
X134000000Y-46000000D01*
X132960000Y-43500000D02*
X132960000Y-44960000D01*
X132960000Y-44960000D02*
X134000000Y-46000000D01*
D34*
X147460000Y-52460000D02*
X146238686Y-52460000D01*
X146238686Y-52460000D02*
X143293686Y-55405000D01*
X143293686Y-55405000D02*
X143000000Y-55405000D01*
X143000000Y-55405000D02*
X140700000Y-55405000D01*
X140653998Y-56096002D02*
X138500000Y-58250000D01*
X138500000Y-58250000D02*
X138500000Y-61000000D01*
X140700000Y-56096002D02*
X140653998Y-56096002D01*
X140700000Y-56096002D02*
X140700000Y-55405000D01*
X138000000Y-57575000D02*
X138000000Y-57250000D01*
X138000000Y-57250000D02*
X138500000Y-56750000D01*
X138000000Y-61000000D02*
X138000000Y-57575000D01*
X150000000Y-55000000D02*
X148698601Y-53698601D01*
X148698601Y-53698601D02*
X146051399Y-53698601D01*
X146051399Y-53698601D02*
X142500000Y-57250000D01*
X142500000Y-57250000D02*
X141000000Y-57250000D01*
X135300000Y-52865000D02*
X133615000Y-52865000D01*
X133615000Y-52865000D02*
X133500000Y-52750000D01*
X137500000Y-56135000D02*
X139500000Y-54135000D01*
X139500000Y-54135000D02*
X140700000Y-54135000D01*
X137500000Y-61000000D02*
X137500000Y-56135000D01*
X146000000Y-51500000D02*
X146278601Y-51221399D01*
X146278601Y-51221399D02*
X148761399Y-51221399D01*
X148761399Y-51221399D02*
X150000000Y-52460000D01*
X146253601Y-51246399D02*
X146000000Y-51500000D01*
X146000000Y-51500000D02*
X143365000Y-54135000D01*
X143365000Y-54135000D02*
X140700000Y-54135000D01*
X139865000Y-54135000D02*
X141200000Y-54135000D01*
X141085000Y-54250000D02*
X141200000Y-54135000D01*
D33*
X143500000Y-159450000D02*
X146000000Y-159450000D01*
X147945000Y-162500000D02*
X147945000Y-161071645D01*
X147945000Y-161071645D02*
X146323355Y-159450000D01*
X146323355Y-159450000D02*
X146000000Y-159450000D01*
X135945000Y-162500000D02*
X135945000Y-160945000D01*
X135945000Y-160945000D02*
X134450000Y-159450000D01*
X134450000Y-159450000D02*
X131500000Y-159450000D01*
X139055000Y-162500000D02*
X139055000Y-160945000D01*
X139055000Y-160945000D02*
X140550000Y-159450000D01*
X140550000Y-159450000D02*
X143500000Y-159450000D01*
X135945000Y-162500000D02*
X139055000Y-162500000D01*
X131500000Y-159450000D02*
X128550000Y-159450000D01*
X128550000Y-159450000D02*
X127055000Y-160945000D01*
X127055000Y-162500000D02*
X127055000Y-160945000D01*
D34*
X133500000Y-62500000D02*
X132500000Y-61500000D01*
X132500000Y-61500000D02*
X131750000Y-60750000D01*
X130000000Y-54050000D02*
X130000000Y-59000000D01*
X130000000Y-59000000D02*
X132500000Y-61500000D01*
X136000000Y-62500000D02*
X133500000Y-62500000D01*
D11*
X139500000Y-37450000D02*
X139500000Y-36540000D01*
X139500000Y-36540000D02*
X138460000Y-35500000D01*
X138460000Y-35500000D02*
X138460000Y-34000000D01*
D34*
X138500000Y-66674980D02*
X138500000Y-67000000D01*
X138500000Y-67000000D02*
X139000000Y-67500000D01*
X138500000Y-65000000D02*
X138500000Y-66674980D01*
X132750000Y-63000000D02*
X127750000Y-58000000D01*
X127000000Y-57250000D02*
X127750000Y-58000000D01*
X127750000Y-58000000D02*
X127500000Y-57750000D01*
X127000000Y-53000000D02*
X127000000Y-57250000D01*
X127000000Y-53000000D02*
X127000000Y-48000000D01*
X127000000Y-48000000D02*
X130000000Y-45000000D01*
X135500000Y-63000000D02*
X132750000Y-63000000D01*
X135000000Y-63000000D02*
X135500000Y-63000000D01*
X135500000Y-63000000D02*
X136000000Y-63000000D01*
X137000000Y-78500000D02*
X132750000Y-82750000D01*
X132750000Y-82750000D02*
X132750000Y-99750000D01*
X132750000Y-99750000D02*
X130000000Y-102500000D01*
X137000000Y-65000000D02*
X137000000Y-78500000D01*
X141750000Y-64000000D02*
X140000000Y-64000000D01*
X142499980Y-64750000D02*
X142499980Y-103499980D01*
X141750000Y-64000000D02*
X141750000Y-64000020D01*
X141750000Y-64000020D02*
X142499980Y-64750000D01*
X145250000Y-113000000D02*
X145250000Y-113250000D01*
X145250000Y-113250000D02*
X145250000Y-117750000D01*
X145250000Y-106250000D02*
X145250000Y-113250000D01*
X142499980Y-103499980D02*
X145250000Y-106250000D01*
X143250000Y-142250000D02*
X145000000Y-144000000D01*
X143250000Y-119750000D02*
X143250000Y-142250000D01*
X145250000Y-117750000D02*
X143250000Y-119750000D01*
X140000000Y-62500000D02*
X142500000Y-62500000D01*
X142500000Y-62500000D02*
X145000000Y-65000000D01*
X145000000Y-65000000D02*
X145000000Y-82500000D01*
X136000000Y-63500000D02*
X131000000Y-63500000D01*
X131000000Y-63500000D02*
X130000000Y-62500000D01*
X133250000Y-83042880D02*
X133250000Y-121750000D01*
X133250000Y-121750000D02*
X130000000Y-125000000D01*
X137500000Y-78792880D02*
X133250000Y-83042880D01*
X137500000Y-66250000D02*
X137500000Y-78792880D01*
X137500010Y-66250010D02*
X137500000Y-66250000D01*
X137500000Y-66250000D02*
X137500000Y-65000000D01*
X142000000Y-63500000D02*
X140000000Y-63500000D01*
X142999990Y-64500000D02*
X142999990Y-103199991D01*
X142000000Y-63500000D02*
X142000000Y-63500010D01*
X142000000Y-63500010D02*
X142999990Y-64500000D01*
X142999990Y-103199991D02*
X145799999Y-106000000D01*
X145799999Y-106000000D02*
X145799999Y-120200001D01*
X145799999Y-120200001D02*
X145000000Y-121000000D01*
X144000000Y-62000000D02*
X140250000Y-62000000D01*
X140250000Y-62000000D02*
X140000000Y-62000000D01*
X144500000Y-62500000D02*
X144000000Y-62000000D01*
X145000000Y-62500000D02*
X144500000Y-62500000D01*
X130000000Y-82500000D02*
X130000000Y-66763610D01*
X130000000Y-66763610D02*
X132763610Y-64000000D01*
X132763610Y-64000000D02*
X135350000Y-64000000D01*
X135350000Y-64000000D02*
X136000000Y-64000000D01*
X133750000Y-84250000D02*
X133750008Y-84250008D01*
X133750008Y-84250008D02*
X133750008Y-136249992D01*
X133750008Y-136249992D02*
X130799999Y-139200001D01*
X130799999Y-139200001D02*
X130000000Y-140000000D01*
X133750000Y-84250000D02*
X133750000Y-83957120D01*
X133750000Y-83250000D02*
X133750000Y-84250000D01*
X138000020Y-78999980D02*
X133750000Y-83250000D01*
X138000020Y-66250000D02*
X138000000Y-66249980D01*
X138000000Y-66249980D02*
X138000000Y-65000000D01*
X138000020Y-66250000D02*
X138000020Y-78999980D01*
X140000000Y-63000000D02*
X142250000Y-63000000D01*
X142250000Y-63000000D02*
X143500000Y-64250000D01*
X143500000Y-64250000D02*
X143500000Y-101000000D01*
X143500000Y-101000000D02*
X145000000Y-102500000D01*
D32*
X137500000Y-47450000D02*
X137500000Y-45500000D01*
X137500000Y-45500000D02*
X135500000Y-43500000D01*
D34*
X136000000Y-62000000D02*
X135000000Y-62000000D01*
X135000000Y-62000000D02*
X134500000Y-61500000D01*
X132000000Y-51950000D02*
X133050000Y-51950000D01*
X133050000Y-51950000D02*
X133500000Y-51500000D01*
X133595000Y-51595000D02*
X133500000Y-51500000D01*
X135300000Y-51595000D02*
X133595000Y-51595000D01*
X139000000Y-61000000D02*
X139000000Y-59750000D01*
X139000000Y-59750000D02*
X139500000Y-59250000D01*
X130999240Y-49500760D02*
X130000000Y-50500000D01*
X130000000Y-50500000D02*
X130000000Y-51950000D01*
X133050000Y-49500760D02*
X130999240Y-49500760D01*
D35*
G36*
X137000254Y-33708314D02*
X136999747Y-34289138D01*
X137221551Y-34825943D01*
X137631897Y-35237006D01*
X137675000Y-35254904D01*
X137675000Y-35500000D01*
X137734755Y-35800407D01*
X137904921Y-36055079D01*
X138423064Y-36573222D01*
X138303569Y-36748110D01*
X138252560Y-37000000D01*
X138252560Y-37900000D01*
X138296838Y-38135317D01*
X138435910Y-38351441D01*
X138648110Y-38496431D01*
X138661197Y-38499081D01*
X138448559Y-38635910D01*
X138303569Y-38848110D01*
X138252560Y-39100000D01*
X138252560Y-40000000D01*
X138296838Y-40235317D01*
X138435910Y-40451441D01*
X138648110Y-40596431D01*
X138665000Y-40599851D01*
X138665000Y-44500000D01*
X138728561Y-44819541D01*
X138788714Y-44909566D01*
X138909566Y-45090434D01*
X139283776Y-45464644D01*
X138374210Y-46374210D01*
X138353746Y-46404837D01*
X138351890Y-46403569D01*
X138335000Y-46400149D01*
X138335000Y-45500000D01*
X138271439Y-45180459D01*
X138090434Y-44909566D01*
X137059140Y-43878272D01*
X137084724Y-43816659D01*
X137085275Y-43186107D01*
X136844481Y-42603343D01*
X136399003Y-42157086D01*
X135816659Y-41915276D01*
X135186107Y-41914725D01*
X134603343Y-42155519D01*
X134505663Y-42253029D01*
X134374090Y-42048559D01*
X134161890Y-41903569D01*
X133910000Y-41852560D01*
X132010000Y-41852560D01*
X131774683Y-41896838D01*
X131558559Y-42035910D01*
X131413569Y-42248110D01*
X131362560Y-42500000D01*
X131362560Y-44500000D01*
X131376344Y-44573253D01*
X131217243Y-44188200D01*
X130813923Y-43784176D01*
X130286691Y-43565250D01*
X129715813Y-43564752D01*
X129188200Y-43782757D01*
X128784176Y-44186077D01*
X128565250Y-44713309D01*
X128564752Y-45284187D01*
X128587049Y-45338149D01*
X126462599Y-47462599D01*
X126297852Y-47709161D01*
X126240000Y-48000000D01*
X126240000Y-51336560D01*
X125984000Y-51336560D01*
X125748683Y-51380838D01*
X125532559Y-51519910D01*
X125421160Y-51682948D01*
X125324818Y-51593615D01*
X124842944Y-51394025D01*
X124587000Y-51513164D01*
X124587000Y-52873000D01*
X124607000Y-52873000D01*
X124607000Y-53127000D01*
X124587000Y-53127000D01*
X124587000Y-54486836D01*
X124842944Y-54605975D01*
X125324818Y-54406385D01*
X125422398Y-54315903D01*
X125519910Y-54467441D01*
X125732110Y-54612431D01*
X125984000Y-54663440D01*
X126240000Y-54663440D01*
X126240000Y-57250000D01*
X126297852Y-57540839D01*
X126462599Y-57787401D01*
X129739971Y-61064773D01*
X129715813Y-61064752D01*
X129188200Y-61282757D01*
X128784176Y-61686077D01*
X128565250Y-62213309D01*
X128564752Y-62784187D01*
X128782757Y-63311800D01*
X129186077Y-63715824D01*
X129713309Y-63934750D01*
X130284187Y-63935248D01*
X130338149Y-63912951D01*
X130462599Y-64037401D01*
X130709161Y-64202148D01*
X131000000Y-64260000D01*
X131428808Y-64260000D01*
X129462599Y-66226209D01*
X129297852Y-66472771D01*
X129240000Y-66763610D01*
X129240000Y-81261354D01*
X129188200Y-81282757D01*
X128784176Y-81686077D01*
X128565250Y-82213309D01*
X128564752Y-82784187D01*
X128782757Y-83311800D01*
X129186077Y-83715824D01*
X129713309Y-83934750D01*
X130284187Y-83935248D01*
X130811800Y-83717243D01*
X131215824Y-83313923D01*
X131434750Y-82786691D01*
X131435248Y-82215813D01*
X131217243Y-81688200D01*
X130813923Y-81284176D01*
X130760000Y-81261785D01*
X130760000Y-67078412D01*
X133078412Y-64760000D01*
X135415116Y-64760000D01*
X135600000Y-64797440D01*
X136202560Y-64797440D01*
X136202560Y-65400000D01*
X136240000Y-65598976D01*
X136240000Y-78185198D01*
X132212599Y-82212599D01*
X132047852Y-82459161D01*
X131990000Y-82750000D01*
X131990000Y-99435198D01*
X130338454Y-101086744D01*
X130286691Y-101065250D01*
X129715813Y-101064752D01*
X129188200Y-101282757D01*
X128784176Y-101686077D01*
X128565250Y-102213309D01*
X128564752Y-102784187D01*
X128782757Y-103311800D01*
X129186077Y-103715824D01*
X129713309Y-103934750D01*
X130284187Y-103935248D01*
X130811800Y-103717243D01*
X131215824Y-103313923D01*
X131434750Y-102786691D01*
X131435248Y-102215813D01*
X131412951Y-102161851D01*
X132490000Y-101084802D01*
X132490000Y-111880392D01*
X132480160Y-111890232D01*
X132380274Y-111622342D01*
X131766926Y-111394149D01*
X131112941Y-111418044D01*
X130619726Y-111622342D01*
X130519839Y-111890234D01*
X131500000Y-112870395D01*
X131514143Y-112856253D01*
X131693748Y-113035858D01*
X131679605Y-113050000D01*
X131693748Y-113064143D01*
X131514143Y-113243748D01*
X131500000Y-113229605D01*
X130519839Y-114209766D01*
X130619726Y-114477658D01*
X131233074Y-114705851D01*
X131887059Y-114681956D01*
X132380274Y-114477658D01*
X132480160Y-114209768D01*
X132490000Y-114219608D01*
X132490000Y-121435198D01*
X130338454Y-123586744D01*
X130286691Y-123565250D01*
X129715813Y-123564752D01*
X129188200Y-123782757D01*
X128784176Y-124186077D01*
X128565250Y-124713309D01*
X128564752Y-125284187D01*
X128782757Y-125811800D01*
X129186077Y-126215824D01*
X129713309Y-126434750D01*
X130284187Y-126435248D01*
X130811800Y-126217243D01*
X131215824Y-125813923D01*
X131434750Y-125286691D01*
X131435248Y-124715813D01*
X131412951Y-124661851D01*
X132990008Y-123084794D01*
X132990008Y-135935190D01*
X130338454Y-138586744D01*
X130286691Y-138565250D01*
X129715813Y-138564752D01*
X129188200Y-138782757D01*
X128784176Y-139186077D01*
X128565250Y-139713309D01*
X128564752Y-140284187D01*
X128782757Y-140811800D01*
X129186077Y-141215824D01*
X129713309Y-141434750D01*
X130284187Y-141435248D01*
X130811800Y-141217243D01*
X131215824Y-140813923D01*
X131434750Y-140286691D01*
X131435248Y-139715813D01*
X131412951Y-139661851D01*
X134287409Y-136787393D01*
X134452156Y-136540831D01*
X134510008Y-136249992D01*
X134510008Y-111159766D01*
X134964839Y-111159766D01*
X135064726Y-111427658D01*
X135678074Y-111655851D01*
X136332059Y-111631956D01*
X136825274Y-111427658D01*
X136925161Y-111159766D01*
X135945000Y-110179605D01*
X134964839Y-111159766D01*
X134510008Y-111159766D01*
X134510008Y-110862568D01*
X134517342Y-110880274D01*
X134785234Y-110980161D01*
X135765395Y-110000000D01*
X136124605Y-110000000D01*
X137104766Y-110980161D01*
X137372658Y-110880274D01*
X137498770Y-110541303D01*
X137659624Y-110930600D01*
X138121966Y-111393750D01*
X138726354Y-111644713D01*
X139380775Y-111645284D01*
X139985600Y-111395376D01*
X140448750Y-110933034D01*
X140699713Y-110328646D01*
X140700284Y-109674225D01*
X140450376Y-109069400D01*
X139988034Y-108606250D01*
X139383646Y-108355287D01*
X138729225Y-108354716D01*
X138124400Y-108604624D01*
X137661250Y-109066966D01*
X137505836Y-109441245D01*
X137372658Y-109119726D01*
X137104766Y-109019839D01*
X136124605Y-110000000D01*
X135765395Y-110000000D01*
X134785234Y-109019839D01*
X134517342Y-109119726D01*
X134510008Y-109139439D01*
X134510008Y-108840234D01*
X134964839Y-108840234D01*
X135945000Y-109820395D01*
X136925161Y-108840234D01*
X136825274Y-108572342D01*
X136211926Y-108344149D01*
X135557941Y-108368044D01*
X135064726Y-108572342D01*
X134964839Y-108840234D01*
X134510008Y-108840234D01*
X134510008Y-84250008D01*
X134510000Y-84249968D01*
X134510000Y-83564802D01*
X138537421Y-79537381D01*
X138702168Y-79290819D01*
X138760020Y-78999980D01*
X138760020Y-68629312D01*
X138773244Y-68634803D01*
X139224775Y-68635197D01*
X139642086Y-68462767D01*
X139961645Y-68143765D01*
X140134803Y-67726756D01*
X140135197Y-67275225D01*
X139962767Y-66857914D01*
X139643765Y-66538355D01*
X139260000Y-66379001D01*
X139260000Y-66035000D01*
X139276310Y-66035000D01*
X139509699Y-65938327D01*
X139688327Y-65759698D01*
X139785000Y-65526309D01*
X139785000Y-65285750D01*
X139626250Y-65127000D01*
X139297440Y-65127000D01*
X139297440Y-64873000D01*
X139626250Y-64873000D01*
X139701810Y-64797440D01*
X140400000Y-64797440D01*
X140598976Y-64760000D01*
X141435178Y-64760000D01*
X141739980Y-65064802D01*
X141739980Y-103499980D01*
X141797832Y-103790819D01*
X141962579Y-104037381D01*
X144490000Y-106564802D01*
X144490000Y-111713316D01*
X144433034Y-111656250D01*
X143828646Y-111405287D01*
X143174225Y-111404716D01*
X142569400Y-111654624D01*
X142106250Y-112116966D01*
X141855287Y-112721354D01*
X141854716Y-113375775D01*
X142104624Y-113980600D01*
X142566966Y-114443750D01*
X143171354Y-114694713D01*
X143825775Y-114695284D01*
X144430600Y-114445376D01*
X144490000Y-114386080D01*
X144490000Y-117435198D01*
X142712599Y-119212599D01*
X142547852Y-119459161D01*
X142490000Y-119750000D01*
X142490000Y-142250000D01*
X142547852Y-142540839D01*
X142712599Y-142787401D01*
X143586744Y-143661546D01*
X143565250Y-143713309D01*
X143564752Y-144284187D01*
X143782757Y-144811800D01*
X144186077Y-145215824D01*
X144713309Y-145434750D01*
X145284187Y-145435248D01*
X145811800Y-145217243D01*
X146021663Y-145007745D01*
X149171861Y-145007745D01*
X149245995Y-145253864D01*
X149783223Y-145446965D01*
X150353454Y-145419778D01*
X150754005Y-145253864D01*
X150828139Y-145007745D01*
X150000000Y-144179605D01*
X149171861Y-145007745D01*
X146021663Y-145007745D01*
X146215824Y-144813923D01*
X146434750Y-144286691D01*
X146435189Y-143783223D01*
X148553035Y-143783223D01*
X148580222Y-144353454D01*
X148746136Y-144754005D01*
X148992255Y-144828139D01*
X149820395Y-144000000D01*
X150179605Y-144000000D01*
X151007745Y-144828139D01*
X151253864Y-144754005D01*
X151446965Y-144216777D01*
X151419778Y-143646546D01*
X151253864Y-143245995D01*
X151007745Y-143171861D01*
X150179605Y-144000000D01*
X149820395Y-144000000D01*
X148992255Y-143171861D01*
X148746136Y-143245995D01*
X148553035Y-143783223D01*
X146435189Y-143783223D01*
X146435248Y-143715813D01*
X146217243Y-143188200D01*
X146021640Y-142992255D01*
X149171861Y-142992255D01*
X150000000Y-143820395D01*
X150828139Y-142992255D01*
X150754005Y-142746136D01*
X150216777Y-142553035D01*
X149646546Y-142580222D01*
X149245995Y-142746136D01*
X149171861Y-142992255D01*
X146021640Y-142992255D01*
X145813923Y-142784176D01*
X145286691Y-142565250D01*
X144715813Y-142564752D01*
X144661851Y-142587049D01*
X144010000Y-141935198D01*
X144010000Y-122039440D01*
X144186077Y-122215824D01*
X144713309Y-122434750D01*
X145284187Y-122435248D01*
X145811800Y-122217243D01*
X146021663Y-122007745D01*
X149171861Y-122007745D01*
X149245995Y-122253864D01*
X149783223Y-122446965D01*
X150353454Y-122419778D01*
X150754005Y-122253864D01*
X150828139Y-122007745D01*
X150000000Y-121179605D01*
X149171861Y-122007745D01*
X146021663Y-122007745D01*
X146215824Y-121813923D01*
X146434750Y-121286691D01*
X146435189Y-120783223D01*
X148553035Y-120783223D01*
X148580222Y-121353454D01*
X148746136Y-121754005D01*
X148992255Y-121828139D01*
X149820395Y-121000000D01*
X150179605Y-121000000D01*
X151007745Y-121828139D01*
X151253864Y-121754005D01*
X151446965Y-121216777D01*
X151419778Y-120646546D01*
X151253864Y-120245995D01*
X151007745Y-120171861D01*
X150179605Y-121000000D01*
X149820395Y-121000000D01*
X148992255Y-120171861D01*
X148746136Y-120245995D01*
X148553035Y-120783223D01*
X146435189Y-120783223D01*
X146435248Y-120715813D01*
X146403372Y-120638668D01*
X146502147Y-120490841D01*
X146511745Y-120442587D01*
X146559999Y-120200001D01*
X146559999Y-119992255D01*
X149171861Y-119992255D01*
X150000000Y-120820395D01*
X150828139Y-119992255D01*
X150754005Y-119746136D01*
X150216777Y-119553035D01*
X149646546Y-119580222D01*
X149245995Y-119746136D01*
X149171861Y-119992255D01*
X146559999Y-119992255D01*
X146559999Y-110940993D01*
X147011966Y-111393750D01*
X147616354Y-111644713D01*
X148270775Y-111645284D01*
X148875600Y-111395376D01*
X149338750Y-110933034D01*
X149589713Y-110328646D01*
X149590284Y-109674225D01*
X149570423Y-109626157D01*
X154125787Y-105070792D01*
X154125790Y-105070790D01*
X154290000Y-104825031D01*
X154290000Y-167750181D01*
X153822138Y-166617868D01*
X152887055Y-165681151D01*
X151664685Y-165173579D01*
X150341122Y-165172424D01*
X149117868Y-165677862D01*
X148181151Y-166612945D01*
X147673579Y-167835315D01*
X147672424Y-169158878D01*
X148177862Y-170382132D01*
X149112945Y-171318849D01*
X150247603Y-171790000D01*
X147063571Y-171790000D01*
X147063571Y-165890000D01*
X127936429Y-165890000D01*
X127936429Y-171790000D01*
X124749819Y-171790000D01*
X125882132Y-171322138D01*
X126818849Y-170387055D01*
X127326421Y-169164685D01*
X127327576Y-167841122D01*
X126822138Y-166617868D01*
X125887055Y-165681151D01*
X124664685Y-165173579D01*
X123341122Y-165172424D01*
X122117868Y-165677862D01*
X121181151Y-166612945D01*
X120710000Y-167747603D01*
X120710000Y-162825775D01*
X125409716Y-162825775D01*
X125659624Y-163430600D01*
X126121966Y-163893750D01*
X126726354Y-164144713D01*
X127380775Y-164145284D01*
X127985600Y-163895376D01*
X128448750Y-163433034D01*
X128699713Y-162828646D01*
X128700284Y-162174225D01*
X128450376Y-161569400D01*
X128066613Y-161184967D01*
X128916579Y-160335000D01*
X130085783Y-160335000D01*
X130104624Y-160380600D01*
X130566966Y-160843750D01*
X131171354Y-161094713D01*
X131825775Y-161095284D01*
X132430600Y-160845376D01*
X132893750Y-160383034D01*
X132913695Y-160335000D01*
X134083420Y-160335000D01*
X134933652Y-161185231D01*
X134551250Y-161566966D01*
X134300287Y-162171354D01*
X134299716Y-162825775D01*
X134549624Y-163430600D01*
X135011966Y-163893750D01*
X135616354Y-164144713D01*
X136270775Y-164145284D01*
X136875600Y-163895376D01*
X137338750Y-163433034D01*
X137358695Y-163385000D01*
X137640783Y-163385000D01*
X137659624Y-163430600D01*
X138121966Y-163893750D01*
X138726354Y-164144713D01*
X139380775Y-164145284D01*
X139985600Y-163895376D01*
X140448750Y-163433034D01*
X140699713Y-162828646D01*
X140700284Y-162174225D01*
X140450376Y-161569400D01*
X140066613Y-161184967D01*
X140916579Y-160335000D01*
X142085783Y-160335000D01*
X142104624Y-160380600D01*
X142566966Y-160843750D01*
X143171354Y-161094713D01*
X143825775Y-161095284D01*
X144430600Y-160845376D01*
X144893750Y-160383034D01*
X144913695Y-160335000D01*
X145956775Y-160335000D01*
X146870274Y-161248498D01*
X146551250Y-161566966D01*
X146300287Y-162171354D01*
X146299716Y-162825775D01*
X146549624Y-163430600D01*
X147011966Y-163893750D01*
X147616354Y-164144713D01*
X148270775Y-164145284D01*
X148875600Y-163895376D01*
X149338750Y-163433034D01*
X149589713Y-162828646D01*
X149590284Y-162174225D01*
X149340376Y-161569400D01*
X148878034Y-161106250D01*
X148830000Y-161086305D01*
X148830000Y-161071645D01*
X148762633Y-160732970D01*
X148570790Y-160445855D01*
X148570787Y-160445853D01*
X146949145Y-158824210D01*
X146662030Y-158632367D01*
X146605839Y-158621190D01*
X146323355Y-158564999D01*
X146323350Y-158565000D01*
X144914217Y-158565000D01*
X144895376Y-158519400D01*
X144433034Y-158056250D01*
X143828646Y-157805287D01*
X143174225Y-157804716D01*
X142569400Y-158054624D01*
X142106250Y-158516966D01*
X142086305Y-158565000D01*
X140550005Y-158565000D01*
X140550000Y-158564999D01*
X140211325Y-158632367D01*
X139924210Y-158824210D01*
X139924208Y-158824213D01*
X138429210Y-160319210D01*
X138237367Y-160606325D01*
X138237367Y-160606326D01*
X138169999Y-160945000D01*
X138170000Y-160945005D01*
X138170000Y-161085783D01*
X138124400Y-161104624D01*
X137661250Y-161566966D01*
X137641305Y-161615000D01*
X137359217Y-161615000D01*
X137340376Y-161569400D01*
X136878034Y-161106250D01*
X136830000Y-161086305D01*
X136830000Y-160945005D01*
X136830001Y-160945000D01*
X136762633Y-160606325D01*
X136570790Y-160319210D01*
X136570787Y-160319208D01*
X135075790Y-158824210D01*
X134788675Y-158632367D01*
X134732484Y-158621190D01*
X134450000Y-158564999D01*
X134449995Y-158565000D01*
X132914217Y-158565000D01*
X132895376Y-158519400D01*
X132433034Y-158056250D01*
X131828646Y-157805287D01*
X131174225Y-157804716D01*
X130569400Y-158054624D01*
X130106250Y-158516966D01*
X130086305Y-158565000D01*
X128550005Y-158565000D01*
X128550000Y-158564999D01*
X128211325Y-158632367D01*
X127924210Y-158824210D01*
X127924208Y-158824213D01*
X126429210Y-160319210D01*
X126237367Y-160606325D01*
X126237367Y-160606326D01*
X126169999Y-160945000D01*
X126170000Y-160945005D01*
X126170000Y-161085783D01*
X126124400Y-161104624D01*
X125661250Y-161566966D01*
X125410287Y-162171354D01*
X125409716Y-162825775D01*
X120710000Y-162825775D01*
X120710000Y-141007745D01*
X124171861Y-141007745D01*
X124245995Y-141253864D01*
X124783223Y-141446965D01*
X125353454Y-141419778D01*
X125754005Y-141253864D01*
X125828139Y-141007745D01*
X125000000Y-140179605D01*
X124171861Y-141007745D01*
X120710000Y-141007745D01*
X120710000Y-139783223D01*
X123553035Y-139783223D01*
X123580222Y-140353454D01*
X123746136Y-140754005D01*
X123992255Y-140828139D01*
X124820395Y-140000000D01*
X125179605Y-140000000D01*
X126007745Y-140828139D01*
X126253864Y-140754005D01*
X126446965Y-140216777D01*
X126419778Y-139646546D01*
X126253864Y-139245995D01*
X126007745Y-139171861D01*
X125179605Y-140000000D01*
X124820395Y-140000000D01*
X123992255Y-139171861D01*
X123746136Y-139245995D01*
X123553035Y-139783223D01*
X120710000Y-139783223D01*
X120710000Y-138992255D01*
X124171861Y-138992255D01*
X125000000Y-139820395D01*
X125828139Y-138992255D01*
X125754005Y-138746136D01*
X125216777Y-138553035D01*
X124646546Y-138580222D01*
X124245995Y-138746136D01*
X124171861Y-138992255D01*
X120710000Y-138992255D01*
X120710000Y-126007745D01*
X124171861Y-126007745D01*
X124245995Y-126253864D01*
X124783223Y-126446965D01*
X125353454Y-126419778D01*
X125754005Y-126253864D01*
X125828139Y-126007745D01*
X125000000Y-125179605D01*
X124171861Y-126007745D01*
X120710000Y-126007745D01*
X120710000Y-124783223D01*
X123553035Y-124783223D01*
X123580222Y-125353454D01*
X123746136Y-125754005D01*
X123992255Y-125828139D01*
X124820395Y-125000000D01*
X125179605Y-125000000D01*
X126007745Y-125828139D01*
X126253864Y-125754005D01*
X126446965Y-125216777D01*
X126419778Y-124646546D01*
X126253864Y-124245995D01*
X126007745Y-124171861D01*
X125179605Y-125000000D01*
X124820395Y-125000000D01*
X123992255Y-124171861D01*
X123746136Y-124245995D01*
X123553035Y-124783223D01*
X120710000Y-124783223D01*
X120710000Y-123992255D01*
X124171861Y-123992255D01*
X125000000Y-124820395D01*
X125828139Y-123992255D01*
X125754005Y-123746136D01*
X125216777Y-123553035D01*
X124646546Y-123580222D01*
X124245995Y-123746136D01*
X124171861Y-123992255D01*
X120710000Y-123992255D01*
X120710000Y-112783074D01*
X129844149Y-112783074D01*
X129868044Y-113437059D01*
X130072342Y-113930274D01*
X130340234Y-114030161D01*
X131320395Y-113050000D01*
X130340234Y-112069839D01*
X130072342Y-112169726D01*
X129844149Y-112783074D01*
X120710000Y-112783074D01*
X120710000Y-111159766D01*
X126074839Y-111159766D01*
X126174726Y-111427658D01*
X126788074Y-111655851D01*
X127442059Y-111631956D01*
X127935274Y-111427658D01*
X128035161Y-111159766D01*
X127055000Y-110179605D01*
X126074839Y-111159766D01*
X120710000Y-111159766D01*
X120710000Y-109733074D01*
X125399149Y-109733074D01*
X125423044Y-110387059D01*
X125627342Y-110880274D01*
X125895234Y-110980161D01*
X126875395Y-110000000D01*
X127234605Y-110000000D01*
X128214766Y-110980161D01*
X128482658Y-110880274D01*
X128710851Y-110266926D01*
X128686956Y-109612941D01*
X128482658Y-109119726D01*
X128214766Y-109019839D01*
X127234605Y-110000000D01*
X126875395Y-110000000D01*
X125895234Y-109019839D01*
X125627342Y-109119726D01*
X125399149Y-109733074D01*
X120710000Y-109733074D01*
X120710000Y-108840234D01*
X126074839Y-108840234D01*
X127055000Y-109820395D01*
X128035161Y-108840234D01*
X127935274Y-108572342D01*
X127321926Y-108344149D01*
X126667941Y-108368044D01*
X126174726Y-108572342D01*
X126074839Y-108840234D01*
X120710000Y-108840234D01*
X120710000Y-103507745D01*
X124171861Y-103507745D01*
X124245995Y-103753864D01*
X124783223Y-103946965D01*
X125353454Y-103919778D01*
X125754005Y-103753864D01*
X125828139Y-103507745D01*
X125000000Y-102679605D01*
X124171861Y-103507745D01*
X120710000Y-103507745D01*
X120710000Y-102283223D01*
X123553035Y-102283223D01*
X123580222Y-102853454D01*
X123746136Y-103254005D01*
X123992255Y-103328139D01*
X124820395Y-102500000D01*
X125179605Y-102500000D01*
X126007745Y-103328139D01*
X126253864Y-103254005D01*
X126446965Y-102716777D01*
X126419778Y-102146546D01*
X126253864Y-101745995D01*
X126007745Y-101671861D01*
X125179605Y-102500000D01*
X124820395Y-102500000D01*
X123992255Y-101671861D01*
X123746136Y-101745995D01*
X123553035Y-102283223D01*
X120710000Y-102283223D01*
X120710000Y-101492255D01*
X124171861Y-101492255D01*
X125000000Y-102320395D01*
X125828139Y-101492255D01*
X125754005Y-101246136D01*
X125216777Y-101053035D01*
X124646546Y-101080222D01*
X124245995Y-101246136D01*
X124171861Y-101492255D01*
X120710000Y-101492255D01*
X120710000Y-83507745D01*
X124171861Y-83507745D01*
X124245995Y-83753864D01*
X124783223Y-83946965D01*
X125353454Y-83919778D01*
X125754005Y-83753864D01*
X125828139Y-83507745D01*
X125000000Y-82679605D01*
X124171861Y-83507745D01*
X120710000Y-83507745D01*
X120710000Y-82283223D01*
X123553035Y-82283223D01*
X123580222Y-82853454D01*
X123746136Y-83254005D01*
X123992255Y-83328139D01*
X124820395Y-82500000D01*
X125179605Y-82500000D01*
X126007745Y-83328139D01*
X126253864Y-83254005D01*
X126446965Y-82716777D01*
X126419778Y-82146546D01*
X126253864Y-81745995D01*
X126007745Y-81671861D01*
X125179605Y-82500000D01*
X124820395Y-82500000D01*
X123992255Y-81671861D01*
X123746136Y-81745995D01*
X123553035Y-82283223D01*
X120710000Y-82283223D01*
X120710000Y-81492255D01*
X124171861Y-81492255D01*
X125000000Y-82320395D01*
X125828139Y-81492255D01*
X125754005Y-81246136D01*
X125216777Y-81053035D01*
X124646546Y-81080222D01*
X124245995Y-81246136D01*
X124171861Y-81492255D01*
X120710000Y-81492255D01*
X120710000Y-63507745D01*
X124171861Y-63507745D01*
X124245995Y-63753864D01*
X124783223Y-63946965D01*
X125353454Y-63919778D01*
X125754005Y-63753864D01*
X125828139Y-63507745D01*
X125000000Y-62679605D01*
X124171861Y-63507745D01*
X120710000Y-63507745D01*
X120710000Y-62283223D01*
X123553035Y-62283223D01*
X123580222Y-62853454D01*
X123746136Y-63254005D01*
X123992255Y-63328139D01*
X124820395Y-62500000D01*
X125179605Y-62500000D01*
X126007745Y-63328139D01*
X126253864Y-63254005D01*
X126446965Y-62716777D01*
X126419778Y-62146546D01*
X126253864Y-61745995D01*
X126007745Y-61671861D01*
X125179605Y-62500000D01*
X124820395Y-62500000D01*
X123992255Y-61671861D01*
X123746136Y-61745995D01*
X123553035Y-62283223D01*
X120710000Y-62283223D01*
X120710000Y-61492255D01*
X124171861Y-61492255D01*
X125000000Y-62320395D01*
X125828139Y-61492255D01*
X125754005Y-61246136D01*
X125216777Y-61053035D01*
X124646546Y-61080222D01*
X124245995Y-61246136D01*
X124171861Y-61492255D01*
X120710000Y-61492255D01*
X120710000Y-53382946D01*
X122854017Y-53382946D01*
X123122812Y-53968379D01*
X123595182Y-54406385D01*
X124077056Y-54605975D01*
X124333000Y-54486836D01*
X124333000Y-53127000D01*
X122972633Y-53127000D01*
X122854017Y-53382946D01*
X120710000Y-53382946D01*
X120710000Y-52617054D01*
X122854017Y-52617054D01*
X122972633Y-52873000D01*
X124333000Y-52873000D01*
X124333000Y-51513164D01*
X124077056Y-51394025D01*
X123595182Y-51593615D01*
X123122812Y-52031621D01*
X122854017Y-52617054D01*
X120710000Y-52617054D01*
X120710000Y-46007745D01*
X124171861Y-46007745D01*
X124245995Y-46253864D01*
X124783223Y-46446965D01*
X125353454Y-46419778D01*
X125754005Y-46253864D01*
X125828139Y-46007745D01*
X125000000Y-45179605D01*
X124171861Y-46007745D01*
X120710000Y-46007745D01*
X120710000Y-44783223D01*
X123553035Y-44783223D01*
X123580222Y-45353454D01*
X123746136Y-45754005D01*
X123992255Y-45828139D01*
X124820395Y-45000000D01*
X125179605Y-45000000D01*
X126007745Y-45828139D01*
X126253864Y-45754005D01*
X126446965Y-45216777D01*
X126419778Y-44646546D01*
X126253864Y-44245995D01*
X126007745Y-44171861D01*
X125179605Y-45000000D01*
X124820395Y-45000000D01*
X123992255Y-44171861D01*
X123746136Y-44245995D01*
X123553035Y-44783223D01*
X120710000Y-44783223D01*
X120710000Y-43992255D01*
X124171861Y-43992255D01*
X125000000Y-44820395D01*
X125828139Y-43992255D01*
X125754005Y-43746136D01*
X125216777Y-43553035D01*
X124646546Y-43580222D01*
X124245995Y-43746136D01*
X124171861Y-43992255D01*
X120710000Y-43992255D01*
X120710000Y-37249819D01*
X121177862Y-38382132D01*
X122112945Y-39318849D01*
X123335315Y-39826421D01*
X124658878Y-39827576D01*
X125882132Y-39322138D01*
X126818849Y-38387055D01*
X127326421Y-37164685D01*
X127327576Y-35841122D01*
X126822138Y-34617868D01*
X125887055Y-33681151D01*
X124752397Y-33210000D01*
X137207172Y-33210000D01*
X137000254Y-33708314D01*
X137000254Y-33708314D01*
G37*
X137000254Y-33708314D02*
X136999747Y-34289138D01*
X137221551Y-34825943D01*
X137631897Y-35237006D01*
X137675000Y-35254904D01*
X137675000Y-35500000D01*
X137734755Y-35800407D01*
X137904921Y-36055079D01*
X138423064Y-36573222D01*
X138303569Y-36748110D01*
X138252560Y-37000000D01*
X138252560Y-37900000D01*
X138296838Y-38135317D01*
X138435910Y-38351441D01*
X138648110Y-38496431D01*
X138661197Y-38499081D01*
X138448559Y-38635910D01*
X138303569Y-38848110D01*
X138252560Y-39100000D01*
X138252560Y-40000000D01*
X138296838Y-40235317D01*
X138435910Y-40451441D01*
X138648110Y-40596431D01*
X138665000Y-40599851D01*
X138665000Y-44500000D01*
X138728561Y-44819541D01*
X138788714Y-44909566D01*
X138909566Y-45090434D01*
X139283776Y-45464644D01*
X138374210Y-46374210D01*
X138353746Y-46404837D01*
X138351890Y-46403569D01*
X138335000Y-46400149D01*
X138335000Y-45500000D01*
X138271439Y-45180459D01*
X138090434Y-44909566D01*
X137059140Y-43878272D01*
X137084724Y-43816659D01*
X137085275Y-43186107D01*
X136844481Y-42603343D01*
X136399003Y-42157086D01*
X135816659Y-41915276D01*
X135186107Y-41914725D01*
X134603343Y-42155519D01*
X134505663Y-42253029D01*
X134374090Y-42048559D01*
X134161890Y-41903569D01*
X133910000Y-41852560D01*
X132010000Y-41852560D01*
X131774683Y-41896838D01*
X131558559Y-42035910D01*
X131413569Y-42248110D01*
X131362560Y-42500000D01*
X131362560Y-44500000D01*
X131376344Y-44573253D01*
X131217243Y-44188200D01*
X130813923Y-43784176D01*
X130286691Y-43565250D01*
X129715813Y-43564752D01*
X129188200Y-43782757D01*
X128784176Y-44186077D01*
X128565250Y-44713309D01*
X128564752Y-45284187D01*
X128587049Y-45338149D01*
X126462599Y-47462599D01*
X126297852Y-47709161D01*
X126240000Y-48000000D01*
X126240000Y-51336560D01*
X125984000Y-51336560D01*
X125748683Y-51380838D01*
X125532559Y-51519910D01*
X125421160Y-51682948D01*
X125324818Y-51593615D01*
X124842944Y-51394025D01*
X124587000Y-51513164D01*
X124587000Y-52873000D01*
X124607000Y-52873000D01*
X124607000Y-53127000D01*
X124587000Y-53127000D01*
X124587000Y-54486836D01*
X124842944Y-54605975D01*
X125324818Y-54406385D01*
X125422398Y-54315903D01*
X125519910Y-54467441D01*
X125732110Y-54612431D01*
X125984000Y-54663440D01*
X126240000Y-54663440D01*
X126240000Y-57250000D01*
X126297852Y-57540839D01*
X126462599Y-57787401D01*
X129739971Y-61064773D01*
X129715813Y-61064752D01*
X129188200Y-61282757D01*
X128784176Y-61686077D01*
X128565250Y-62213309D01*
X128564752Y-62784187D01*
X128782757Y-63311800D01*
X129186077Y-63715824D01*
X129713309Y-63934750D01*
X130284187Y-63935248D01*
X130338149Y-63912951D01*
X130462599Y-64037401D01*
X130709161Y-64202148D01*
X131000000Y-64260000D01*
X131428808Y-64260000D01*
X129462599Y-66226209D01*
X129297852Y-66472771D01*
X129240000Y-66763610D01*
X129240000Y-81261354D01*
X129188200Y-81282757D01*
X128784176Y-81686077D01*
X128565250Y-82213309D01*
X128564752Y-82784187D01*
X128782757Y-83311800D01*
X129186077Y-83715824D01*
X129713309Y-83934750D01*
X130284187Y-83935248D01*
X130811800Y-83717243D01*
X131215824Y-83313923D01*
X131434750Y-82786691D01*
X131435248Y-82215813D01*
X131217243Y-81688200D01*
X130813923Y-81284176D01*
X130760000Y-81261785D01*
X130760000Y-67078412D01*
X133078412Y-64760000D01*
X135415116Y-64760000D01*
X135600000Y-64797440D01*
X136202560Y-64797440D01*
X136202560Y-65400000D01*
X136240000Y-65598976D01*
X136240000Y-78185198D01*
X132212599Y-82212599D01*
X132047852Y-82459161D01*
X131990000Y-82750000D01*
X131990000Y-99435198D01*
X130338454Y-101086744D01*
X130286691Y-101065250D01*
X129715813Y-101064752D01*
X129188200Y-101282757D01*
X128784176Y-101686077D01*
X128565250Y-102213309D01*
X128564752Y-102784187D01*
X128782757Y-103311800D01*
X129186077Y-103715824D01*
X129713309Y-103934750D01*
X130284187Y-103935248D01*
X130811800Y-103717243D01*
X131215824Y-103313923D01*
X131434750Y-102786691D01*
X131435248Y-102215813D01*
X131412951Y-102161851D01*
X132490000Y-101084802D01*
X132490000Y-111880392D01*
X132480160Y-111890232D01*
X132380274Y-111622342D01*
X131766926Y-111394149D01*
X131112941Y-111418044D01*
X130619726Y-111622342D01*
X130519839Y-111890234D01*
X131500000Y-112870395D01*
X131514143Y-112856253D01*
X131693748Y-113035858D01*
X131679605Y-113050000D01*
X131693748Y-113064143D01*
X131514143Y-113243748D01*
X131500000Y-113229605D01*
X130519839Y-114209766D01*
X130619726Y-114477658D01*
X131233074Y-114705851D01*
X131887059Y-114681956D01*
X132380274Y-114477658D01*
X132480160Y-114209768D01*
X132490000Y-114219608D01*
X132490000Y-121435198D01*
X130338454Y-123586744D01*
X130286691Y-123565250D01*
X129715813Y-123564752D01*
X129188200Y-123782757D01*
X128784176Y-124186077D01*
X128565250Y-124713309D01*
X128564752Y-125284187D01*
X128782757Y-125811800D01*
X129186077Y-126215824D01*
X129713309Y-126434750D01*
X130284187Y-126435248D01*
X130811800Y-126217243D01*
X131215824Y-125813923D01*
X131434750Y-125286691D01*
X131435248Y-124715813D01*
X131412951Y-124661851D01*
X132990008Y-123084794D01*
X132990008Y-135935190D01*
X130338454Y-138586744D01*
X130286691Y-138565250D01*
X129715813Y-138564752D01*
X129188200Y-138782757D01*
X128784176Y-139186077D01*
X128565250Y-139713309D01*
X128564752Y-140284187D01*
X128782757Y-140811800D01*
X129186077Y-141215824D01*
X129713309Y-141434750D01*
X130284187Y-141435248D01*
X130811800Y-141217243D01*
X131215824Y-140813923D01*
X131434750Y-140286691D01*
X131435248Y-139715813D01*
X131412951Y-139661851D01*
X134287409Y-136787393D01*
X134452156Y-136540831D01*
X134510008Y-136249992D01*
X134510008Y-111159766D01*
X134964839Y-111159766D01*
X135064726Y-111427658D01*
X135678074Y-111655851D01*
X136332059Y-111631956D01*
X136825274Y-111427658D01*
X136925161Y-111159766D01*
X135945000Y-110179605D01*
X134964839Y-111159766D01*
X134510008Y-111159766D01*
X134510008Y-110862568D01*
X134517342Y-110880274D01*
X134785234Y-110980161D01*
X135765395Y-110000000D01*
X136124605Y-110000000D01*
X137104766Y-110980161D01*
X137372658Y-110880274D01*
X137498770Y-110541303D01*
X137659624Y-110930600D01*
X138121966Y-111393750D01*
X138726354Y-111644713D01*
X139380775Y-111645284D01*
X139985600Y-111395376D01*
X140448750Y-110933034D01*
X140699713Y-110328646D01*
X140700284Y-109674225D01*
X140450376Y-109069400D01*
X139988034Y-108606250D01*
X139383646Y-108355287D01*
X138729225Y-108354716D01*
X138124400Y-108604624D01*
X137661250Y-109066966D01*
X137505836Y-109441245D01*
X137372658Y-109119726D01*
X137104766Y-109019839D01*
X136124605Y-110000000D01*
X135765395Y-110000000D01*
X134785234Y-109019839D01*
X134517342Y-109119726D01*
X134510008Y-109139439D01*
X134510008Y-108840234D01*
X134964839Y-108840234D01*
X135945000Y-109820395D01*
X136925161Y-108840234D01*
X136825274Y-108572342D01*
X136211926Y-108344149D01*
X135557941Y-108368044D01*
X135064726Y-108572342D01*
X134964839Y-108840234D01*
X134510008Y-108840234D01*
X134510008Y-84250008D01*
X134510000Y-84249968D01*
X134510000Y-83564802D01*
X138537421Y-79537381D01*
X138702168Y-79290819D01*
X138760020Y-78999980D01*
X138760020Y-68629312D01*
X138773244Y-68634803D01*
X139224775Y-68635197D01*
X139642086Y-68462767D01*
X139961645Y-68143765D01*
X140134803Y-67726756D01*
X140135197Y-67275225D01*
X139962767Y-66857914D01*
X139643765Y-66538355D01*
X139260000Y-66379001D01*
X139260000Y-66035000D01*
X139276310Y-66035000D01*
X139509699Y-65938327D01*
X139688327Y-65759698D01*
X139785000Y-65526309D01*
X139785000Y-65285750D01*
X139626250Y-65127000D01*
X139297440Y-65127000D01*
X139297440Y-64873000D01*
X139626250Y-64873000D01*
X139701810Y-64797440D01*
X140400000Y-64797440D01*
X140598976Y-64760000D01*
X141435178Y-64760000D01*
X141739980Y-65064802D01*
X141739980Y-103499980D01*
X141797832Y-103790819D01*
X141962579Y-104037381D01*
X144490000Y-106564802D01*
X144490000Y-111713316D01*
X144433034Y-111656250D01*
X143828646Y-111405287D01*
X143174225Y-111404716D01*
X142569400Y-111654624D01*
X142106250Y-112116966D01*
X141855287Y-112721354D01*
X141854716Y-113375775D01*
X142104624Y-113980600D01*
X142566966Y-114443750D01*
X143171354Y-114694713D01*
X143825775Y-114695284D01*
X144430600Y-114445376D01*
X144490000Y-114386080D01*
X144490000Y-117435198D01*
X142712599Y-119212599D01*
X142547852Y-119459161D01*
X142490000Y-119750000D01*
X142490000Y-142250000D01*
X142547852Y-142540839D01*
X142712599Y-142787401D01*
X143586744Y-143661546D01*
X143565250Y-143713309D01*
X143564752Y-144284187D01*
X143782757Y-144811800D01*
X144186077Y-145215824D01*
X144713309Y-145434750D01*
X145284187Y-145435248D01*
X145811800Y-145217243D01*
X146021663Y-145007745D01*
X149171861Y-145007745D01*
X149245995Y-145253864D01*
X149783223Y-145446965D01*
X150353454Y-145419778D01*
X150754005Y-145253864D01*
X150828139Y-145007745D01*
X150000000Y-144179605D01*
X149171861Y-145007745D01*
X146021663Y-145007745D01*
X146215824Y-144813923D01*
X146434750Y-144286691D01*
X146435189Y-143783223D01*
X148553035Y-143783223D01*
X148580222Y-144353454D01*
X148746136Y-144754005D01*
X148992255Y-144828139D01*
X149820395Y-144000000D01*
X150179605Y-144000000D01*
X151007745Y-144828139D01*
X151253864Y-144754005D01*
X151446965Y-144216777D01*
X151419778Y-143646546D01*
X151253864Y-143245995D01*
X151007745Y-143171861D01*
X150179605Y-144000000D01*
X149820395Y-144000000D01*
X148992255Y-143171861D01*
X148746136Y-143245995D01*
X148553035Y-143783223D01*
X146435189Y-143783223D01*
X146435248Y-143715813D01*
X146217243Y-143188200D01*
X146021640Y-142992255D01*
X149171861Y-142992255D01*
X150000000Y-143820395D01*
X150828139Y-142992255D01*
X150754005Y-142746136D01*
X150216777Y-142553035D01*
X149646546Y-142580222D01*
X149245995Y-142746136D01*
X149171861Y-142992255D01*
X146021640Y-142992255D01*
X145813923Y-142784176D01*
X145286691Y-142565250D01*
X144715813Y-142564752D01*
X144661851Y-142587049D01*
X144010000Y-141935198D01*
X144010000Y-122039440D01*
X144186077Y-122215824D01*
X144713309Y-122434750D01*
X145284187Y-122435248D01*
X145811800Y-122217243D01*
X146021663Y-122007745D01*
X149171861Y-122007745D01*
X149245995Y-122253864D01*
X149783223Y-122446965D01*
X150353454Y-122419778D01*
X150754005Y-122253864D01*
X150828139Y-122007745D01*
X150000000Y-121179605D01*
X149171861Y-122007745D01*
X146021663Y-122007745D01*
X146215824Y-121813923D01*
X146434750Y-121286691D01*
X146435189Y-120783223D01*
X148553035Y-120783223D01*
X148580222Y-121353454D01*
X148746136Y-121754005D01*
X148992255Y-121828139D01*
X149820395Y-121000000D01*
X150179605Y-121000000D01*
X151007745Y-121828139D01*
X151253864Y-121754005D01*
X151446965Y-121216777D01*
X151419778Y-120646546D01*
X151253864Y-120245995D01*
X151007745Y-120171861D01*
X150179605Y-121000000D01*
X149820395Y-121000000D01*
X148992255Y-120171861D01*
X148746136Y-120245995D01*
X148553035Y-120783223D01*
X146435189Y-120783223D01*
X146435248Y-120715813D01*
X146403372Y-120638668D01*
X146502147Y-120490841D01*
X146511745Y-120442587D01*
X146559999Y-120200001D01*
X146559999Y-119992255D01*
X149171861Y-119992255D01*
X150000000Y-120820395D01*
X150828139Y-119992255D01*
X150754005Y-119746136D01*
X150216777Y-119553035D01*
X149646546Y-119580222D01*
X149245995Y-119746136D01*
X149171861Y-119992255D01*
X146559999Y-119992255D01*
X146559999Y-110940993D01*
X147011966Y-111393750D01*
X147616354Y-111644713D01*
X148270775Y-111645284D01*
X148875600Y-111395376D01*
X149338750Y-110933034D01*
X149589713Y-110328646D01*
X149590284Y-109674225D01*
X149570423Y-109626157D01*
X154125787Y-105070792D01*
X154125790Y-105070790D01*
X154290000Y-104825031D01*
X154290000Y-167750181D01*
X153822138Y-166617868D01*
X152887055Y-165681151D01*
X151664685Y-165173579D01*
X150341122Y-165172424D01*
X149117868Y-165677862D01*
X148181151Y-166612945D01*
X147673579Y-167835315D01*
X147672424Y-169158878D01*
X148177862Y-170382132D01*
X149112945Y-171318849D01*
X150247603Y-171790000D01*
X147063571Y-171790000D01*
X147063571Y-165890000D01*
X127936429Y-165890000D01*
X127936429Y-171790000D01*
X124749819Y-171790000D01*
X125882132Y-171322138D01*
X126818849Y-170387055D01*
X127326421Y-169164685D01*
X127327576Y-167841122D01*
X126822138Y-166617868D01*
X125887055Y-165681151D01*
X124664685Y-165173579D01*
X123341122Y-165172424D01*
X122117868Y-165677862D01*
X121181151Y-166612945D01*
X120710000Y-167747603D01*
X120710000Y-162825775D01*
X125409716Y-162825775D01*
X125659624Y-163430600D01*
X126121966Y-163893750D01*
X126726354Y-164144713D01*
X127380775Y-164145284D01*
X127985600Y-163895376D01*
X128448750Y-163433034D01*
X128699713Y-162828646D01*
X128700284Y-162174225D01*
X128450376Y-161569400D01*
X128066613Y-161184967D01*
X128916579Y-160335000D01*
X130085783Y-160335000D01*
X130104624Y-160380600D01*
X130566966Y-160843750D01*
X131171354Y-161094713D01*
X131825775Y-161095284D01*
X132430600Y-160845376D01*
X132893750Y-160383034D01*
X132913695Y-160335000D01*
X134083420Y-160335000D01*
X134933652Y-161185231D01*
X134551250Y-161566966D01*
X134300287Y-162171354D01*
X134299716Y-162825775D01*
X134549624Y-163430600D01*
X135011966Y-163893750D01*
X135616354Y-164144713D01*
X136270775Y-164145284D01*
X136875600Y-163895376D01*
X137338750Y-163433034D01*
X137358695Y-163385000D01*
X137640783Y-163385000D01*
X137659624Y-163430600D01*
X138121966Y-163893750D01*
X138726354Y-164144713D01*
X139380775Y-164145284D01*
X139985600Y-163895376D01*
X140448750Y-163433034D01*
X140699713Y-162828646D01*
X140700284Y-162174225D01*
X140450376Y-161569400D01*
X140066613Y-161184967D01*
X140916579Y-160335000D01*
X142085783Y-160335000D01*
X142104624Y-160380600D01*
X142566966Y-160843750D01*
X143171354Y-161094713D01*
X143825775Y-161095284D01*
X144430600Y-160845376D01*
X144893750Y-160383034D01*
X144913695Y-160335000D01*
X145956775Y-160335000D01*
X146870274Y-161248498D01*
X146551250Y-161566966D01*
X146300287Y-162171354D01*
X146299716Y-162825775D01*
X146549624Y-163430600D01*
X147011966Y-163893750D01*
X147616354Y-164144713D01*
X148270775Y-164145284D01*
X148875600Y-163895376D01*
X149338750Y-163433034D01*
X149589713Y-162828646D01*
X149590284Y-162174225D01*
X149340376Y-161569400D01*
X148878034Y-161106250D01*
X148830000Y-161086305D01*
X148830000Y-161071645D01*
X148762633Y-160732970D01*
X148570790Y-160445855D01*
X148570787Y-160445853D01*
X146949145Y-158824210D01*
X146662030Y-158632367D01*
X146605839Y-158621190D01*
X146323355Y-158564999D01*
X146323350Y-158565000D01*
X144914217Y-158565000D01*
X144895376Y-158519400D01*
X144433034Y-158056250D01*
X143828646Y-157805287D01*
X143174225Y-157804716D01*
X142569400Y-158054624D01*
X142106250Y-158516966D01*
X142086305Y-158565000D01*
X140550005Y-158565000D01*
X140550000Y-158564999D01*
X140211325Y-158632367D01*
X139924210Y-158824210D01*
X139924208Y-158824213D01*
X138429210Y-160319210D01*
X138237367Y-160606325D01*
X138237367Y-160606326D01*
X138169999Y-160945000D01*
X138170000Y-160945005D01*
X138170000Y-161085783D01*
X138124400Y-161104624D01*
X137661250Y-161566966D01*
X137641305Y-161615000D01*
X137359217Y-161615000D01*
X137340376Y-161569400D01*
X136878034Y-161106250D01*
X136830000Y-161086305D01*
X136830000Y-160945005D01*
X136830001Y-160945000D01*
X136762633Y-160606325D01*
X136570790Y-160319210D01*
X136570787Y-160319208D01*
X135075790Y-158824210D01*
X134788675Y-158632367D01*
X134732484Y-158621190D01*
X134450000Y-158564999D01*
X134449995Y-158565000D01*
X132914217Y-158565000D01*
X132895376Y-158519400D01*
X132433034Y-158056250D01*
X131828646Y-157805287D01*
X131174225Y-157804716D01*
X130569400Y-158054624D01*
X130106250Y-158516966D01*
X130086305Y-158565000D01*
X128550005Y-158565000D01*
X128550000Y-158564999D01*
X128211325Y-158632367D01*
X127924210Y-158824210D01*
X127924208Y-158824213D01*
X126429210Y-160319210D01*
X126237367Y-160606325D01*
X126237367Y-160606326D01*
X126169999Y-160945000D01*
X126170000Y-160945005D01*
X126170000Y-161085783D01*
X126124400Y-161104624D01*
X125661250Y-161566966D01*
X125410287Y-162171354D01*
X125409716Y-162825775D01*
X120710000Y-162825775D01*
X120710000Y-141007745D01*
X124171861Y-141007745D01*
X124245995Y-141253864D01*
X124783223Y-141446965D01*
X125353454Y-141419778D01*
X125754005Y-141253864D01*
X125828139Y-141007745D01*
X125000000Y-140179605D01*
X124171861Y-141007745D01*
X120710000Y-141007745D01*
X120710000Y-139783223D01*
X123553035Y-139783223D01*
X123580222Y-140353454D01*
X123746136Y-140754005D01*
X123992255Y-140828139D01*
X124820395Y-140000000D01*
X125179605Y-140000000D01*
X126007745Y-140828139D01*
X126253864Y-140754005D01*
X126446965Y-140216777D01*
X126419778Y-139646546D01*
X126253864Y-139245995D01*
X126007745Y-139171861D01*
X125179605Y-140000000D01*
X124820395Y-140000000D01*
X123992255Y-139171861D01*
X123746136Y-139245995D01*
X123553035Y-139783223D01*
X120710000Y-139783223D01*
X120710000Y-138992255D01*
X124171861Y-138992255D01*
X125000000Y-139820395D01*
X125828139Y-138992255D01*
X125754005Y-138746136D01*
X125216777Y-138553035D01*
X124646546Y-138580222D01*
X124245995Y-138746136D01*
X124171861Y-138992255D01*
X120710000Y-138992255D01*
X120710000Y-126007745D01*
X124171861Y-126007745D01*
X124245995Y-126253864D01*
X124783223Y-126446965D01*
X125353454Y-126419778D01*
X125754005Y-126253864D01*
X125828139Y-126007745D01*
X125000000Y-125179605D01*
X124171861Y-126007745D01*
X120710000Y-126007745D01*
X120710000Y-124783223D01*
X123553035Y-124783223D01*
X123580222Y-125353454D01*
X123746136Y-125754005D01*
X123992255Y-125828139D01*
X124820395Y-125000000D01*
X125179605Y-125000000D01*
X126007745Y-125828139D01*
X126253864Y-125754005D01*
X126446965Y-125216777D01*
X126419778Y-124646546D01*
X126253864Y-124245995D01*
X126007745Y-124171861D01*
X125179605Y-125000000D01*
X124820395Y-125000000D01*
X123992255Y-124171861D01*
X123746136Y-124245995D01*
X123553035Y-124783223D01*
X120710000Y-124783223D01*
X120710000Y-123992255D01*
X124171861Y-123992255D01*
X125000000Y-124820395D01*
X125828139Y-123992255D01*
X125754005Y-123746136D01*
X125216777Y-123553035D01*
X124646546Y-123580222D01*
X124245995Y-123746136D01*
X124171861Y-123992255D01*
X120710000Y-123992255D01*
X120710000Y-112783074D01*
X129844149Y-112783074D01*
X129868044Y-113437059D01*
X130072342Y-113930274D01*
X130340234Y-114030161D01*
X131320395Y-113050000D01*
X130340234Y-112069839D01*
X130072342Y-112169726D01*
X129844149Y-112783074D01*
X120710000Y-112783074D01*
X120710000Y-111159766D01*
X126074839Y-111159766D01*
X126174726Y-111427658D01*
X126788074Y-111655851D01*
X127442059Y-111631956D01*
X127935274Y-111427658D01*
X128035161Y-111159766D01*
X127055000Y-110179605D01*
X126074839Y-111159766D01*
X120710000Y-111159766D01*
X120710000Y-109733074D01*
X125399149Y-109733074D01*
X125423044Y-110387059D01*
X125627342Y-110880274D01*
X125895234Y-110980161D01*
X126875395Y-110000000D01*
X127234605Y-110000000D01*
X128214766Y-110980161D01*
X128482658Y-110880274D01*
X128710851Y-110266926D01*
X128686956Y-109612941D01*
X128482658Y-109119726D01*
X128214766Y-109019839D01*
X127234605Y-110000000D01*
X126875395Y-110000000D01*
X125895234Y-109019839D01*
X125627342Y-109119726D01*
X125399149Y-109733074D01*
X120710000Y-109733074D01*
X120710000Y-108840234D01*
X126074839Y-108840234D01*
X127055000Y-109820395D01*
X128035161Y-108840234D01*
X127935274Y-108572342D01*
X127321926Y-108344149D01*
X126667941Y-108368044D01*
X126174726Y-108572342D01*
X126074839Y-108840234D01*
X120710000Y-108840234D01*
X120710000Y-103507745D01*
X124171861Y-103507745D01*
X124245995Y-103753864D01*
X124783223Y-103946965D01*
X125353454Y-103919778D01*
X125754005Y-103753864D01*
X125828139Y-103507745D01*
X125000000Y-102679605D01*
X124171861Y-103507745D01*
X120710000Y-103507745D01*
X120710000Y-102283223D01*
X123553035Y-102283223D01*
X123580222Y-102853454D01*
X123746136Y-103254005D01*
X123992255Y-103328139D01*
X124820395Y-102500000D01*
X125179605Y-102500000D01*
X126007745Y-103328139D01*
X126253864Y-103254005D01*
X126446965Y-102716777D01*
X126419778Y-102146546D01*
X126253864Y-101745995D01*
X126007745Y-101671861D01*
X125179605Y-102500000D01*
X124820395Y-102500000D01*
X123992255Y-101671861D01*
X123746136Y-101745995D01*
X123553035Y-102283223D01*
X120710000Y-102283223D01*
X120710000Y-101492255D01*
X124171861Y-101492255D01*
X125000000Y-102320395D01*
X125828139Y-101492255D01*
X125754005Y-101246136D01*
X125216777Y-101053035D01*
X124646546Y-101080222D01*
X124245995Y-101246136D01*
X124171861Y-101492255D01*
X120710000Y-101492255D01*
X120710000Y-83507745D01*
X124171861Y-83507745D01*
X124245995Y-83753864D01*
X124783223Y-83946965D01*
X125353454Y-83919778D01*
X125754005Y-83753864D01*
X125828139Y-83507745D01*
X125000000Y-82679605D01*
X124171861Y-83507745D01*
X120710000Y-83507745D01*
X120710000Y-82283223D01*
X123553035Y-82283223D01*
X123580222Y-82853454D01*
X123746136Y-83254005D01*
X123992255Y-83328139D01*
X124820395Y-82500000D01*
X125179605Y-82500000D01*
X126007745Y-83328139D01*
X126253864Y-83254005D01*
X126446965Y-82716777D01*
X126419778Y-82146546D01*
X126253864Y-81745995D01*
X126007745Y-81671861D01*
X125179605Y-82500000D01*
X124820395Y-82500000D01*
X123992255Y-81671861D01*
X123746136Y-81745995D01*
X123553035Y-82283223D01*
X120710000Y-82283223D01*
X120710000Y-81492255D01*
X124171861Y-81492255D01*
X125000000Y-82320395D01*
X125828139Y-81492255D01*
X125754005Y-81246136D01*
X125216777Y-81053035D01*
X124646546Y-81080222D01*
X124245995Y-81246136D01*
X124171861Y-81492255D01*
X120710000Y-81492255D01*
X120710000Y-63507745D01*
X124171861Y-63507745D01*
X124245995Y-63753864D01*
X124783223Y-63946965D01*
X125353454Y-63919778D01*
X125754005Y-63753864D01*
X125828139Y-63507745D01*
X125000000Y-62679605D01*
X124171861Y-63507745D01*
X120710000Y-63507745D01*
X120710000Y-62283223D01*
X123553035Y-62283223D01*
X123580222Y-62853454D01*
X123746136Y-63254005D01*
X123992255Y-63328139D01*
X124820395Y-62500000D01*
X125179605Y-62500000D01*
X126007745Y-63328139D01*
X126253864Y-63254005D01*
X126446965Y-62716777D01*
X126419778Y-62146546D01*
X126253864Y-61745995D01*
X126007745Y-61671861D01*
X125179605Y-62500000D01*
X124820395Y-62500000D01*
X123992255Y-61671861D01*
X123746136Y-61745995D01*
X123553035Y-62283223D01*
X120710000Y-62283223D01*
X120710000Y-61492255D01*
X124171861Y-61492255D01*
X125000000Y-62320395D01*
X125828139Y-61492255D01*
X125754005Y-61246136D01*
X125216777Y-61053035D01*
X124646546Y-61080222D01*
X124245995Y-61246136D01*
X124171861Y-61492255D01*
X120710000Y-61492255D01*
X120710000Y-53382946D01*
X122854017Y-53382946D01*
X123122812Y-53968379D01*
X123595182Y-54406385D01*
X124077056Y-54605975D01*
X124333000Y-54486836D01*
X124333000Y-53127000D01*
X122972633Y-53127000D01*
X122854017Y-53382946D01*
X120710000Y-53382946D01*
X120710000Y-52617054D01*
X122854017Y-52617054D01*
X122972633Y-52873000D01*
X124333000Y-52873000D01*
X124333000Y-51513164D01*
X124077056Y-51394025D01*
X123595182Y-51593615D01*
X123122812Y-52031621D01*
X122854017Y-52617054D01*
X120710000Y-52617054D01*
X120710000Y-46007745D01*
X124171861Y-46007745D01*
X124245995Y-46253864D01*
X124783223Y-46446965D01*
X125353454Y-46419778D01*
X125754005Y-46253864D01*
X125828139Y-46007745D01*
X125000000Y-45179605D01*
X124171861Y-46007745D01*
X120710000Y-46007745D01*
X120710000Y-44783223D01*
X123553035Y-44783223D01*
X123580222Y-45353454D01*
X123746136Y-45754005D01*
X123992255Y-45828139D01*
X124820395Y-45000000D01*
X125179605Y-45000000D01*
X126007745Y-45828139D01*
X126253864Y-45754005D01*
X126446965Y-45216777D01*
X126419778Y-44646546D01*
X126253864Y-44245995D01*
X126007745Y-44171861D01*
X125179605Y-45000000D01*
X124820395Y-45000000D01*
X123992255Y-44171861D01*
X123746136Y-44245995D01*
X123553035Y-44783223D01*
X120710000Y-44783223D01*
X120710000Y-43992255D01*
X124171861Y-43992255D01*
X125000000Y-44820395D01*
X125828139Y-43992255D01*
X125754005Y-43746136D01*
X125216777Y-43553035D01*
X124646546Y-43580222D01*
X124245995Y-43746136D01*
X124171861Y-43992255D01*
X120710000Y-43992255D01*
X120710000Y-37249819D01*
X121177862Y-38382132D01*
X122112945Y-39318849D01*
X123335315Y-39826421D01*
X124658878Y-39827576D01*
X125882132Y-39322138D01*
X126818849Y-38387055D01*
X127326421Y-37164685D01*
X127327576Y-35841122D01*
X126822138Y-34617868D01*
X125887055Y-33681151D01*
X124752397Y-33210000D01*
X137207172Y-33210000D01*
X137000254Y-33708314D01*
G36*
X145932041Y-55000000D02*
X146046115Y-55573489D01*
X146370971Y-56059670D01*
X146684521Y-56269177D01*
X146734755Y-56521721D01*
X146904921Y-56776393D01*
X147683607Y-57555079D01*
X147938279Y-57725245D01*
X148238686Y-57785000D01*
X152424842Y-57785000D01*
X152615000Y-57975158D01*
X152615000Y-104078421D01*
X148319212Y-108374208D01*
X148273646Y-108355287D01*
X147619225Y-108354716D01*
X147014400Y-108604624D01*
X146559999Y-109058232D01*
X146559999Y-106000000D01*
X146502147Y-105709161D01*
X146337400Y-105462599D01*
X144809635Y-103934834D01*
X145284187Y-103935248D01*
X145811800Y-103717243D01*
X146021663Y-103507745D01*
X149171861Y-103507745D01*
X149245995Y-103753864D01*
X149783223Y-103946965D01*
X150353454Y-103919778D01*
X150754005Y-103753864D01*
X150828139Y-103507745D01*
X150000000Y-102679605D01*
X149171861Y-103507745D01*
X146021663Y-103507745D01*
X146215824Y-103313923D01*
X146434750Y-102786691D01*
X146435189Y-102283223D01*
X148553035Y-102283223D01*
X148580222Y-102853454D01*
X148746136Y-103254005D01*
X148992255Y-103328139D01*
X149820395Y-102500000D01*
X150179605Y-102500000D01*
X151007745Y-103328139D01*
X151253864Y-103254005D01*
X151446965Y-102716777D01*
X151419778Y-102146546D01*
X151253864Y-101745995D01*
X151007745Y-101671861D01*
X150179605Y-102500000D01*
X149820395Y-102500000D01*
X148992255Y-101671861D01*
X148746136Y-101745995D01*
X148553035Y-102283223D01*
X146435189Y-102283223D01*
X146435248Y-102215813D01*
X146217243Y-101688200D01*
X146021640Y-101492255D01*
X149171861Y-101492255D01*
X150000000Y-102320395D01*
X150828139Y-101492255D01*
X150754005Y-101246136D01*
X150216777Y-101053035D01*
X149646546Y-101080222D01*
X149245995Y-101246136D01*
X149171861Y-101492255D01*
X146021640Y-101492255D01*
X145813923Y-101284176D01*
X145286691Y-101065250D01*
X144715813Y-101064752D01*
X144661851Y-101087049D01*
X144260000Y-100685198D01*
X144260000Y-83746520D01*
X144713309Y-83934750D01*
X145284187Y-83935248D01*
X145811800Y-83717243D01*
X146021663Y-83507745D01*
X149171861Y-83507745D01*
X149245995Y-83753864D01*
X149783223Y-83946965D01*
X150353454Y-83919778D01*
X150754005Y-83753864D01*
X150828139Y-83507745D01*
X150000000Y-82679605D01*
X149171861Y-83507745D01*
X146021663Y-83507745D01*
X146215824Y-83313923D01*
X146434750Y-82786691D01*
X146435189Y-82283223D01*
X148553035Y-82283223D01*
X148580222Y-82853454D01*
X148746136Y-83254005D01*
X148992255Y-83328139D01*
X149820395Y-82500000D01*
X150179605Y-82500000D01*
X151007745Y-83328139D01*
X151253864Y-83254005D01*
X151446965Y-82716777D01*
X151419778Y-82146546D01*
X151253864Y-81745995D01*
X151007745Y-81671861D01*
X150179605Y-82500000D01*
X149820395Y-82500000D01*
X148992255Y-81671861D01*
X148746136Y-81745995D01*
X148553035Y-82283223D01*
X146435189Y-82283223D01*
X146435248Y-82215813D01*
X146217243Y-81688200D01*
X146021640Y-81492255D01*
X149171861Y-81492255D01*
X150000000Y-82320395D01*
X150828139Y-81492255D01*
X150754005Y-81246136D01*
X150216777Y-81053035D01*
X149646546Y-81080222D01*
X149245995Y-81246136D01*
X149171861Y-81492255D01*
X146021640Y-81492255D01*
X145813923Y-81284176D01*
X145760000Y-81261785D01*
X145760000Y-65000000D01*
X145702148Y-64709161D01*
X145537401Y-64462599D01*
X145009811Y-63935009D01*
X145284187Y-63935248D01*
X145811800Y-63717243D01*
X146021663Y-63507745D01*
X149171861Y-63507745D01*
X149245995Y-63753864D01*
X149783223Y-63946965D01*
X150353454Y-63919778D01*
X150754005Y-63753864D01*
X150828139Y-63507745D01*
X150000000Y-62679605D01*
X149171861Y-63507745D01*
X146021663Y-63507745D01*
X146215824Y-63313923D01*
X146434750Y-62786691D01*
X146435189Y-62283223D01*
X148553035Y-62283223D01*
X148580222Y-62853454D01*
X148746136Y-63254005D01*
X148992255Y-63328139D01*
X149820395Y-62500000D01*
X150179605Y-62500000D01*
X151007745Y-63328139D01*
X151253864Y-63254005D01*
X151446965Y-62716777D01*
X151419778Y-62146546D01*
X151253864Y-61745995D01*
X151007745Y-61671861D01*
X150179605Y-62500000D01*
X149820395Y-62500000D01*
X148992255Y-61671861D01*
X148746136Y-61745995D01*
X148553035Y-62283223D01*
X146435189Y-62283223D01*
X146435248Y-62215813D01*
X146217243Y-61688200D01*
X146021640Y-61492255D01*
X149171861Y-61492255D01*
X150000000Y-62320395D01*
X150828139Y-61492255D01*
X150754005Y-61246136D01*
X150216777Y-61053035D01*
X149646546Y-61080222D01*
X149245995Y-61246136D01*
X149171861Y-61492255D01*
X146021640Y-61492255D01*
X145813923Y-61284176D01*
X145286691Y-61065250D01*
X144715813Y-61064752D01*
X144196894Y-61279165D01*
X144000000Y-61240000D01*
X140584884Y-61240000D01*
X140400000Y-61202560D01*
X139797440Y-61202560D01*
X139797440Y-60600000D01*
X139760000Y-60401024D01*
X139760000Y-60370642D01*
X140142086Y-60212767D01*
X140461645Y-59893765D01*
X140634803Y-59476756D01*
X140635197Y-59025225D01*
X140462767Y-58607914D01*
X140143765Y-58288355D01*
X139726756Y-58115197D01*
X139709620Y-58115182D01*
X140006674Y-57818128D01*
X140037233Y-57892086D01*
X140356235Y-58211645D01*
X140773244Y-58384803D01*
X141224775Y-58385197D01*
X141642086Y-58212767D01*
X141845207Y-58010000D01*
X142500000Y-58010000D01*
X142790839Y-57952148D01*
X143037401Y-57787401D01*
X145958669Y-54866133D01*
X145932041Y-55000000D01*
X145932041Y-55000000D01*
G37*
X145932041Y-55000000D02*
X146046115Y-55573489D01*
X146370971Y-56059670D01*
X146684521Y-56269177D01*
X146734755Y-56521721D01*
X146904921Y-56776393D01*
X147683607Y-57555079D01*
X147938279Y-57725245D01*
X148238686Y-57785000D01*
X152424842Y-57785000D01*
X152615000Y-57975158D01*
X152615000Y-104078421D01*
X148319212Y-108374208D01*
X148273646Y-108355287D01*
X147619225Y-108354716D01*
X147014400Y-108604624D01*
X146559999Y-109058232D01*
X146559999Y-106000000D01*
X146502147Y-105709161D01*
X146337400Y-105462599D01*
X144809635Y-103934834D01*
X145284187Y-103935248D01*
X145811800Y-103717243D01*
X146021663Y-103507745D01*
X149171861Y-103507745D01*
X149245995Y-103753864D01*
X149783223Y-103946965D01*
X150353454Y-103919778D01*
X150754005Y-103753864D01*
X150828139Y-103507745D01*
X150000000Y-102679605D01*
X149171861Y-103507745D01*
X146021663Y-103507745D01*
X146215824Y-103313923D01*
X146434750Y-102786691D01*
X146435189Y-102283223D01*
X148553035Y-102283223D01*
X148580222Y-102853454D01*
X148746136Y-103254005D01*
X148992255Y-103328139D01*
X149820395Y-102500000D01*
X150179605Y-102500000D01*
X151007745Y-103328139D01*
X151253864Y-103254005D01*
X151446965Y-102716777D01*
X151419778Y-102146546D01*
X151253864Y-101745995D01*
X151007745Y-101671861D01*
X150179605Y-102500000D01*
X149820395Y-102500000D01*
X148992255Y-101671861D01*
X148746136Y-101745995D01*
X148553035Y-102283223D01*
X146435189Y-102283223D01*
X146435248Y-102215813D01*
X146217243Y-101688200D01*
X146021640Y-101492255D01*
X149171861Y-101492255D01*
X150000000Y-102320395D01*
X150828139Y-101492255D01*
X150754005Y-101246136D01*
X150216777Y-101053035D01*
X149646546Y-101080222D01*
X149245995Y-101246136D01*
X149171861Y-101492255D01*
X146021640Y-101492255D01*
X145813923Y-101284176D01*
X145286691Y-101065250D01*
X144715813Y-101064752D01*
X144661851Y-101087049D01*
X144260000Y-100685198D01*
X144260000Y-83746520D01*
X144713309Y-83934750D01*
X145284187Y-83935248D01*
X145811800Y-83717243D01*
X146021663Y-83507745D01*
X149171861Y-83507745D01*
X149245995Y-83753864D01*
X149783223Y-83946965D01*
X150353454Y-83919778D01*
X150754005Y-83753864D01*
X150828139Y-83507745D01*
X150000000Y-82679605D01*
X149171861Y-83507745D01*
X146021663Y-83507745D01*
X146215824Y-83313923D01*
X146434750Y-82786691D01*
X146435189Y-82283223D01*
X148553035Y-82283223D01*
X148580222Y-82853454D01*
X148746136Y-83254005D01*
X148992255Y-83328139D01*
X149820395Y-82500000D01*
X150179605Y-82500000D01*
X151007745Y-83328139D01*
X151253864Y-83254005D01*
X151446965Y-82716777D01*
X151419778Y-82146546D01*
X151253864Y-81745995D01*
X151007745Y-81671861D01*
X150179605Y-82500000D01*
X149820395Y-82500000D01*
X148992255Y-81671861D01*
X148746136Y-81745995D01*
X148553035Y-82283223D01*
X146435189Y-82283223D01*
X146435248Y-82215813D01*
X146217243Y-81688200D01*
X146021640Y-81492255D01*
X149171861Y-81492255D01*
X150000000Y-82320395D01*
X150828139Y-81492255D01*
X150754005Y-81246136D01*
X150216777Y-81053035D01*
X149646546Y-81080222D01*
X149245995Y-81246136D01*
X149171861Y-81492255D01*
X146021640Y-81492255D01*
X145813923Y-81284176D01*
X145760000Y-81261785D01*
X145760000Y-65000000D01*
X145702148Y-64709161D01*
X145537401Y-64462599D01*
X145009811Y-63935009D01*
X145284187Y-63935248D01*
X145811800Y-63717243D01*
X146021663Y-63507745D01*
X149171861Y-63507745D01*
X149245995Y-63753864D01*
X149783223Y-63946965D01*
X150353454Y-63919778D01*
X150754005Y-63753864D01*
X150828139Y-63507745D01*
X150000000Y-62679605D01*
X149171861Y-63507745D01*
X146021663Y-63507745D01*
X146215824Y-63313923D01*
X146434750Y-62786691D01*
X146435189Y-62283223D01*
X148553035Y-62283223D01*
X148580222Y-62853454D01*
X148746136Y-63254005D01*
X148992255Y-63328139D01*
X149820395Y-62500000D01*
X150179605Y-62500000D01*
X151007745Y-63328139D01*
X151253864Y-63254005D01*
X151446965Y-62716777D01*
X151419778Y-62146546D01*
X151253864Y-61745995D01*
X151007745Y-61671861D01*
X150179605Y-62500000D01*
X149820395Y-62500000D01*
X148992255Y-61671861D01*
X148746136Y-61745995D01*
X148553035Y-62283223D01*
X146435189Y-62283223D01*
X146435248Y-62215813D01*
X146217243Y-61688200D01*
X146021640Y-61492255D01*
X149171861Y-61492255D01*
X150000000Y-62320395D01*
X150828139Y-61492255D01*
X150754005Y-61246136D01*
X150216777Y-61053035D01*
X149646546Y-61080222D01*
X149245995Y-61246136D01*
X149171861Y-61492255D01*
X146021640Y-61492255D01*
X145813923Y-61284176D01*
X145286691Y-61065250D01*
X144715813Y-61064752D01*
X144196894Y-61279165D01*
X144000000Y-61240000D01*
X140584884Y-61240000D01*
X140400000Y-61202560D01*
X139797440Y-61202560D01*
X139797440Y-60600000D01*
X139760000Y-60401024D01*
X139760000Y-60370642D01*
X140142086Y-60212767D01*
X140461645Y-59893765D01*
X140634803Y-59476756D01*
X140635197Y-59025225D01*
X140462767Y-58607914D01*
X140143765Y-58288355D01*
X139726756Y-58115197D01*
X139709620Y-58115182D01*
X140006674Y-57818128D01*
X140037233Y-57892086D01*
X140356235Y-58211645D01*
X140773244Y-58384803D01*
X141224775Y-58385197D01*
X141642086Y-58212767D01*
X141845207Y-58010000D01*
X142500000Y-58010000D01*
X142790839Y-57952148D01*
X143037401Y-57787401D01*
X145958669Y-54866133D01*
X145932041Y-55000000D01*
G36*
X138127000Y-62873000D02*
X138147000Y-62873000D01*
X138147000Y-63127000D01*
X138127000Y-63127000D01*
X138127000Y-63147000D01*
X137873000Y-63147000D01*
X137873000Y-63127000D01*
X137853000Y-63127000D01*
X137853000Y-62873000D01*
X137873000Y-62873000D01*
X137873000Y-62853000D01*
X138127000Y-62853000D01*
X138127000Y-62873000D01*
X138127000Y-62873000D01*
G37*
X138127000Y-62873000D02*
X138147000Y-62873000D01*
X138147000Y-63127000D01*
X138127000Y-63127000D01*
X138127000Y-63147000D01*
X137873000Y-63147000D01*
X137873000Y-63127000D01*
X137853000Y-63127000D01*
X137853000Y-62873000D01*
X137873000Y-62873000D01*
X137873000Y-62853000D01*
X138127000Y-62853000D01*
X138127000Y-62873000D01*
G36*
X133890000Y-54978690D02*
X133890000Y-55119250D01*
X134048750Y-55278000D01*
X135173000Y-55278000D01*
X135173000Y-55258000D01*
X135427000Y-55258000D01*
X135427000Y-55278000D01*
X135447000Y-55278000D01*
X135447000Y-55532000D01*
X135427000Y-55532000D01*
X135427000Y-56181250D01*
X135585750Y-56340000D01*
X136054132Y-56340000D01*
X135084566Y-57309566D01*
X134903561Y-57580459D01*
X134868042Y-57759025D01*
X134748559Y-57835910D01*
X134742623Y-57844598D01*
X134659698Y-57761673D01*
X134426309Y-57665000D01*
X134110750Y-57665000D01*
X133952000Y-57823750D01*
X133952000Y-58873000D01*
X133972000Y-58873000D01*
X133972000Y-59127000D01*
X133952000Y-59127000D01*
X133952000Y-60176250D01*
X134110750Y-60335000D01*
X134426309Y-60335000D01*
X134659698Y-60238327D01*
X134742252Y-60155774D01*
X134948110Y-60296431D01*
X135200000Y-60347440D01*
X136150000Y-60347440D01*
X136240000Y-60330505D01*
X136240000Y-60415116D01*
X136202560Y-60600000D01*
X136202560Y-61202560D01*
X135605172Y-61202560D01*
X135462767Y-60857914D01*
X135143765Y-60538355D01*
X134726756Y-60365197D01*
X134275225Y-60364803D01*
X133857914Y-60537233D01*
X133538355Y-60856235D01*
X133365197Y-61273244D01*
X133365182Y-61290380D01*
X131360552Y-59285750D01*
X132715000Y-59285750D01*
X132715000Y-59826310D01*
X132811673Y-60059699D01*
X132990302Y-60238327D01*
X133223691Y-60335000D01*
X133539250Y-60335000D01*
X133698000Y-60176250D01*
X133698000Y-59127000D01*
X132873750Y-59127000D01*
X132715000Y-59285750D01*
X131360552Y-59285750D01*
X130760000Y-58685198D01*
X130760000Y-58173690D01*
X132715000Y-58173690D01*
X132715000Y-58714250D01*
X132873750Y-58873000D01*
X133698000Y-58873000D01*
X133698000Y-57823750D01*
X133539250Y-57665000D01*
X133223691Y-57665000D01*
X132990302Y-57761673D01*
X132811673Y-57940301D01*
X132715000Y-58173690D01*
X130760000Y-58173690D01*
X130760000Y-55690750D01*
X133890000Y-55690750D01*
X133890000Y-55831310D01*
X133986673Y-56064699D01*
X134165302Y-56243327D01*
X134398691Y-56340000D01*
X135014250Y-56340000D01*
X135173000Y-56181250D01*
X135173000Y-55532000D01*
X134048750Y-55532000D01*
X133890000Y-55690750D01*
X130760000Y-55690750D01*
X130760000Y-55117334D01*
X130835317Y-55103162D01*
X131001477Y-54996241D01*
X131148110Y-55096431D01*
X131400000Y-55147440D01*
X132600000Y-55147440D01*
X132835317Y-55103162D01*
X133051441Y-54964090D01*
X133098648Y-54895000D01*
X133924666Y-54895000D01*
X133890000Y-54978690D01*
X133890000Y-54978690D01*
G37*
X133890000Y-54978690D02*
X133890000Y-55119250D01*
X134048750Y-55278000D01*
X135173000Y-55278000D01*
X135173000Y-55258000D01*
X135427000Y-55258000D01*
X135427000Y-55278000D01*
X135447000Y-55278000D01*
X135447000Y-55532000D01*
X135427000Y-55532000D01*
X135427000Y-56181250D01*
X135585750Y-56340000D01*
X136054132Y-56340000D01*
X135084566Y-57309566D01*
X134903561Y-57580459D01*
X134868042Y-57759025D01*
X134748559Y-57835910D01*
X134742623Y-57844598D01*
X134659698Y-57761673D01*
X134426309Y-57665000D01*
X134110750Y-57665000D01*
X133952000Y-57823750D01*
X133952000Y-58873000D01*
X133972000Y-58873000D01*
X133972000Y-59127000D01*
X133952000Y-59127000D01*
X133952000Y-60176250D01*
X134110750Y-60335000D01*
X134426309Y-60335000D01*
X134659698Y-60238327D01*
X134742252Y-60155774D01*
X134948110Y-60296431D01*
X135200000Y-60347440D01*
X136150000Y-60347440D01*
X136240000Y-60330505D01*
X136240000Y-60415116D01*
X136202560Y-60600000D01*
X136202560Y-61202560D01*
X135605172Y-61202560D01*
X135462767Y-60857914D01*
X135143765Y-60538355D01*
X134726756Y-60365197D01*
X134275225Y-60364803D01*
X133857914Y-60537233D01*
X133538355Y-60856235D01*
X133365197Y-61273244D01*
X133365182Y-61290380D01*
X131360552Y-59285750D01*
X132715000Y-59285750D01*
X132715000Y-59826310D01*
X132811673Y-60059699D01*
X132990302Y-60238327D01*
X133223691Y-60335000D01*
X133539250Y-60335000D01*
X133698000Y-60176250D01*
X133698000Y-59127000D01*
X132873750Y-59127000D01*
X132715000Y-59285750D01*
X131360552Y-59285750D01*
X130760000Y-58685198D01*
X130760000Y-58173690D01*
X132715000Y-58173690D01*
X132715000Y-58714250D01*
X132873750Y-58873000D01*
X133698000Y-58873000D01*
X133698000Y-57823750D01*
X133539250Y-57665000D01*
X133223691Y-57665000D01*
X132990302Y-57761673D01*
X132811673Y-57940301D01*
X132715000Y-58173690D01*
X130760000Y-58173690D01*
X130760000Y-55690750D01*
X133890000Y-55690750D01*
X133890000Y-55831310D01*
X133986673Y-56064699D01*
X134165302Y-56243327D01*
X134398691Y-56340000D01*
X135014250Y-56340000D01*
X135173000Y-56181250D01*
X135173000Y-55532000D01*
X134048750Y-55532000D01*
X133890000Y-55690750D01*
X130760000Y-55690750D01*
X130760000Y-55117334D01*
X130835317Y-55103162D01*
X131001477Y-54996241D01*
X131148110Y-55096431D01*
X131400000Y-55147440D01*
X132600000Y-55147440D01*
X132835317Y-55103162D01*
X133051441Y-54964090D01*
X133098648Y-54895000D01*
X133924666Y-54895000D01*
X133890000Y-54978690D01*
G36*
X152615000Y-49366579D02*
X152615000Y-56215000D01*
X151392039Y-56215000D01*
X151460031Y-56115490D01*
X151511040Y-55863600D01*
X151511040Y-54136400D01*
X151466762Y-53901083D01*
X151327690Y-53684959D01*
X151115490Y-53539969D01*
X151071869Y-53531136D01*
X151089029Y-53519670D01*
X151413885Y-53033489D01*
X151527959Y-52460000D01*
X151413885Y-51886511D01*
X151089029Y-51400330D01*
X150774248Y-51190000D01*
X151089029Y-50979670D01*
X151413885Y-50493489D01*
X151527959Y-49920000D01*
X151413885Y-49346511D01*
X151089029Y-48860330D01*
X150602848Y-48535474D01*
X150029359Y-48421400D01*
X149970641Y-48421400D01*
X149397152Y-48535474D01*
X148910971Y-48860330D01*
X148730008Y-49131161D01*
X148348490Y-48713179D01*
X147819027Y-48465032D01*
X147587000Y-48585531D01*
X147587000Y-49793000D01*
X147607000Y-49793000D01*
X147607000Y-50047000D01*
X147587000Y-50047000D01*
X147587000Y-50067000D01*
X147333000Y-50067000D01*
X147333000Y-50047000D01*
X146126183Y-50047000D01*
X146005042Y-50279026D01*
X146095652Y-50497790D01*
X145987761Y-50519251D01*
X145741200Y-50683998D01*
X143050198Y-53375000D01*
X142079914Y-53375000D01*
X142122440Y-53165000D01*
X142122440Y-52565000D01*
X142078162Y-52329683D01*
X142014322Y-52230472D01*
X142071431Y-52146890D01*
X142122440Y-51895000D01*
X142122440Y-51295000D01*
X142078162Y-51059683D01*
X141939090Y-50843559D01*
X141835000Y-50772437D01*
X141835000Y-50522038D01*
X141935317Y-50503162D01*
X142151441Y-50364090D01*
X142296431Y-50151890D01*
X142347440Y-49900000D01*
X142347440Y-49560974D01*
X146005042Y-49560974D01*
X146126183Y-49793000D01*
X147333000Y-49793000D01*
X147333000Y-48585531D01*
X147100973Y-48465032D01*
X146571510Y-48713179D01*
X146177312Y-49145053D01*
X146005042Y-49560974D01*
X142347440Y-49560974D01*
X142347440Y-48950000D01*
X142303162Y-48714683D01*
X142164090Y-48498559D01*
X142155402Y-48492623D01*
X142238327Y-48409698D01*
X142335000Y-48176309D01*
X142335000Y-47860750D01*
X142176250Y-47702000D01*
X141127000Y-47702000D01*
X141127000Y-47722000D01*
X140873000Y-47722000D01*
X140873000Y-47702000D01*
X140853000Y-47702000D01*
X140853000Y-47448000D01*
X140873000Y-47448000D01*
X140873000Y-46623750D01*
X141127000Y-46623750D01*
X141127000Y-47448000D01*
X142176250Y-47448000D01*
X142335000Y-47289250D01*
X142335000Y-46973691D01*
X142238327Y-46740302D01*
X142059699Y-46561673D01*
X141826310Y-46465000D01*
X141285750Y-46465000D01*
X141127000Y-46623750D01*
X140873000Y-46623750D01*
X140750415Y-46501165D01*
X140866579Y-46385000D01*
X149633420Y-46385000D01*
X152615000Y-49366579D01*
X152615000Y-49366579D01*
G37*
X152615000Y-49366579D02*
X152615000Y-56215000D01*
X151392039Y-56215000D01*
X151460031Y-56115490D01*
X151511040Y-55863600D01*
X151511040Y-54136400D01*
X151466762Y-53901083D01*
X151327690Y-53684959D01*
X151115490Y-53539969D01*
X151071869Y-53531136D01*
X151089029Y-53519670D01*
X151413885Y-53033489D01*
X151527959Y-52460000D01*
X151413885Y-51886511D01*
X151089029Y-51400330D01*
X150774248Y-51190000D01*
X151089029Y-50979670D01*
X151413885Y-50493489D01*
X151527959Y-49920000D01*
X151413885Y-49346511D01*
X151089029Y-48860330D01*
X150602848Y-48535474D01*
X150029359Y-48421400D01*
X149970641Y-48421400D01*
X149397152Y-48535474D01*
X148910971Y-48860330D01*
X148730008Y-49131161D01*
X148348490Y-48713179D01*
X147819027Y-48465032D01*
X147587000Y-48585531D01*
X147587000Y-49793000D01*
X147607000Y-49793000D01*
X147607000Y-50047000D01*
X147587000Y-50047000D01*
X147587000Y-50067000D01*
X147333000Y-50067000D01*
X147333000Y-50047000D01*
X146126183Y-50047000D01*
X146005042Y-50279026D01*
X146095652Y-50497790D01*
X145987761Y-50519251D01*
X145741200Y-50683998D01*
X143050198Y-53375000D01*
X142079914Y-53375000D01*
X142122440Y-53165000D01*
X142122440Y-52565000D01*
X142078162Y-52329683D01*
X142014322Y-52230472D01*
X142071431Y-52146890D01*
X142122440Y-51895000D01*
X142122440Y-51295000D01*
X142078162Y-51059683D01*
X141939090Y-50843559D01*
X141835000Y-50772437D01*
X141835000Y-50522038D01*
X141935317Y-50503162D01*
X142151441Y-50364090D01*
X142296431Y-50151890D01*
X142347440Y-49900000D01*
X142347440Y-49560974D01*
X146005042Y-49560974D01*
X146126183Y-49793000D01*
X147333000Y-49793000D01*
X147333000Y-48585531D01*
X147100973Y-48465032D01*
X146571510Y-48713179D01*
X146177312Y-49145053D01*
X146005042Y-49560974D01*
X142347440Y-49560974D01*
X142347440Y-48950000D01*
X142303162Y-48714683D01*
X142164090Y-48498559D01*
X142155402Y-48492623D01*
X142238327Y-48409698D01*
X142335000Y-48176309D01*
X142335000Y-47860750D01*
X142176250Y-47702000D01*
X141127000Y-47702000D01*
X141127000Y-47722000D01*
X140873000Y-47722000D01*
X140873000Y-47702000D01*
X140853000Y-47702000D01*
X140853000Y-47448000D01*
X140873000Y-47448000D01*
X140873000Y-46623750D01*
X141127000Y-46623750D01*
X141127000Y-47448000D01*
X142176250Y-47448000D01*
X142335000Y-47289250D01*
X142335000Y-46973691D01*
X142238327Y-46740302D01*
X142059699Y-46561673D01*
X141826310Y-46465000D01*
X141285750Y-46465000D01*
X141127000Y-46623750D01*
X140873000Y-46623750D01*
X140750415Y-46501165D01*
X140866579Y-46385000D01*
X149633420Y-46385000D01*
X152615000Y-49366579D01*
G36*
X134600997Y-44842914D02*
X135183341Y-45084724D01*
X135813893Y-45085275D01*
X135877942Y-45058810D01*
X136665000Y-45845868D01*
X136665000Y-46396778D01*
X136664683Y-46396838D01*
X136448559Y-46535910D01*
X136303569Y-46748110D01*
X136252560Y-47000000D01*
X136252560Y-47900000D01*
X136296838Y-48135317D01*
X136435910Y-48351441D01*
X136648110Y-48496431D01*
X136661197Y-48499081D01*
X136448559Y-48635910D01*
X136303569Y-48848110D01*
X136252560Y-49100000D01*
X136252560Y-50000000D01*
X136296838Y-50235317D01*
X136435910Y-50451441D01*
X136648110Y-50596431D01*
X136900000Y-50647440D01*
X138100000Y-50647440D01*
X138115000Y-50644618D01*
X138115000Y-51633421D01*
X136722440Y-53025980D01*
X136722440Y-52565000D01*
X136678162Y-52329683D01*
X136614322Y-52230472D01*
X136671431Y-52146890D01*
X136722440Y-51895000D01*
X136722440Y-51295000D01*
X136678162Y-51059683D01*
X136539090Y-50843559D01*
X136326890Y-50698569D01*
X136075000Y-50647560D01*
X134525000Y-50647560D01*
X134295827Y-50690682D01*
X134143765Y-50538355D01*
X133832678Y-50409180D01*
X133901491Y-50364900D01*
X133996977Y-50225151D01*
X134011623Y-50260509D01*
X134190252Y-50439137D01*
X134423641Y-50535810D01*
X134664250Y-50535810D01*
X134823000Y-50377060D01*
X134823000Y-49627760D01*
X135077000Y-49627760D01*
X135077000Y-50377060D01*
X135235750Y-50535810D01*
X135476359Y-50535810D01*
X135709748Y-50439137D01*
X135888377Y-50260509D01*
X135985050Y-50027120D01*
X135985050Y-49786510D01*
X135826300Y-49627760D01*
X135077000Y-49627760D01*
X134823000Y-49627760D01*
X134803000Y-49627760D01*
X134803000Y-49373760D01*
X134823000Y-49373760D01*
X134823000Y-48624460D01*
X135077000Y-48624460D01*
X135077000Y-49373760D01*
X135826300Y-49373760D01*
X135985050Y-49215010D01*
X135985050Y-48974400D01*
X135888377Y-48741011D01*
X135709748Y-48562383D01*
X135476359Y-48465710D01*
X135235750Y-48465710D01*
X135077000Y-48624460D01*
X134823000Y-48624460D01*
X134676843Y-48478303D01*
X134851491Y-48365920D01*
X134996481Y-48153720D01*
X135047490Y-47901830D01*
X135047490Y-47101730D01*
X135003212Y-46866413D01*
X134864140Y-46650289D01*
X134835000Y-46630378D01*
X134835000Y-46000000D01*
X134771439Y-45680459D01*
X134590434Y-45409566D01*
X134229719Y-45048851D01*
X134361441Y-44964090D01*
X134506431Y-44751890D01*
X134507055Y-44748808D01*
X134600997Y-44842914D01*
X134600997Y-44842914D01*
G37*
X134600997Y-44842914D02*
X135183341Y-45084724D01*
X135813893Y-45085275D01*
X135877942Y-45058810D01*
X136665000Y-45845868D01*
X136665000Y-46396778D01*
X136664683Y-46396838D01*
X136448559Y-46535910D01*
X136303569Y-46748110D01*
X136252560Y-47000000D01*
X136252560Y-47900000D01*
X136296838Y-48135317D01*
X136435910Y-48351441D01*
X136648110Y-48496431D01*
X136661197Y-48499081D01*
X136448559Y-48635910D01*
X136303569Y-48848110D01*
X136252560Y-49100000D01*
X136252560Y-50000000D01*
X136296838Y-50235317D01*
X136435910Y-50451441D01*
X136648110Y-50596431D01*
X136900000Y-50647440D01*
X138100000Y-50647440D01*
X138115000Y-50644618D01*
X138115000Y-51633421D01*
X136722440Y-53025980D01*
X136722440Y-52565000D01*
X136678162Y-52329683D01*
X136614322Y-52230472D01*
X136671431Y-52146890D01*
X136722440Y-51895000D01*
X136722440Y-51295000D01*
X136678162Y-51059683D01*
X136539090Y-50843559D01*
X136326890Y-50698569D01*
X136075000Y-50647560D01*
X134525000Y-50647560D01*
X134295827Y-50690682D01*
X134143765Y-50538355D01*
X133832678Y-50409180D01*
X133901491Y-50364900D01*
X133996977Y-50225151D01*
X134011623Y-50260509D01*
X134190252Y-50439137D01*
X134423641Y-50535810D01*
X134664250Y-50535810D01*
X134823000Y-50377060D01*
X134823000Y-49627760D01*
X135077000Y-49627760D01*
X135077000Y-50377060D01*
X135235750Y-50535810D01*
X135476359Y-50535810D01*
X135709748Y-50439137D01*
X135888377Y-50260509D01*
X135985050Y-50027120D01*
X135985050Y-49786510D01*
X135826300Y-49627760D01*
X135077000Y-49627760D01*
X134823000Y-49627760D01*
X134803000Y-49627760D01*
X134803000Y-49373760D01*
X134823000Y-49373760D01*
X134823000Y-48624460D01*
X135077000Y-48624460D01*
X135077000Y-49373760D01*
X135826300Y-49373760D01*
X135985050Y-49215010D01*
X135985050Y-48974400D01*
X135888377Y-48741011D01*
X135709748Y-48562383D01*
X135476359Y-48465710D01*
X135235750Y-48465710D01*
X135077000Y-48624460D01*
X134823000Y-48624460D01*
X134676843Y-48478303D01*
X134851491Y-48365920D01*
X134996481Y-48153720D01*
X135047490Y-47901830D01*
X135047490Y-47101730D01*
X135003212Y-46866413D01*
X134864140Y-46650289D01*
X134835000Y-46630378D01*
X134835000Y-46000000D01*
X134771439Y-45680459D01*
X134590434Y-45409566D01*
X134229719Y-45048851D01*
X134361441Y-44964090D01*
X134506431Y-44751890D01*
X134507055Y-44748808D01*
X134600997Y-44842914D01*
G36*
X149117868Y-33677862D02*
X148181151Y-34612945D01*
X147673579Y-35835315D01*
X147672424Y-37158878D01*
X148177862Y-38382132D01*
X149112945Y-39318849D01*
X150335315Y-39826421D01*
X151658878Y-39827576D01*
X152882132Y-39322138D01*
X153818849Y-38387055D01*
X154290000Y-37252397D01*
X154290000Y-48619969D01*
X154125790Y-48374210D01*
X154125787Y-48374208D01*
X150625790Y-44874210D01*
X150578952Y-44842914D01*
X150338675Y-44682367D01*
X150251366Y-44665000D01*
X150000000Y-44614999D01*
X149999995Y-44615000D01*
X140795868Y-44615000D01*
X140335000Y-44154132D01*
X140335000Y-40603222D01*
X140335317Y-40603162D01*
X140551441Y-40464090D01*
X140639644Y-40335000D01*
X140896778Y-40335000D01*
X140896838Y-40335317D01*
X141035910Y-40551441D01*
X141248110Y-40696431D01*
X141500000Y-40747440D01*
X142400000Y-40747440D01*
X142635317Y-40703162D01*
X142851441Y-40564090D01*
X142996431Y-40351890D01*
X142999081Y-40338803D01*
X143135910Y-40551441D01*
X143348110Y-40696431D01*
X143600000Y-40747440D01*
X144500000Y-40747440D01*
X144735317Y-40703162D01*
X144951441Y-40564090D01*
X145096431Y-40351890D01*
X145147440Y-40100000D01*
X145147440Y-38900000D01*
X145103162Y-38664683D01*
X144980879Y-38474650D01*
X144996431Y-38451890D01*
X145047440Y-38200000D01*
X145047440Y-36800000D01*
X145003162Y-36564683D01*
X144864090Y-36348559D01*
X144710000Y-36243274D01*
X144710000Y-34894992D01*
X144777006Y-34828103D01*
X144999746Y-34291686D01*
X145000253Y-33710862D01*
X144793300Y-33210000D01*
X150250181Y-33210000D01*
X149117868Y-33677862D01*
X149117868Y-33677862D01*
G37*
X149117868Y-33677862D02*
X148181151Y-34612945D01*
X147673579Y-35835315D01*
X147672424Y-37158878D01*
X148177862Y-38382132D01*
X149112945Y-39318849D01*
X150335315Y-39826421D01*
X151658878Y-39827576D01*
X152882132Y-39322138D01*
X153818849Y-38387055D01*
X154290000Y-37252397D01*
X154290000Y-48619969D01*
X154125790Y-48374210D01*
X154125787Y-48374208D01*
X150625790Y-44874210D01*
X150578952Y-44842914D01*
X150338675Y-44682367D01*
X150251366Y-44665000D01*
X150000000Y-44614999D01*
X149999995Y-44615000D01*
X140795868Y-44615000D01*
X140335000Y-44154132D01*
X140335000Y-40603222D01*
X140335317Y-40603162D01*
X140551441Y-40464090D01*
X140639644Y-40335000D01*
X140896778Y-40335000D01*
X140896838Y-40335317D01*
X141035910Y-40551441D01*
X141248110Y-40696431D01*
X141500000Y-40747440D01*
X142400000Y-40747440D01*
X142635317Y-40703162D01*
X142851441Y-40564090D01*
X142996431Y-40351890D01*
X142999081Y-40338803D01*
X143135910Y-40551441D01*
X143348110Y-40696431D01*
X143600000Y-40747440D01*
X144500000Y-40747440D01*
X144735317Y-40703162D01*
X144951441Y-40564090D01*
X145096431Y-40351890D01*
X145147440Y-40100000D01*
X145147440Y-38900000D01*
X145103162Y-38664683D01*
X144980879Y-38474650D01*
X144996431Y-38451890D01*
X145047440Y-38200000D01*
X145047440Y-36800000D01*
X145003162Y-36564683D01*
X144864090Y-36348559D01*
X144710000Y-36243274D01*
X144710000Y-34894992D01*
X144777006Y-34828103D01*
X144999746Y-34291686D01*
X145000253Y-33710862D01*
X144793300Y-33210000D01*
X150250181Y-33210000D01*
X149117868Y-33677862D01*
G36*
X141193748Y-33985858D02*
X141179605Y-34000000D01*
X142025853Y-34846248D01*
X142274563Y-34769044D01*
X142276185Y-34764553D01*
X142301551Y-34825943D01*
X142711897Y-35237006D01*
X143140000Y-35414770D01*
X143140000Y-36244895D01*
X142998559Y-36335910D01*
X142992623Y-36344598D01*
X142909698Y-36261673D01*
X142676309Y-36165000D01*
X142360750Y-36165000D01*
X142202000Y-36323750D01*
X142202000Y-37373000D01*
X142222000Y-37373000D01*
X142222000Y-37627000D01*
X142202000Y-37627000D01*
X142202000Y-37647000D01*
X141948000Y-37647000D01*
X141948000Y-37627000D01*
X141123750Y-37627000D01*
X140965000Y-37785750D01*
X140965000Y-38326310D01*
X141024801Y-38470681D01*
X140903569Y-38648110D01*
X140879898Y-38765000D01*
X140639018Y-38765000D01*
X140564090Y-38648559D01*
X140351890Y-38503569D01*
X140338803Y-38500919D01*
X140551441Y-38364090D01*
X140696431Y-38151890D01*
X140747440Y-37900000D01*
X140747440Y-37000000D01*
X140703162Y-36764683D01*
X140644610Y-36673690D01*
X140965000Y-36673690D01*
X140965000Y-37214250D01*
X141123750Y-37373000D01*
X141948000Y-37373000D01*
X141948000Y-36323750D01*
X141789250Y-36165000D01*
X141473691Y-36165000D01*
X141240302Y-36261673D01*
X141061673Y-36440301D01*
X140965000Y-36673690D01*
X140644610Y-36673690D01*
X140564090Y-36548559D01*
X140351890Y-36403569D01*
X140253916Y-36383729D01*
X140225245Y-36239593D01*
X140055079Y-35984921D01*
X139297285Y-35227127D01*
X139498910Y-35025853D01*
X140153752Y-35025853D01*
X140230956Y-35274563D01*
X140777250Y-35471843D01*
X141357456Y-35445048D01*
X141769044Y-35274563D01*
X141846248Y-35025853D01*
X141000000Y-34179605D01*
X140153752Y-35025853D01*
X139498910Y-35025853D01*
X139697006Y-34828103D01*
X139723486Y-34764333D01*
X139725437Y-34769044D01*
X139974147Y-34846248D01*
X140820395Y-34000000D01*
X140806253Y-33985858D01*
X140985858Y-33806253D01*
X141000000Y-33820395D01*
X141014143Y-33806253D01*
X141193748Y-33985858D01*
X141193748Y-33985858D01*
G37*
X141193748Y-33985858D02*
X141179605Y-34000000D01*
X142025853Y-34846248D01*
X142274563Y-34769044D01*
X142276185Y-34764553D01*
X142301551Y-34825943D01*
X142711897Y-35237006D01*
X143140000Y-35414770D01*
X143140000Y-36244895D01*
X142998559Y-36335910D01*
X142992623Y-36344598D01*
X142909698Y-36261673D01*
X142676309Y-36165000D01*
X142360750Y-36165000D01*
X142202000Y-36323750D01*
X142202000Y-37373000D01*
X142222000Y-37373000D01*
X142222000Y-37627000D01*
X142202000Y-37627000D01*
X142202000Y-37647000D01*
X141948000Y-37647000D01*
X141948000Y-37627000D01*
X141123750Y-37627000D01*
X140965000Y-37785750D01*
X140965000Y-38326310D01*
X141024801Y-38470681D01*
X140903569Y-38648110D01*
X140879898Y-38765000D01*
X140639018Y-38765000D01*
X140564090Y-38648559D01*
X140351890Y-38503569D01*
X140338803Y-38500919D01*
X140551441Y-38364090D01*
X140696431Y-38151890D01*
X140747440Y-37900000D01*
X140747440Y-37000000D01*
X140703162Y-36764683D01*
X140644610Y-36673690D01*
X140965000Y-36673690D01*
X140965000Y-37214250D01*
X141123750Y-37373000D01*
X141948000Y-37373000D01*
X141948000Y-36323750D01*
X141789250Y-36165000D01*
X141473691Y-36165000D01*
X141240302Y-36261673D01*
X141061673Y-36440301D01*
X140965000Y-36673690D01*
X140644610Y-36673690D01*
X140564090Y-36548559D01*
X140351890Y-36403569D01*
X140253916Y-36383729D01*
X140225245Y-36239593D01*
X140055079Y-35984921D01*
X139297285Y-35227127D01*
X139498910Y-35025853D01*
X140153752Y-35025853D01*
X140230956Y-35274563D01*
X140777250Y-35471843D01*
X141357456Y-35445048D01*
X141769044Y-35274563D01*
X141846248Y-35025853D01*
X141000000Y-34179605D01*
X140153752Y-35025853D01*
X139498910Y-35025853D01*
X139697006Y-34828103D01*
X139723486Y-34764333D01*
X139725437Y-34769044D01*
X139974147Y-34846248D01*
X140820395Y-34000000D01*
X140806253Y-33985858D01*
X140985858Y-33806253D01*
X141000000Y-33820395D01*
X141014143Y-33806253D01*
X141193748Y-33985858D01*
M02*
